<svg width="300" height="300" viewBox="0 0 300 300" fill="none" xmlns="http://www.w3.org/2000/svg">
<rect width="300" height="300" fill="#FDE9D6"/>
<path d="M268.152 147.97L262.533 159.607C253.633 178.05 228.52 185.273 201.213 179.274C205.002 198.46 196.147 223.636 176.599 243.874C149.7 271.715 112.732 279.645 94.0446 261.583L84.7461 252.602C66.0493 234.548 72.7105 197.327 99.6092 169.486C113.113 155.511 129.145 146.556 144.126 143.394C140.075 137.856 137.048 132.074 135.19 126.31C132.924 128.639 130.496 130.905 127.922 133.089C98.3767 158.121 60.8109 162.326 44.0083 142.487L35.6523 132.627C18.8497 112.797 29.1723 76.4186 58.7174 51.405C88.2715 26.3823 125.837 22.1681 142.64 42.0158L150.996 51.8763C155.473 57.16 158.029 63.6218 158.79 70.7362C175.865 62.4255 201.286 63.4406 225.484 75.1226C260.349 91.9525 279.454 124.57 268.161 147.979L268.152 147.97Z" fill="#DBAF85" stroke="white" stroke-width="30" stroke-linecap="round" stroke-linejoin="round"/>
<path d="M176.594 243.898C203.498 216.057 210.156 178.846 191.465 160.783C172.774 142.721 135.812 150.647 108.908 178.488C82.0035 206.329 75.3456 243.54 94.0367 261.603C112.728 279.665 149.69 271.739 176.594 243.898Z" fill="#FFCB9A"/>
<path d="M88.066 249.18L84.7344 252.628L94.0278 261.608L97.3594 258.161L88.066 249.18Z" fill="#FFCB9A"/>
<path d="M182.166 151.795L178.834 155.242L188.127 164.223L191.459 160.776L182.166 151.795Z" fill="#FFCB9A"/>
<path d="M167.292 234.909C194.196 207.068 200.854 169.857 182.162 151.794C163.471 133.732 126.509 141.658 99.6049 169.499C72.7007 197.34 66.0428 234.551 84.734 252.614C103.425 270.676 140.387 262.75 167.292 234.909Z" fill="#FDE9D6"/>
<path d="M163.618 170.972C164.615 171.932 165.494 172.993 166.264 174.126C154.03 166.413 133.602 171.86 118.376 187.62C103.141 203.39 98.3923 223.99 106.522 235.953C105.362 235.219 104.274 234.376 103.277 233.415C91.7039 222.232 95.8185 199.185 112.485 181.938C129.143 164.691 152.036 159.788 163.609 170.972H163.618Z" fill="#DBAF85"/>
<path d="M166.266 174.126C174.386 186.098 169.637 206.689 154.412 222.449C139.186 238.21 118.767 243.665 106.523 235.962C98.3938 223.999 103.134 203.399 118.377 187.63C133.603 171.869 154.031 166.422 166.266 174.135V174.126Z" fill="#FFCB9A"/>
<path d="M262.523 159.593C273.819 136.183 254.71 103.566 219.842 86.7398C184.973 69.9137 147.549 75.2506 136.253 98.66C124.956 122.07 144.065 154.687 178.934 171.513C213.802 188.339 251.227 183.002 262.523 159.593Z" fill="#FFCB9A"/>
<path d="M146.216 89.1139L141.898 87.0303L136.282 98.6697L140.6 100.753L146.216 89.1139Z" fill="#FFCB9A"/>
<path d="M268.171 147.956L263.854 145.873L258.237 157.512L262.555 159.596L268.171 147.956Z" fill="#FFCB9A"/>
<path d="M268.152 147.961C279.448 124.552 260.339 91.9342 225.471 75.1082C190.602 58.2821 153.178 63.619 141.882 87.0284C130.585 110.438 149.694 143.055 184.563 159.881C219.431 176.707 256.855 171.371 268.152 147.961Z" fill="#FDE9D6"/>
<path d="M244.125 136.37C243.518 137.62 242.793 138.789 241.959 139.877C245.448 125.838 233.884 108.148 214.145 98.6225C194.397 89.0883 173.344 91.0369 164.525 102.511C164.861 101.178 165.323 99.8823 165.921 98.6316C172.918 84.1309 196.091 80.823 217.697 91.2544C239.294 101.677 251.121 121.878 244.125 136.379V136.37Z" fill="#DBAF85"/>
<path d="M241.96 139.868C233.133 151.332 212.089 153.272 192.359 143.747C172.62 134.221 161.046 116.54 164.527 102.492C173.345 91.0277 194.389 89.0792 214.146 98.6043C233.885 108.129 245.458 125.82 241.96 139.859V139.868Z" fill="#FFCB9A"/>
<path d="M127.921 133.087C157.461 108.061 167.789 71.6963 150.987 51.8638C134.186 32.0313 96.6184 36.2412 67.0778 61.2668C37.5372 86.2925 27.21 122.657 44.0114 142.49C60.8127 162.322 98.3802 158.112 127.921 133.087Z" fill="#FFCB9A"/>
<path d="M39.3202 129.533L35.6621 132.632L44.0159 142.493L47.6739 139.394L39.3202 129.533Z" fill="#FFCB9A"/>
<path d="M142.64 42.0075L138.982 45.1064L147.336 54.9673L150.994 51.8684L142.64 42.0075Z" fill="#FFCB9A"/>
<path d="M119.567 123.225C149.108 98.1989 159.435 61.8342 142.634 42.0017C125.832 22.1692 88.2649 26.3791 58.7243 51.4048C29.1837 76.4305 18.8565 112.795 35.6578 132.628C52.4592 152.46 90.0267 148.25 119.567 123.225Z" fill="#FDE9D6"/>
<path d="M122.273 59.2534C123.17 60.3138 123.941 61.4467 124.593 62.652C113.183 53.7613 92.3202 57.1418 75.5991 71.3162C58.869 85.4906 52.099 105.52 58.9959 118.235C57.9174 117.392 56.9205 116.44 56.0232 115.38C45.619 103.1 52.0084 80.5785 70.3154 65.0718C88.6134 49.5743 111.878 46.9732 122.282 59.2534H122.273Z" fill="#DBAF85"/>
<path d="M124.594 62.661C131.482 75.3853 124.703 95.3962 107.991 109.561C91.2697 123.727 70.4069 127.125 58.9876 118.235C52.0907 105.519 58.8607 85.4904 75.5909 71.316C92.3119 57.1507 113.184 53.7612 124.585 62.6519L124.594 62.661Z" fill="#FFCB9A"/>
</svg>
