<svg width="300" height="300" viewBox="0 0 300 300" fill="none" xmlns="http://www.w3.org/2000/svg">
<g clip-path="url(#clip0_788_402)">
<path d="M280.42 147.72L274.22 160.56C264.4 180.91 236.69 188.88 206.56 182.26C210.74 203.43 200.97 231.21 179.4 253.54C149.72 284.26 108.93 293.01 88.3101 273.08L78.0501 263.17C57.4201 243.25 64.7701 202.18 94.4501 171.46C109.35 156.04 127.04 146.16 143.57 142.67C139.1 136.56 135.76 130.18 133.71 123.82C131.21 126.39 128.53 128.89 125.69 131.3C93.0901 158.92 51.6401 163.56 33.1001 141.67L23.8801 130.79C5.34005 108.91 16.7301 68.7701 49.3301 41.1701C81.9401 13.5601 123.39 8.9101 141.93 30.8101L151.15 41.6901C156.09 47.5201 158.91 54.6501 159.75 62.5001C178.59 53.3301 206.64 54.4501 233.34 67.3401C271.81 85.9101 292.89 121.9 280.43 147.73L280.42 147.72Z" fill="#DBAF85" stroke="white" stroke-width="30" stroke-linecap="round" stroke-linejoin="round"/>
<path d="M179.398 253.567C209.084 222.847 216.43 181.788 195.806 161.858C175.182 141.928 134.398 150.674 104.712 181.393C75.0262 212.113 67.6798 253.172 88.3037 273.102C108.927 293.032 149.712 284.286 179.398 253.567Z" fill="#FFCB9A"/>
<path d="M81.7151 259.395L78.0391 263.199L88.2934 273.109L91.9694 269.305L81.7151 259.395Z" fill="#FFCB9A"/>
<path d="M185.543 151.94L181.867 155.744L192.122 165.654L195.798 161.85L185.543 151.94Z" fill="#FFCB9A"/>
<path d="M169.132 243.648C198.818 212.929 206.164 171.87 185.541 151.939C164.917 132.009 124.133 140.756 94.4466 171.475C64.7606 202.194 57.4142 243.254 78.038 263.184C98.6619 283.114 139.446 274.368 169.132 243.648Z" fill="#FDE9D6"/>
<path d="M165.08 173.1C166.18 174.16 167.15 175.33 168 176.58C154.5 168.07 131.96 174.08 115.16 191.47C98.3496 208.87 93.1096 231.6 102.08 244.8C100.8 243.99 99.5996 243.06 98.4996 242C85.7296 229.66 90.2696 204.23 108.66 185.2C127.04 166.17 152.3 160.76 165.07 173.1H165.08Z" fill="#DBAF85"/>
<path d="M168 176.58C176.96 189.79 171.72 212.51 154.92 229.9C138.12 247.29 115.59 253.31 102.08 244.81C93.1099 231.61 98.3399 208.88 115.16 191.48C131.96 174.09 154.5 168.08 168 176.59V176.58Z" fill="#FFCB9A"/>
<path d="M274.208 160.544C286.672 134.714 265.587 98.7243 227.113 80.1584C188.64 61.5926 147.346 67.4813 134.881 93.3113C122.417 119.141 143.502 155.131 181.976 173.697C220.45 192.263 261.743 186.374 274.208 160.544Z" fill="#FFCB9A"/>
<path d="M145.876 82.778L141.111 80.479L134.914 93.3219L139.678 95.6209L145.876 82.778Z" fill="#FFCB9A"/>
<path d="M280.44 147.705L275.676 145.406L269.478 158.248L274.243 160.547L280.44 147.705Z" fill="#FFCB9A"/>
<path d="M280.419 147.71C292.883 121.88 271.798 85.8901 233.324 67.3242C194.85 48.7583 153.557 54.647 141.092 80.477C128.628 106.307 149.713 142.297 188.187 160.863C226.66 179.429 267.954 173.54 280.419 147.71Z" fill="#FDE9D6"/>
<path d="M253.908 134.92C253.238 136.3 252.438 137.59 251.518 138.79C255.368 123.3 242.608 103.78 220.828 93.2699C199.038 82.7499 175.808 84.8999 166.078 97.5599C166.448 96.0899 166.958 94.6599 167.618 93.2799C175.338 77.2799 200.908 73.6299 224.748 85.1399C248.578 96.6399 261.628 118.93 253.908 134.93V134.92Z" fill="#DBAF85"/>
<path d="M251.518 138.78C241.778 151.43 218.558 153.57 196.788 143.06C175.008 132.55 162.238 113.04 166.078 97.5399C175.808 84.8899 199.028 82.7399 220.828 93.2499C242.608 103.76 255.378 123.28 251.518 138.77V138.78Z" fill="#FFCB9A"/>
<path d="M125.69 131.297C158.285 103.684 169.68 63.5593 151.141 41.6762C132.603 19.793 91.1508 24.4382 58.5557 52.0515C25.9606 79.6648 14.5656 119.79 33.1042 141.673C51.6427 163.556 93.0947 158.911 125.69 131.297Z" fill="#FFCB9A"/>
<path d="M27.9289 127.377L23.8926 130.796L33.1101 141.677L37.1464 138.257L27.9289 127.377Z" fill="#FFCB9A"/>
<path d="M141.931 30.8006L137.895 34.22L147.112 45.1005L151.148 41.681L141.931 30.8006Z" fill="#FFCB9A"/>
<path d="M116.473 120.416C149.068 92.8023 160.463 52.6775 141.925 30.7943C123.386 8.91118 81.934 13.5564 49.3389 41.1697C16.7438 68.783 5.34879 108.908 23.8874 130.791C42.4259 152.674 83.8779 148.029 116.473 120.416Z" fill="#FDE9D6"/>
<path d="M119.46 49.83C120.45 51 121.3 52.25 122.02 53.58C109.43 43.77 86.4095 47.5 67.9595 63.14C49.4995 78.78 42.0295 100.88 49.6395 114.91C48.4495 113.98 47.3495 112.93 46.3595 111.76C34.8795 98.21 41.9295 73.36 62.1295 56.25C82.3195 39.15 107.99 36.28 119.47 49.83H119.46Z" fill="#DBAF85"/>
<path d="M122.019 53.5898C129.619 67.6298 122.139 89.7098 103.699 105.34C85.2493 120.97 62.2293 124.72 49.6293 114.91C42.0193 100.88 49.4893 78.7798 67.9493 63.1398C86.3993 47.5098 109.429 43.7698 122.009 53.5798L122.019 53.5898Z" fill="#FFCB9A"/>
</g>
<defs>
<clipPath id="clip0_788_402">
<rect width="299.01" height="296.78" fill="white" transform="translate(0 2)"/>
</clipPath>
</defs>
</svg>
