<?xml version="1.0" encoding="utf-8"?>
<!-- Generator: Adobe Illustrator 27.0.0, SVG Export Plug-In . SVG Version: 6.00 Build 0)  -->
<svg version="1.1" xmlns="http://www.w3.org/2000/svg" xmlns:xlink="http://www.w3.org/1999/xlink" x="0px" y="0px"
	 viewBox="0 0 260 108" style="enable-background:new 0 0 260 108;" xml:space="preserve">
<style type="text/css">
	.st0{fill:#E0446E;}
	.st1{fill:#FF5E89;}
	.st2{fill:none;stroke:#000000;stroke-width:2;stroke-miterlimit:10;}
	.st3{opacity:0.5;fill:#FFFFFF;}
	.st4{fill:none;stroke:#000000;stroke-width:2;stroke-linecap:round;stroke-linejoin:round;stroke-miterlimit:10;}
	.st5{fill:#FFFFFF;}
</style>
<g id="Layer_1">
	<g id="Layer_2">
	</g>
	<g>
		<path class="st0" d="M54,40c0,7.7,6.3,14,14,14c5.9,0,10.9-3.6,12.9-8.7c0.7-1.6,1-3.4,1-5.3c0-7.7-6.3-14-14-14
			c-4.7,0-8.8,2.3-11.3,5.8C55,34.1,54,36.9,54,40z"/>
		<path class="st1" d="M55.6,37.1c0,7.7,6.3,14,14,14c4.7,0,8.8-2.3,11.3-5.8c0.7-1.6,1-3.4,1-5.3c0-7.7-6.3-14-14-14
			c-4.7,0-8.8,2.3-11.3,5.8C56,33.4,55.6,35.2,55.6,37.1z"/>
		<circle class="st2" cx="68" cy="40" r="14"/>
		<ellipse transform="matrix(0.8002 -0.5998 0.5998 0.8002 -5.6705 51.9281)" class="st3" cx="75.1" cy="34.5" rx="3.2" ry="4.8"/>
		<ellipse transform="matrix(0.1154 -0.9933 0.9933 0.1154 30.5693 93.8266)" class="st3" cx="68" cy="29.8" rx="1.9" ry="2.3"/>
	</g>
	<g>
		<path class="st0" d="M70.4,89.7c1.3,5,6.4,8,11.4,6.7c3.8-1,6.4-4.2,6.9-7.9c0.2-1.2,0.1-2.4-0.2-3.6c-1.3-5-6.4-8-11.4-6.7
			c-3,0.8-5.3,3-6.3,5.7C70,85.8,69.8,87.8,70.4,89.7z"/>
		<path class="st1" d="M70.9,87.6c1.3,5,6.4,8,11.4,6.7c3-0.8,5.3-3,6.4-5.7c0.2-1.2,0.1-2.4-0.2-3.6c-1.3-5-6.4-8-11.4-6.7
			c-3,0.8-5.3,3-6.3,5.7C70.5,85.2,70.6,86.4,70.9,87.6z"/>
		<circle class="st2" cx="79.4" cy="87.3" r="9.4"/>
		<ellipse transform="matrix(0.6203 -0.7843 0.7843 0.6203 -33.1952 96.5124)" class="st3" cx="83.1" cy="82.5" rx="2.1" ry="3.2"/>
		<ellipse transform="matrix(0.9898 -0.1423 0.1423 0.9898 -10.6961 11.8751)" class="st3" cx="77.7" cy="80.7" rx="1.6" ry="1.3"/>
	</g>
	<g>
		<path class="st0" d="M196.4,79.3c0,12.2-9.9,22.1-22.1,22.1c-9.2,0-17.2-5.7-20.4-13.8c-1-2.6-1.6-5.4-1.6-8.3
			c0-12.2,9.9-22.1,22.1-22.1c7.4,0,13.9,3.6,17.9,9.2C194.9,70,196.4,74.5,196.4,79.3z"/>
		<path class="st1" d="M193.9,74.7c0,12.2-9.9,22.1-22.1,22.1c-7.4,0-13.9-3.6-17.9-9.2c-1-2.6-1.6-5.4-1.6-8.3
			c0-12.2,9.9-22.1,22.1-22.1c7.4,0,13.9,3.6,17.9,9.2C193.3,69,193.9,71.8,193.9,74.7z"/>
		<circle class="st2" cx="174.4" cy="79.3" r="22.1"/>
		<ellipse transform="matrix(0.5998 -0.8002 0.8002 0.5998 8.808 158.7717)" class="st3" cx="163.1" cy="70.6" rx="7.5" ry="5"/>
		<ellipse transform="matrix(0.9933 -0.1154 0.1154 0.9933 -6.1179 20.54)" class="st3" cx="174.4" cy="63.1" rx="3.7" ry="3"/>
	</g>
	<g>
		<path class="st0" d="M135.2,96.2c-3.6,5.8-11.2,7.5-17,3.9c-4.4-2.7-6.4-7.8-5.6-12.6c0.3-1.5,0.8-3,1.7-4.4
			c3.6-5.8,11.2-7.5,17-3.9c3.5,2.2,5.5,5.8,5.7,9.7C137.2,91.3,136.6,93.9,135.2,96.2z"/>
		<path class="st1" d="M135.3,93.3c-3.6,5.8-11.2,7.5-17,3.9c-3.5-2.2-5.5-5.8-5.7-9.7c0.3-1.5,0.8-3,1.7-4.4
			c3.6-5.8,11.2-7.5,17-3.9c3.5,2.2,5.5,5.8,5.7,9.7C136.8,90.4,136.2,91.9,135.3,93.3z"/>
		<circle class="st2" cx="124.7" cy="89.6" r="12.3"/>
		<ellipse transform="matrix(0.9334 -0.3588 0.3588 0.9334 -21.3629 49.2454)" class="st3" cx="122" cy="82.2" rx="4.2" ry="2.8"/>
		<ellipse transform="matrix(0.4305 -0.9026 0.9026 0.4305 -0.2365 163.622)" class="st3" cx="129.5" cy="82" rx="1.7" ry="2"/>
	</g>
	<g>
		<path class="st0" d="M174.3,29.7c-3.9,6.2-12,8-18.1,4.1c-4.7-2.9-6.9-8.3-6-13.4c0.3-1.6,0.9-3.2,1.8-4.7c3.9-6.2,12-8,18.1-4.1
			c3.7,2.3,5.9,6.2,6.1,10.3C176.4,24.5,175.8,27.3,174.3,29.7z"/>
		<path class="st1" d="M174.4,26.6c-3.9,6.2-12,8-18.1,4.1c-3.7-2.3-5.9-6.3-6.1-10.3c0.3-1.6,0.9-3.2,1.8-4.7
			c3.9-6.2,12-8,18.1-4.1c3.7,2.3,5.9,6.2,6.1,10.3C176,23.5,175.4,25.1,174.4,26.6z"/>
		<circle class="st2" cx="163.1" cy="22.7" r="13.2"/>
		<ellipse transform="matrix(0.9334 -0.3588 0.3588 0.9334 5.385 58.4513)" class="st3" cx="160.2" cy="14.7" rx="4.5" ry="3"/>
		<ellipse transform="matrix(0.4305 -0.9026 0.9026 0.4305 82.7122 160.125)" class="st3" cx="168.2" cy="14.5" rx="1.8" ry="2.2"/>
	</g>
	<g>
		<path class="st0" d="M100.9,25.1c3.2,5,9.8,6.6,14.8,3.4c3.8-2.4,5.6-6.8,4.9-11c-0.2-1.3-0.7-2.6-1.5-3.8
			c-3.2-5-9.8-6.5-14.8-3.4c-3,1.9-4.8,5.1-5,8.4C99.2,20.8,99.7,23.1,100.9,25.1z"/>
		<path class="st1" d="M100.8,22.5c3.2,5,9.8,6.5,14.8,3.4c3.1-1.9,4.8-5.1,5-8.4c-0.2-1.3-0.7-2.6-1.5-3.8c-3.2-5-9.8-6.5-14.8-3.4
			c-3,1.9-4.8,5.1-5,8.4C99.5,20,100,21.3,100.8,22.5z"/>
		<circle class="st2" cx="110" cy="19.3" r="10.8"/>
		
			<ellipse transform="matrix(0.3588 -0.9334 0.9334 0.3588 60.1282 113.1743)" class="st3" cx="112.4" cy="12.8" rx="2.4" ry="3.7"/>
		<ellipse transform="matrix(0.9026 -0.4305 0.4305 0.9026 4.858 46.7977)" class="st3" cx="105.9" cy="12.7" rx="1.8" ry="1.5"/>
	</g>
	<g>
		<path class="st0" d="M244.6,46.2c-10.3,21.4-36.2,20.6-42.7,17.4c-5.1-2.5-16.5-15.6-16.1-31.3c0.1-4.2,1-8.6,3.2-13
			c4.3-8.9,15.1-12.7,24-8.4c4.6,2.2,7.8,6.1,9.3,10.6c4.4-1.6,9.5-1.5,14,0.7c6.9,3.3,10.7,10.4,10.1,17.6
			C246.2,41.9,245.6,44.1,244.6,46.2z"/>
		<path class="st1" d="M246.2,40.1c-10.3,21.4-37.2,20.1-44,16.8c-4.5-2.2-13.8-12.1-16.5-24.6c0.1-4.2,1-8.6,3.2-13
			c4.3-8.9,15.1-12.7,24-8.4c4.6,2.2,7.8,6.1,9.3,10.6c4.4-1.6,9.5-1.5,14,0.7c6.9,3.3,10.7,10.4,10.1,17.6
			C246.3,39.9,246.2,40,246.2,40.1z"/>
		<ellipse transform="matrix(0.9917 -0.1289 0.1289 0.9917 -2.7376 30.9857)" class="st3" cx="238.1" cy="36.6" rx="4.9" ry="6.6"/>
		
			<ellipse transform="matrix(0.3704 -0.9289 0.9289 0.3704 121.277 231.0599)" class="st3" cx="231.1" cy="26.1" rx="2.9" ry="3.3"/>
		
			<ellipse transform="matrix(0.6733 -0.7394 0.7394 0.6733 56.7487 163.6779)" class="st3" cx="213.6" cy="17.6" rx="2.1" ry="2.4"/>
		
			<ellipse transform="matrix(0.4342 -0.9008 0.9008 0.4342 105.0849 195.9049)" class="st3" cx="208.5" cy="14.3" rx="1.5" ry="1.7"/>
		<path class="st4" d="M188.9,19.3c4.3-8.9,15.1-12.7,24-8.4c4.6,2.2,7.8,6.1,9.3,10.6"/>
		<path class="st4" d="M215,26.4c2-2.2,4.5-3.9,7.2-4.9c4.4-1.6,9.5-1.5,14,0.7c9,4.3,12.7,15.1,8.4,24"/>
		<path class="st4" d="M244.6,46.2c-10.3,21.4-36.2,20.6-42.7,17.4c-6.5-3.1-23.1-23.3-13-44.3"/>
	</g>
	<g>
		<path class="st0" d="M214.8,89c5.4,11.2,18.9,10.7,22.3,9.1c2.7-1.3,8.6-8.1,8.4-16.4c0-2.2-0.5-4.5-1.7-6.8
			c-2.3-4.7-7.9-6.6-12.5-4.4c-2.4,1.2-4.1,3.2-4.8,5.5c-2.3-0.9-4.9-0.8-7.3,0.3c-3.6,1.7-5.6,5.5-5.3,9.2
			C214,86.8,214.2,87.9,214.8,89z"/>
		<path class="st1" d="M213.9,85.8c5.4,11.2,19.4,10.5,23,8.8c2.4-1.1,7.2-6.3,8.6-12.9c0-2.2-0.5-4.5-1.7-6.8
			c-2.3-4.7-7.9-6.6-12.5-4.4c-2.4,1.2-4.1,3.2-4.8,5.5c-2.3-0.9-4.9-0.8-7.3,0.3c-3.6,1.7-5.6,5.5-5.3,9.2
			C213.9,85.7,213.9,85.7,213.9,85.8z"/>
		<ellipse transform="matrix(0.1289 -0.9917 0.9917 0.1289 106.7593 289.5277)" class="st3" cx="218.2" cy="84" rx="3.4" ry="2.6"/>
		
			<ellipse transform="matrix(0.9289 -0.3704 0.3704 0.9289 -13.2863 87.7569)" class="st3" cx="221.8" cy="78.5" rx="1.7" ry="1.5"/>
		<ellipse transform="matrix(0.7394 -0.6733 0.6733 0.7394 10.3324 174.8129)" class="st3" cx="231" cy="74.1" rx="1.3" ry="1.1"/>
		<ellipse transform="matrix(0.9008 -0.4342 0.4342 0.9008 -8.2288 108.621)" class="st3" cx="233.6" cy="72.3" rx="0.9" ry="0.8"/>
		<path class="st4" d="M226.5,76.1c0.8-2.3,2.4-4.4,4.8-5.5c4.7-2.3,10.3-0.3,12.5,4.4"/>
		<path class="st4" d="M214.8,89c-2.3-4.7-0.3-10.3,4.4-12.5c2.4-1.1,5-1.2,7.3-0.3c1.4,0.5,2.7,1.4,3.8,2.6"/>
		<path class="st4" d="M214.8,89c5.4,11.2,18.9,10.7,22.3,9.1s12-12.2,6.8-23.1"/>
	</g>
	<g>
		<path class="st0" d="M63.2,84.7c-8.5,17.7-29.9,17-35.3,14.4c-4.2-2-13.6-12.9-13.3-25.8c0.1-3.5,0.9-7.1,2.6-10.7
			C20.7,55.1,29.6,52,37,55.6c3.8,1.8,6.4,5,7.6,8.7c3.6-1.3,7.8-1.3,11.6,0.5c5.7,2.7,8.8,8.6,8.4,14.5C64.4,81.2,64,83,63.2,84.7z
			"/>
		<path class="st1" d="M64.5,79.6c-8.5,17.7-30.7,16.6-36.3,13.9c-3.7-1.8-11.4-10-13.6-20.3c0.1-3.5,0.9-7.1,2.6-10.7
			C20.7,55.1,29.6,52,37,55.6c3.8,1.8,6.4,5,7.6,8.7c3.6-1.3,7.8-1.3,11.6,0.5c5.7,2.7,8.8,8.6,8.4,14.5
			C64.6,79.5,64.5,79.6,64.5,79.6z"/>
		<ellipse transform="matrix(0.9917 -0.1289 0.1289 0.9917 -9.4152 8.086)" class="st3" cx="57.8" cy="76.8" rx="4" ry="5.4"/>
		<ellipse transform="matrix(0.3704 -0.9289 0.9289 0.3704 -30.4797 91.1562)" class="st3" cx="52" cy="68.1" rx="2.4" ry="2.7"/>
		<ellipse transform="matrix(0.6733 -0.7394 0.7394 0.6733 -32.9055 47.7255)" class="st3" cx="37.6" cy="61.1" rx="1.7" ry="2"/>
		<ellipse transform="matrix(0.4342 -0.9008 0.9008 0.4342 -33.6914 63.0563)" class="st3" cx="33.4" cy="58.3" rx="1.2" ry="1.4"/>
		<path class="st4" d="M17.2,62.5C20.7,55.1,29.6,52,37,55.6c3.8,1.8,6.4,5,7.6,8.7"/>
		<path class="st4" d="M38.7,68.3c1.6-1.8,3.7-3.2,5.9-4c3.6-1.3,7.8-1.3,11.6,0.5c7.4,3.6,10.5,12.4,6.9,19.8"/>
		<path class="st4" d="M63.2,84.7c-8.5,17.7-29.9,17-35.3,14.4c-5.4-2.6-19-19.3-10.7-36.6"/>
	</g>
	<g>
		<path class="st0" d="M15.7,33.1C22.2,46.6,38.4,46,42.5,44.1c3.2-1.5,10.3-9.8,10.1-19.6c-0.1-2.6-0.7-5.4-2-8.1
			c-2.7-5.6-9.4-8-15-5.3c-2.9,1.4-4.9,3.8-5.8,6.6c-2.8-1-5.9-1-8.8,0.4c-4.3,2.1-6.7,6.5-6.3,11C14.8,30.5,15.1,31.8,15.7,33.1z"
			/>
		<path class="st1" d="M14.7,29.3C21.2,42.7,38,41.9,42.3,39.9c2.8-1.4,8.6-7.6,10.3-15.4c-0.1-2.6-0.7-5.4-2-8.1
			c-2.7-5.6-9.4-8-15-5.3c-2.9,1.4-4.9,3.8-5.8,6.6c-2.8-1-5.9-1-8.8,0.4c-4.3,2.1-6.7,6.5-6.3,11C14.7,29.2,14.7,29.3,14.7,29.3z"
			/>
		<ellipse transform="matrix(0.1289 -0.9917 0.9917 0.1289 -9.6715 43.318)" class="st3" cx="19.8" cy="27.2" rx="4.1" ry="3.1"/>
		<ellipse transform="matrix(0.9289 -0.3704 0.3704 0.9289 -5.8847 10.4256)" class="st3" cx="24.2" cy="20.5" rx="2.1" ry="1.8"/>
		<ellipse transform="matrix(0.7394 -0.6733 0.6733 0.7394 -1.1011 27.6515)" class="st3" cx="35.2" cy="15.2" rx="1.5" ry="1.3"/>
		<ellipse transform="matrix(0.9008 -0.4342 0.4342 0.9008 -1.9115 17.9592)" class="st3" cx="38.4" cy="13.2" rx="1.1" ry="0.9"/>
		<path class="st4" d="M29.8,17.7c0.9-2.8,2.9-5.2,5.8-6.6c5.6-2.7,12.3-0.3,15,5.3"/>
		<path class="st4" d="M15.7,33.1c-2.7-5.6-0.3-12.3,5.3-15c2.9-1.4,6-1.4,8.8-0.4c1.7,0.6,3.3,1.7,4.5,3.1"/>
		<path class="st4" d="M15.7,33.1C22.2,46.6,38.4,46,42.5,44.1c4.1-2,14.4-14.6,8.1-27.7"/>
	</g>
	<g>
		<g>
			<path class="st1" d="M204.7,57.4v11.1c0,0.5-0.4,1-1,1c-0.5,0-1,0.5-1,1c0.1,3.3,0.1,7.4,0.1,12.2v1.8c0,0,0,0.1,0,0.1V92
				c0,0.9-0.7,1.7-1.7,1.7c-0.9,0-1.7-0.7-1.7-1.7v-5.3l-0.7,0h-8.1c-1,0-1.8-0.3-2.5-0.9c-0.3-0.2-0.7-0.3-1-0.1
				c-1.1,0.6-2.5,0.7-3.7,0.8c-1.4,0.1-3.4,0.3-6.2,0.6l-3.3,0.3c0,0-0.1,0-0.2,0V93c0,1.2-1,2.2-2.2,2.2c-1.2,0-2.1-1-2.1-2.2V79.6
				c-1.8,1.7-3.4,3-4.9,3.9c-1.9,1.2-3.8,2-5.7,2.6v3.2c0,1.2-1,2.2-2.1,2.2c-1.2,0-2.2-1-2.2-2.2v-2.5c-0.1,0-0.2,0-0.4,0
				c-2.1,0-4.1-0.4-5.9-1.2v2.3c0,1.2-1,2.1-2.1,2.1c-1.2,0-2.1-1-2.1-2.1v-2.5c-0.8,0.1-1.7,0.2-2.6,0.2c-1.1,0-2.2-0.1-3.2-0.3V86
				c0,0.5-0.4,1-1,1l-3.1,0.1h-11.1c-0.1,0-0.1,0-0.2,0v1.8c0,1.5-1.2,2.7-2.7,2.7s-2.7-1.2-2.7-2.7v-4.5l-1.6,0.7
				c-0.4,0.2-1.1,0.4-8,2.7l-2.8,0.9c-0.5,0.2-1.1-0.1-1.2-0.6l-1-2.8c-0.4-1.1-0.8-2.2-1.1-3.3c-0.2-0.6-0.9-0.9-1.4-0.5
				c-0.3,0.2-0.6,0.3-0.9,0.5c-0.2,0.1-0.4,0.4-0.5,0.6c-0.4,1.7-0.6,2.2-0.7,2.5l-0.8,2.5c-0.1,0.5-0.6,0.8-1.1,0.6l-2.6-0.5
				c-0.3-0.1-0.9-0.2-3.6-0.9v10c0,1.3-1.1,2.4-2.4,2.4c-1.3,0-2.4-1.1-2.4-2.4v-8.3l-1.6,1c-0.2,0.1-0.3,0.1-0.5,0.1l-1,0
				c-6.6-0.3-7.6-0.4-7.7-0.4c-1,0-1.8-0.4-2.1-0.6l-1.7-0.9c-0.3-0.2-0.5-0.5-0.5-0.9l0.1-1.9c0-0.7,0.1-1.3,0.1-1.8
				c0-0.7-0.6-1.2-1.3-1c-0.7,0.2-1.5,0.3-2.3,0.3c-0.4,0-0.8,0-1.2-0.1c-0.6-0.1-1.1,0.4-1.1,0.9v0.5c0,0.5-0.3,0.9-0.8,1l-2.4,0.5
				c-0.3,0.1-0.6,0.1-7.3,0.9v9.3c0,1.5-1.2,2.7-2.7,2.7c-1.5,0-2.6-1.2-2.6-2.7V84l-0.2-1.2c-0.8-5.3-1.2-10.2-1.2-14.5v-0.8
				c0-7.5,1-15.1,3-22.5l0-0.1c0.3-1.1,1-2.2,2-3.2l0.2-0.2c1.4-1.2,3-2,4.8-2.1c1.9-3.2,5.1-5.5,8.8-6.4C66.2,31,66,29,66,27.2
				v-0.4c0-2.1,1-3.9,2.9-5.2l0.5-0.3c2.5-1.2,5-1.8,7.5-1.8h0.4c2.2,0,4.3,0.5,6.1,1.5c0.2,0.1,0.5,0.2,0.8,0.1l1.4-0.5
				c0.3-0.1,0.7-0.2,4.9-1.2c2.3-0.5,4.7-0.8,7.1-0.8h1.8c0.1,0,0.2,0,0.3,0l3.2-0.1c0.6,0,1,0.4,1,1v0.9c0.3-0.1,0.6-0.2,1-0.3
				c1.4-0.4,2.6-0.5,3.9-0.5h0.1c3.2,0,5.4,1.1,6.8,2.4l0-0.1l2.3-0.9c2-0.8,3.8-1.4,5.3-1.8c1.5-0.4,2.9-0.5,4.2-0.5h0.5
				c1.3,0,3.1,0.2,5.8,0.7l3.3,0.6v0.1c0.6-0.1,1.3-0.3,2.2-0.5c2.4-0.5,4.7-0.8,7.1-0.8h1.8c0.1,0,0.2,0,0.3,0l3.2-0.1
				c0.6,0,1,0.4,1,1v0.4c0,0.8,0.8,1.2,1.5,0.8c1.7-1,3.3-1.3,4.5-1.3h0.1c1.9,0,4.5,0.6,6.7,3.3c0.3,0.3,0.8,0.5,1.2,0.3
				c1.5-0.6,2.8-1.1,3.9-1.6c1.5-0.5,3.1-1,4.8-1.3c1.4-0.3,3.2-0.6,5.5-0.9l2-0.2c0.4-0.1,0.8,0.1,1,0.5l1,1.7
				c0.5,0.8,0.5,0.8,1.1,6l0.4,3c0.1,0.5-0.3,1-0.8,1.1l-1.5,0.2c3.9,2.2,6.9,5.9,8.1,10.3c1.2-0.1,2.7-0.3,4.7-0.5l3-0.3
				c0.5-0.1,1,0.3,1.1,0.9l0.4,3c0.3,2.7,0.6,5.5,0.9,8.1c0,0.3,0.2,0.7,0.5,0.8C203.7,54.4,204.7,55.8,204.7,57.4z"/>
		</g>
	</g>
	<g>
		<g>
			<path class="st4" d="M58.5,85.6c2.5-0.3,2.7-0.4,2.9-0.4l2.4-0.5c0.4-0.1,0.8-0.5,0.8-1v-0.5c0-0.6,0.5-1,1.1-0.9
				c0.4,0.1,0.8,0.1,1.2,0.1c0.8,0,1.6-0.1,2.3-0.3c0.7-0.2,1.3,0.3,1.3,1c0,0.6-0.1,1.2-0.1,1.8l-0.1,1.9c0,0.4,0.2,0.7,0.5,0.9
				l1.7,0.9c0.1,0.1,0.3,0.2,0.5,0.3"/>
			<path class="st4" d="M159,86.2v3.1c0,1.2-1,2.2-2.1,2.2c-1.2,0-2.2-1-2.2-2.2v-2.5c-0.1,0-0.2,0-0.4,0c-2.1,0-4.1-0.4-5.9-1.2
				v2.3c0,1.2-1,2.2-2.1,2.2c-1.2,0-2.1-1-2.1-2.2v-2.5c-0.9,0.1-1.7,0.2-2.6,0.2c-1.1,0-2.2-0.1-3.2-0.3v0.7c0,0.5-0.4,1-1,1
				l-3.1,0.1h-0.3"/>
			<path class="st4" d="M172.9,20.6c0.7-0.2,1.5-0.4,2.2-0.6c1.4-0.3,3.2-0.6,5.5-0.9l2-0.2c0.4-0.1,0.8,0.1,1,0.5l1,1.7
				c0.4,0.8,0.4,0.8,1.1,6l0.4,3c0.1,0.5-0.3,1-0.9,1.1l-1.5,0.2c1.4,0.8,2.6,1.8,3.8,2.9"/>
			<path class="st4" d="M66.1,29.1c0-0.7,0-1.3,0-1.9v-0.4c0-2.1,1-3.9,2.8-5.2l0.5-0.3c2.5-1.2,5-1.9,7.5-1.9h0.4
				c2.2,0,4.3,0.5,6.1,1.5c0.2,0.1,0.5,0.2,0.8,0.1l1.4-0.5c0.3-0.1,0.7-0.2,4.9-1.2c2.3-0.5,4.7-0.8,7.1-0.8h1.8c0.1,0,0.2,0,0.3,0
				l3.2-0.1c0.2,0,0.4,0,0.5,0.1"/>
			<path class="st4" d="M47.5,66.4c0.1-7.1,1.1-14.3,3-21.4l0-0.1c0.3-1.1,1-2.2,2-3.2l0.2-0.2c1.4-1.2,3.1-2,4.8-2.1c0,0,0,0,0,0"
				/>
			<path class="st4" d="M118.9,20.4c1.6-0.6,3-1.1,4.2-1.4c1.5-0.4,2.8-0.5,4.2-0.5h0.5c1.3,0,3.1,0.2,5.8,0.7l3.3,0.6v0.1
				c0.6-0.1,1.3-0.3,2.2-0.5c2.3-0.5,4.7-0.8,7.1-0.8h1.8c0.1,0,0.2,0,0.3,0l3.2-0.1c0.6,0,1,0.4,1,1v0"/>
			<path class="st4" d="M204,55.2c0.4,0.6,0.6,1.4,0.6,2.2v11.1c0,0.5-0.4,1-1,1c-0.5,0-1,0.5-1,1c0.1,3.3,0.1,7.4,0.1,12.2v1.8
				c0,0,0,0.1,0,0.1V92c0,0.9-0.7,1.7-1.6,1.7c-0.9,0-1.7-0.7-1.7-1.7v-5.3l-0.7,0h-8.1c-0.9,0-1.8-0.3-2.5-0.9
				c-0.1-0.1-0.1-0.1-0.2-0.1"/>
			<path class="st4" d="M85.5,91.7v5c0,1.3,1.1,2.4,2.4,2.4c1.3,0,2.4-1.1,2.4-2.4v-9.9c2.7,0.7,3.3,0.8,3.6,0.9l2.6,0.5
				c0.5,0.1,1-0.2,1.1-0.7l0.8-2.5c0.1-0.3,0.3-0.8,0.7-2.5c0.1-0.2,0.2-0.5,0.4-0.6c0.3-0.2,0.6-0.3,0.8-0.5
				c0.5-0.3,1.2-0.1,1.4,0.5c0.4,1.1,0.7,2.2,1.1,3.3l1,2.8c0.2,0.5,0.7,0.8,1.2,0.6l2.8-0.9c4.2-1.4,6.1-2,7.1-2.3"/>
			<path class="st4" d="M54.1,88.5v6.9c0,1.5-1.2,2.7-2.7,2.7s-2.6-1.2-2.6-2.7V90"/>
		</g>
	</g>
	<g>
		<path class="st5" d="M58.3,43.3c1.3,0,2.4,0.6,3.3,1.8c0.9,1.7,1.8,3.9,2.9,6.8c1.1,2.9,2.2,6,3.1,9.4h0.1
			c1.4-3.2,3.1-6.6,5.1-10.2c0.9-1.2,2-1.8,3.5-1.8c1.3,0,2.4,0.6,3.3,1.8c0.4,0.8,0.7,1.4,0.7,1.9c1.8,9.2,2.7,17.6,2.7,25
			c0,1.3-0.1,3.8-0.3,7.3l-0.1,0.1c-5-0.2-7.6-0.4-7.9-0.4c0,0-0.1,0-0.2-0.1c0.2-3.2,0.3-5.6,0.3-7c0-3.3-0.2-7-0.7-11h0
			c-1.2,2.7-2.3,5.7-3.4,8.8c-0.9,1.6-2.1,2.4-3.7,2.4h-0.1c-1.5,0-2.7-0.7-3.6-2.2c-0.2-0.4-0.6-1.8-1.2-4.3
			c-0.8-3-1.6-5.8-2.3-8.4h-0.1c-0.1,1.2-0.1,2.6-0.1,4v0.8c0,3.5,0.3,7.8,1,12.9v0c-0.3,0.1-3,0.4-8,1c-0.7-5.1-1.1-9.8-1.1-14
			v-0.8c0-7.2,1-14.3,2.9-21.5c0.2-0.5,0.5-1,1.1-1.6C56.3,43.7,57.2,43.3,58.3,43.3z"/>
		<path class="st5" d="M102.4,45.8h0.2c1.4,0,2.6,0.6,3.4,1.9c0.3,0.4,0.6,1.5,0.8,3.3c0.7,4.7,1.6,9.1,2.7,13.1
			c0.2,0,1-0.2,2.4-0.6c0.1,0.3,0.8,2.9,2.1,7.9l-2.3,0.6c0.7,2.3,1.7,5.4,2.9,9.3c-0.3,0.1-2.9,1-7.7,2.6c-1.1-3.4-2.1-6.4-2.9-9.1
			c-2.2,1.1-4.8,2.6-7.7,4.4c-0.3,0.1-0.4,0.3-0.4,0.5c-0.6,2.2-0.9,3.5-1.1,3.9c-0.5-0.1-3.1-0.8-7.9-2v0c2.4-9.5,5-17.6,7.8-24.3
			c1.6-3.9,3.1-7.1,4.5-9.8C100,46.4,101.1,45.8,102.4,45.8z M100.9,63.6c-1,2.7-1.5,4.1-1.5,4.2c0.3-0.2,1.1-0.6,2.3-1.1
			L100.9,63.6L100.9,63.6z"/>
		<path class="st5" d="M139.6,45.4c0.1,0.1,0.4,2.8,1.1,8.1c-3.7,0.5-6.4,0.9-8.3,1.3c1.3,9.3,2,17.3,2,23.9v4.2
			c0,0.1,0,0.1-0.1,0.1h-8c0,0-0.1,0-0.1-0.1v-4.2c0-6.1-0.6-13.3-1.8-21.6h0c-1.8,0.7-4.2,1.7-7.2,3c-0.4,0.2-0.6,0.3-0.7,0.3
			c-2.1-4.7-3.2-7.2-3.3-7.4c3.7-1.7,6.9-3,9.6-4c2.4-0.8,5-1.6,7.7-2.2C132.7,46.4,135.8,45.9,139.6,45.4z"/>
		<path class="st5" d="M156.5,45.8h0.2c2.9,0,5.5,1.6,7.6,4.8c0.5,0.8,1.4,2.4,2.6,4.9v0.1c-4.5,2.4-7,3.6-7.3,3.7
			c-1.3-2.7-2.2-4.3-2.6-4.8l-0.4-0.4h-0.1c-1,0.4-2,1.7-2.9,3.7c-1.4,3.7-2.1,7.2-2.1,10.5v0.1c0,2.7,0.5,4.7,1.5,5.8
			c0.3,0.3,0.8,0.4,1.3,0.4c1.6,0,3.6-1,6.1-3c1-1,1.9-2.1,2.6-3.2c0.8-1,1.2-1.5,1.2-1.5c4.2,3.2,6.4,4.8,6.5,4.9v0.1
			c-1.6,2.2-2.9,3.9-3.9,4.9c-1.6,1.6-3.1,2.7-4.3,3.5c-2.9,1.8-5.7,2.7-8.3,2.7c-3.1,0-5.6-1.2-7.7-3.5c-2.2-2.6-3.3-6.3-3.3-11
			v-0.2c0-4.5,1-9.2,2.9-14c0.6-1.4,1.6-3,2.9-4.6C151.5,47,154,45.8,156.5,45.8z"/>
		<path class="st5" d="M197,45.2c0.5,4.1,0.9,8.2,1.2,12.1h2.4c0.1,0,0.1,0,0.1,0.1v8.1c0,0,0,0.1-0.1,0.1h-2
			c0.1,3.8,0.2,9.5,0.2,17.1l-0.1,0h-8.1c0,0-0.1,0-0.1-0.1c0-7.7-0.1-13.2-0.2-16.7c-0.7,0-2.7,0.3-5.8,0.9c0,0-0.3,0.1-0.8,0.2
			c0.3,4,0.8,9.1,1.4,15.3c0,0-2.7,0.3-8.2,0.8V83c-0.6-6.8-1-11-1.1-12.7l-0.1,0l-3.7-7.3c0.2-0.1,1.2-0.6,3.1-1.6
			c-0.2-4-0.4-7.7-0.4-11.1v-4.7c0-0.1,0-0.1,0.1-0.1h8.1c0,0,0.1,0,0.1,0.1v4.6c0,2.8,0.1,5.6,0.2,8.3c3.6-0.7,5.8-1,6.7-1v-0.1
			c-0.3-3.7-0.6-7.5-1.1-11.5C188.9,46.1,191.6,45.8,197,45.2z"/>
	</g>
	<g>
		<path class="st5" d="M76.9,23.5h0.4c2.1,0,3.9,0.6,5.4,1.7c1.1,1.1,1.7,2.2,1.7,3.4v0.2c0,1.8-1.1,3.5-3.2,5.3
			c-1.1,0.9-2.3,1.6-3.4,2.2c-0.8,0.4-1.4,0.7-2,1c0.4,1.8,0.8,3.8,1.4,6.1c0,0-1.5,0.4-4.4,1c0,0-0.4-1.4-1-4.1
			c-1.1-5-1.7-9.4-1.7-13.2v-0.3c0-0.8,0.4-1.4,1.1-1.9C73.1,24,75,23.5,76.9,23.5z M74.6,28.4c0,0.8,0.1,2.2,0.4,4.2
			c1.2-0.6,2.3-1.2,3.3-2c0.9-0.8,1.4-1.4,1.5-1.8c-0.1-0.2-0.3-0.3-0.4-0.3C78.8,28.2,78,28,77.2,28h-0.2
			C76.2,28,75.4,28.2,74.6,28.4z"/>
		<path class="st5" d="M99.8,22.6C99.8,22.6,99.8,22.6,99.8,22.6c0,0.3,0,0.6,0,0.8v3.8c0,0,0,0,0,0h-2.2c-2.2,0-4.3,0.3-6.4,0.8
			l0,0c0,1,0,1.7,0,2.3v1.5l7.6-1.2c0,0.2,0.3,1.7,0.7,4.5h0c-5.3,0.8-8,1.3-8,1.3c0.1,1.1,0.2,1.8,0.2,2.1c1.3-0.2,2.7-0.5,4.1-1
			c0.9-0.3,2.1-0.8,3.7-1.4c1,2.5,1.5,3.9,1.6,4.2c-2.1,0.9-4,1.5-5.5,2c-2.4,0.6-4.4,1-6,1c-0.7,0-1.3-0.3-1.8-1
			c-0.2-0.2-0.3-0.6-0.4-1.2c-0.2-1.2-0.3-2.5-0.4-3.9h0l-1,0.2c0-0.1-0.3-1.6-0.7-4.5c0,0,0.5-0.1,1.4-0.2v0c0-1,0-1.6,0-1.7
			c0-1.6,0.1-3.7,0.3-6.4c0.3-0.1,1.8-0.5,4.4-1.1c2-0.4,4.1-0.7,6.2-0.7h1.8C99.4,22.6,99.6,22.6,99.8,22.6z"/>
		<path class="st5" d="M108.6,23.4h0.1c2.1,0,3.6,0.7,4.7,2c0.5,0.7,0.8,1.5,0.8,2.4c0,2-1.4,4.1-4.2,6.1v0l6.9,2.2
			c-0.9,2.8-1.3,4.2-1.4,4.3l-8.5-2.7v0c0.1,2.1,0.3,4.1,0.4,5.9l0,0l-4.5,0.3c0,0-0.1-1.2-0.3-3.7c-0.1-1.9-0.2-3.8-0.2-5.6v-1.4
			c0-2.4,0.1-4.9,0.3-7.4c0.2-0.6,0.5-1.1,0.8-1.3c0.3-0.3,1.1-0.6,2.3-1C106.9,23.5,107.8,23.4,108.6,23.4z M107.1,30.6
			c0.5-0.3,1.2-0.9,2-1.7c0.4-0.4,0.5-0.7,0.5-0.8c-0.3-0.1-0.6-0.1-0.9-0.1h-0.1c-0.5,0-1,0.1-1.5,0.2
			C107.2,28.6,107.1,29.4,107.1,30.6z"/>
		<path class="st5" d="M127.3,22.4h0.5c1,0,2.7,0.2,5.1,0.6c0,0,0.1,0,0.1,0c-0.4,2.7-0.7,4.2-0.8,4.5c-2.1-0.4-3.6-0.6-4.4-0.6
			h-0.4c-1.1,0-2.3,0.3-3.7,0.8c0,0.8,0,1.6,0,2.4v0.2l6.9-1.9h0l1.2,4.4c-0.5,0.2-3.2,0.9-8,2.3c0.2,1.6,0.3,2.8,0.6,3.8
			c0.1,0.5,0.3,1.2,0.7,2.1c0,0.1,0.2,0.5,0.5,1.2c-2.8,1.1-4.2,1.6-4.3,1.6c-0.6-1.6-1-2.7-1.2-3.5c-0.2-0.9-0.5-2.2-0.7-4
			c-0.4,0.1-0.6,0.2-0.7,0.2c-0.8-2.8-1.2-4.3-1.2-4.4l1.6-0.5c0-0.1,0-0.2,0-0.3c0-0.6,0-1,0-1.3c0-1.7,0.1-3.5,0.2-5.6
			c1.9-0.7,3.5-1.3,4.8-1.6C125.3,22.6,126.3,22.4,127.3,22.4z"/>
		<path class="st5" d="M148.5,22.6C148.5,22.6,148.5,22.6,148.5,22.6c0,0.3,0,0.6,0,0.8v3.8c0,0,0,0,0,0h-2.2
			c-2.2,0-4.3,0.3-6.4,0.8l0,0c0,1,0,1.7,0,2.3v1.5l7.6-1.2c0,0.2,0.3,1.7,0.7,4.5h0c-5.3,0.8-8,1.3-8,1.3c0.1,1.1,0.2,1.8,0.2,2.1
			c1.3-0.2,2.7-0.5,4.1-1c0.9-0.3,2.1-0.8,3.7-1.4c1,2.5,1.5,3.9,1.6,4.2c-2.1,0.9-4,1.5-5.5,2c-2.4,0.6-4.4,1-6,1
			c-0.7,0-1.3-0.3-1.8-1c-0.2-0.2-0.3-0.6-0.4-1.2c-0.2-1.2-0.3-2.5-0.4-3.9h0l-1,0.2c0-0.1-0.3-1.6-0.7-4.5c0,0,0.5-0.1,1.4-0.2v0
			c0-1,0-1.6,0-1.7c0-1.6,0.1-3.7,0.3-6.4c0.3-0.1,1.8-0.5,4.4-1.1c2-0.4,4.1-0.7,6.2-0.7h1.8C148.1,22.6,148.2,22.6,148.5,22.6z"/>
		<path class="st5" d="M158.5,23.3h0.1c1.6,0,3,0.9,4.2,2.7c0.3,0.5,0.8,1.4,1.4,2.7v0c-2.5,1.3-3.9,2-4,2.1
			c-0.7-1.5-1.2-2.4-1.5-2.7l-0.2-0.2h0c-0.6,0.2-1.1,0.9-1.6,2.1c-0.8,2.1-1.2,4-1.2,5.9v0.1c0,1.5,0.3,2.6,0.8,3.2
			c0.2,0.2,0.4,0.2,0.7,0.2c0.9,0,2-0.6,3.4-1.7c0.6-0.6,1-1.1,1.5-1.8c0.4-0.6,0.6-0.8,0.7-0.8c2.4,1.8,3.6,2.7,3.6,2.7v0
			c-0.9,1.2-1.6,2.2-2.1,2.7c-0.9,0.9-1.7,1.5-2.4,1.9c-1.6,1-3.2,1.5-4.6,1.5c-1.7,0-3.1-0.6-4.3-1.9c-1.2-1.5-1.9-3.5-1.9-6.1
			v-0.1c0-2.5,0.5-5.1,1.6-7.8c0.3-0.8,0.9-1.7,1.6-2.6C155.7,24,157,23.3,158.5,23.3z"/>
		<path class="st5" d="M181.1,23.2c0,0,0.2,1.5,0.6,4.5c-2,0.3-3.6,0.5-4.6,0.7c0.7,5.2,1.1,9.6,1.1,13.3V44c0,0,0,0,0,0h-4.5
			c0,0,0,0,0,0v-2.3c0-3.4-0.3-7.4-1-12h0c-1,0.4-2.4,0.9-4,1.7c-0.2,0.1-0.4,0.2-0.4,0.2c-1.2-2.6-1.8-4-1.8-4.1
			c2.1-0.9,3.8-1.7,5.3-2.2c1.4-0.5,2.8-0.9,4.3-1.2C177.3,23.7,179,23.4,181.1,23.2z"/>
	</g>
</g>
<g id="Layer_2_copy">
</g>
<g id="Layer_2_copy_2">
</g>
</svg>
