<svg width="300" height="300" viewBox="0 0 300 300" fill="none" xmlns="http://www.w3.org/2000/svg">
<rect width="300" height="300" fill="#DAE3F7"/>
<path d="M270.509 173.641C270.509 240.449 216.328 254.363 149.52 254.363C82.7118 254.363 28.5312 240.449 28.5312 173.641C28.5312 151.264 34.6023 130.316 45.1973 112.337C40.8082 108.865 37.1386 104.35 34.6383 98.9359C26.0759 80.507 34.0716 58.6423 52.4826 50.0709C52.5006 50.0529 52.5096 50.0439 52.5275 50.0439C68.0604 42.8486 86.0306 47.3907 96.4368 60.0274C112.347 51.465 130.399 46.6262 149.52 46.6262C168.642 46.6262 186.855 51.51 202.81 60.1353C213.18 47.4176 231.223 42.8306 246.791 50.0529C246.809 50.0529 246.818 50.0709 246.836 50.0799C265.247 58.6423 273.252 80.516 264.681 98.9449C262.135 104.44 258.403 109.009 253.933 112.49C264.465 130.442 270.509 151.327 270.509 173.65V173.641Z" fill="#C3CBDC" stroke="white" stroke-width="30" stroke-miterlimit="10"/>
<path d="M89.9074 113.03C87.9557 114.505 85.8151 115.773 83.5126 116.834C65.0836 125.397 43.183 117.392 34.6385 98.9449C26.0761 80.5159 34.0719 58.6512 52.4829 50.0798C52.5009 50.0618 52.5099 50.0529 52.5278 50.0529C70.9748 41.4995 92.8574 49.5132 101.42 67.9601C108.912 84.1046 103.695 102.884 89.9074 113.039V113.03Z" fill="#C3CBDC"/>
<path d="M89.9069 113.03C89.9069 113.03 89.88 113.057 89.862 113.057C71.415 121.619 49.5324 113.614 40.97 95.1673C33.4779 79.0229 38.6945 60.2432 52.4824 50.0798C52.5004 50.0619 52.5094 50.0529 52.5274 50.0529C70.9743 41.4995 92.857 49.5132 101.419 67.9601C108.912 84.1046 103.695 102.884 89.9069 113.039V113.03Z" fill="#DAE3F7"/>
<path d="M48.4626 92.5229C44.3073 83.5648 46.8167 73.2305 53.958 67.0966C55.4151 65.8104 57.088 64.7311 58.9318 63.8677C69.7427 58.8489 82.5683 63.5439 87.587 74.3548C91.0138 81.739 89.8895 90.0855 85.3835 96.2195C83.3058 99.0436 80.4997 101.409 77.0909 102.992C66.2979 108.002 53.4634 103.307 48.4536 92.5139L48.4626 92.5229Z" fill="#969CA9"/>
<path d="M51.7719 88.9703C48.3361 81.5681 49.4604 73.2306 53.9575 67.1056C55.4145 65.8194 57.0874 64.7401 58.9312 63.8767C69.7421 58.858 82.5677 63.5529 87.5865 74.3638C91.0132 81.748 89.8889 90.0945 85.3829 96.2285C83.9169 97.5057 82.2529 98.585 80.4002 99.4394C69.6072 104.449 56.7726 99.7542 51.7629 88.9613L51.7719 88.9703Z" fill="#AAB1C1"/>
<path d="M209.412 113.03C211.364 114.505 213.504 115.773 215.807 116.834C234.236 125.397 256.137 117.392 264.681 98.9449C273.243 80.5159 265.248 58.6512 246.837 50.0798C246.819 50.0618 246.81 50.0529 246.792 50.0529C228.345 41.4995 206.462 49.5132 197.9 67.9601C190.408 84.1046 195.624 102.884 209.412 113.039V113.03Z" fill="#C3CBDC"/>
<path d="M209.412 113.03C209.412 113.03 209.439 113.057 209.457 113.057C227.904 121.619 249.787 113.614 258.349 95.1673C265.841 79.0229 260.625 60.2432 246.837 50.0798C246.819 50.0619 246.81 50.0529 246.792 50.0529C228.345 41.4995 206.462 49.5132 197.9 67.9601C190.408 84.1046 195.624 102.884 209.412 113.039V113.03Z" fill="#DAE3F7"/>
<path d="M250.855 92.5229C255.011 83.5648 252.501 73.2305 245.36 67.0966C243.903 65.8104 242.23 64.7311 240.386 63.8677C229.575 58.8489 216.75 63.5439 211.731 74.3548C208.304 81.739 209.429 90.0855 213.935 96.2195C216.012 99.0436 218.818 101.409 222.227 102.992C233.02 108.002 245.855 103.307 250.864 92.5139L250.855 92.5229Z" fill="#969CA9"/>
<path d="M247.546 88.9703C250.981 81.5681 249.857 73.2306 245.36 67.1056C243.903 65.8194 242.23 64.7401 240.386 63.8767C229.575 58.858 216.75 63.5529 211.731 74.3638C208.304 81.748 209.429 90.0945 213.935 96.2285C215.401 97.5057 217.065 98.585 218.917 99.4394C229.71 104.449 242.545 99.7542 247.555 88.9613L247.546 88.9703Z" fill="#AAB1C1"/>
<path d="M270.509 173.641C270.509 240.449 216.328 254.363 149.52 254.363C82.7118 254.363 28.5312 240.449 28.5312 173.641C28.5312 146.659 37.3635 121.763 52.2757 101.643C74.3203 71.9265 109.676 52.6521 149.52 52.6521C189.364 52.6521 224.72 71.9265 246.764 101.643C261.686 121.763 270.509 146.659 270.509 173.641Z" fill="#C3CBDC"/>
<path d="M246.764 101.643C224.72 71.9264 189.364 52.652 149.52 52.652C109.676 52.652 74.32 71.9264 52.2754 101.643C72.9619 68.5176 108.785 46.626 149.52 46.626C190.254 46.626 226.078 68.5176 246.764 101.652V101.643Z" fill="#DAE3F7"/>
<path d="M265.499 167.615C265.499 234.423 213.576 248.337 149.52 248.337C85.464 248.337 33.541 234.423 33.541 167.615C33.541 143.268 40.4305 120.62 52.2758 101.652C74.3203 71.9353 109.676 52.6609 149.52 52.6609C189.364 52.6609 224.72 71.9353 246.764 101.652C258.61 120.62 265.499 143.277 265.499 167.615Z" fill="#DAE3F7"/>
<path d="M209.458 209.788C209.458 238.632 182.619 244.748 149.521 244.748C116.422 244.748 89.584 238.632 89.584 209.788C89.584 208.664 89.638 207.558 89.7549 206.469C92.5341 179.181 129.005 157.577 149.512 157.577C170.018 157.577 206.489 179.181 209.269 206.469C209.386 207.558 209.44 208.673 209.44 209.788H209.458Z" fill="#AAB1C1"/>
<path d="M209.277 206.469C206.885 231.923 181.045 237.472 149.521 237.472C117.996 237.472 92.1471 231.923 89.7637 206.469C92.5429 179.181 129.014 157.577 149.521 157.577C170.027 157.577 206.498 179.181 209.277 206.469Z" fill="#C3CBDC"/>
<path d="M149.484 179.379C154.943 179.379 176.421 169.09 167.931 158.54C159.431 147.99 138.556 148.394 131.046 158.54C122.771 169.72 144.024 179.379 149.493 179.379H149.484Z" fill="black"/>
<path d="M104.836 148.628C110.245 148.628 114.63 144.243 114.63 138.834C114.63 133.424 110.245 129.039 104.836 129.039C99.4262 129.039 95.041 133.424 95.041 138.834C95.041 144.243 99.4262 148.628 104.836 148.628Z" fill="black"/>
<path d="M194.472 148.628C199.882 148.628 204.267 144.243 204.267 138.834C204.267 133.424 199.882 129.039 194.472 129.039C189.063 129.039 184.678 133.424 184.678 138.834C184.678 144.243 189.063 148.628 194.472 148.628Z" fill="black"/>
<path d="M129.139 208.331C146.084 199.463 154.664 219.142 169.9 208.331" stroke="black" stroke-width="1.79882" stroke-linecap="round" stroke-linejoin="round"/>
<path d="M124.498 202.305C127.439 203.78 131.522 210.625 127.115 215.32" stroke="black" stroke-width="1.79882" stroke-linecap="round" stroke-linejoin="round"/>
<path d="M174.442 202.305C171.501 203.78 167.418 210.625 171.825 215.32" stroke="black" stroke-width="1.79882" stroke-linecap="round" stroke-linejoin="round"/>
<path d="M145.347 157.271C147.25 157.271 148.792 156.188 148.792 154.852C148.792 153.516 147.25 152.433 145.347 152.433C143.445 152.433 141.902 153.516 141.902 154.852C141.902 156.188 143.445 157.271 145.347 157.271Z" fill="white"/>
<path d="M137.729 158.056C138.619 157.615 139.06 156.691 138.714 155.992C138.368 155.293 137.365 155.084 136.475 155.525C135.585 155.966 135.144 156.89 135.49 157.589C135.836 158.288 136.838 158.497 137.729 158.056Z" fill="white"/>
</svg>
