<svg width="300" height="300" viewBox="0 0 300 300" fill="none" xmlns="http://www.w3.org/2000/svg">
<g clip-path="url(#clip0_782_256)">
<path d="M284.04 176.23C284.04 250.51 223.8 265.98 149.52 265.98C75.24 265.98 15 250.51 15 176.23C15 151.35 21.75 128.06 33.53 108.07C28.65 104.21 24.57 99.1901 21.79 93.1701C12.27 72.6801 21.16 48.3701 41.63 38.8401C41.65 38.8201 41.66 38.8101 41.68 38.8101C58.95 30.8101 78.93 35.8601 90.5 49.9101C108.19 40.3901 128.26 35.0101 149.52 35.0101C170.78 35.0101 191.03 40.4401 208.77 50.0301C220.3 35.8901 240.36 30.7901 257.67 38.8201C257.69 38.8201 257.7 38.8401 257.72 38.8501C278.19 48.3701 287.09 72.6901 277.56 93.1801C274.73 99.2901 270.58 104.37 265.61 108.24C277.32 128.2 284.04 151.42 284.04 176.24V176.23Z" fill="#C3CBDC" stroke="white" stroke-width="30" stroke-miterlimit="10"/>
<path d="M83.2403 108.84C81.0703 110.48 78.6903 111.89 76.1303 113.07C55.6403 122.59 31.2903 113.69 21.7903 93.18C12.2703 72.69 21.1603 48.38 41.6303 38.85C41.6503 38.83 41.6603 38.82 41.6803 38.82C62.1903 29.31 86.5203 38.22 96.0403 58.73C104.37 76.68 98.5703 97.56 83.2403 108.85V108.84Z" fill="#C3CBDC"/>
<path d="M83.2398 108.84C83.2398 108.84 83.2098 108.87 83.1898 108.87C62.6798 118.39 38.3498 109.49 28.8298 88.98C20.4998 71.03 26.2998 50.15 41.6298 38.85C41.6498 38.83 41.6598 38.82 41.6798 38.82C62.1898 29.31 86.5198 38.22 96.0398 58.73C104.37 76.68 98.5698 97.56 83.2398 108.85V108.84Z" fill="#DAE3F7"/>
<path d="M37.16 86.0401C32.54 76.0801 35.33 64.5901 43.27 57.7701C44.89 56.3401 46.75 55.1401 48.8 54.1801C60.82 48.6001 75.08 53.8201 80.66 65.8401C84.47 74.0501 83.22 83.3301 78.21 90.1501C75.9 93.2901 72.78 95.9201 68.99 97.6801C56.99 103.25 42.72 98.0301 37.15 86.0301L37.16 86.0401Z" fill="#969CA9"/>
<path d="M40.8405 82.0901C37.0205 73.8601 38.2705 64.5901 43.2705 57.7801C44.8905 56.3501 46.7504 55.1501 48.8004 54.1901C60.8204 48.6101 75.0805 53.8301 80.6605 65.8501C84.4705 74.0601 83.2204 83.3401 78.2104 90.1601C76.5804 91.5801 74.7304 92.7801 72.6704 93.7301C60.6704 99.3001 46.4005 94.0801 40.8305 82.0801L40.8405 82.0901Z" fill="#AAB1C1"/>
<path d="M216.11 108.84C218.28 110.48 220.66 111.89 223.22 113.07C243.71 122.59 268.06 113.69 277.56 93.18C287.08 72.69 278.19 48.38 257.72 38.85C257.7 38.83 257.69 38.82 257.67 38.82C237.16 29.31 212.83 38.22 203.31 58.73C194.98 76.68 200.78 97.56 216.11 108.85V108.84Z" fill="#C3CBDC"/>
<path d="M216.11 108.84C216.11 108.84 216.14 108.87 216.16 108.87C236.67 118.39 261 109.49 270.52 88.98C278.85 71.03 273.05 50.15 257.72 38.85C257.7 38.83 257.69 38.82 257.67 38.82C237.16 29.31 212.83 38.22 203.31 58.73C194.98 76.68 200.78 97.56 216.11 108.85V108.84Z" fill="#DAE3F7"/>
<path d="M262.189 86.0401C266.809 76.0801 264.019 64.5901 256.079 57.7701C254.459 56.3401 252.599 55.1401 250.549 54.1801C238.529 48.6001 224.269 53.8201 218.689 65.8401C214.879 74.0501 216.129 83.3301 221.139 90.1501C223.449 93.2901 226.569 95.9201 230.359 97.6801C242.359 103.25 256.629 98.0301 262.199 86.0301L262.189 86.0401Z" fill="#969CA9"/>
<path d="M258.509 82.0901C262.329 73.8601 261.079 64.5901 256.079 57.7801C254.459 56.3501 252.599 55.1501 250.549 54.1901C238.529 48.6101 224.269 53.8301 218.689 65.8501C214.879 74.0601 216.129 83.3401 221.139 90.1601C222.769 91.5801 224.619 92.7801 226.679 93.7301C238.679 99.3001 252.949 94.0801 258.519 82.0801L258.509 82.0901Z" fill="#AAB1C1"/>
<path d="M284.04 176.23C284.04 250.51 223.8 265.98 149.52 265.98C75.24 265.98 15 250.51 15 176.23C15 146.23 24.82 118.55 41.4 96.18C65.91 63.14 105.22 41.71 149.52 41.71C193.82 41.71 233.13 63.14 257.64 96.18C274.23 118.55 284.04 146.23 284.04 176.23Z" fill="#C3CBDC"/>
<path d="M257.64 96.18C233.13 63.14 193.82 41.71 149.52 41.71C105.22 41.71 65.9104 63.14 41.4004 96.18C64.4004 59.35 104.23 35.01 149.52 35.01C194.81 35.01 234.64 59.35 257.64 96.19V96.18Z" fill="#DAE3F7"/>
<path d="M278.47 169.53C278.47 243.81 220.74 259.28 149.52 259.28C78.3003 259.28 20.5703 243.81 20.5703 169.53C20.5703 142.46 28.2303 117.28 41.4003 96.19C65.9103 63.15 105.22 41.72 149.52 41.72C193.82 41.72 233.13 63.15 257.64 96.19C270.81 117.28 278.47 142.47 278.47 169.53Z" fill="#DAE3F7"/>
<path d="M216.161 216.42C216.161 248.49 186.321 255.29 149.521 255.29C112.721 255.29 82.8809 248.49 82.8809 216.42C82.8809 215.17 82.9409 213.94 83.0709 212.73C86.1609 182.39 126.711 158.37 149.511 158.37C172.311 158.37 212.861 182.39 215.951 212.73C216.081 213.94 216.141 215.18 216.141 216.42H216.161Z" fill="#AAB1C1"/>
<path d="M215.96 212.73C213.3 241.03 184.57 247.2 149.52 247.2C114.47 247.2 85.7301 241.03 83.0801 212.73C86.1701 182.39 126.72 158.37 149.52 158.37C172.32 158.37 212.87 182.39 215.96 212.73Z" fill="#C3CBDC"/>
<path d="M149.48 182.61C155.55 182.61 179.43 171.17 169.99 159.44C160.54 147.71 137.33 148.16 128.98 159.44C119.78 171.87 143.41 182.61 149.49 182.61H149.48Z" fill="black"/>
<path d="M99.8392 148.42C105.854 148.42 110.729 143.544 110.729 137.53C110.729 131.516 105.854 126.64 99.8392 126.64C93.8248 126.64 88.9492 131.516 88.9492 137.53C88.9492 143.544 93.8248 148.42 99.8392 148.42Z" fill="black"/>
<path d="M199.499 148.42C205.514 148.42 210.389 143.544 210.389 137.53C210.389 131.516 205.514 126.64 199.499 126.64C193.485 126.64 188.609 131.516 188.609 137.53C188.609 143.544 193.485 148.42 199.499 148.42Z" fill="black"/>
<path d="M126.859 214.8C145.699 204.94 155.239 226.82 172.179 214.8" stroke="black" stroke-width="2" stroke-linecap="round" stroke-linejoin="round"/>
<path d="M121.699 208.1C124.969 209.74 129.509 217.35 124.609 222.57" stroke="black" stroke-width="2" stroke-linecap="round" stroke-linejoin="round"/>
<path d="M177.229 208.1C173.959 209.74 169.419 217.35 174.319 222.57" stroke="black" stroke-width="2" stroke-linecap="round" stroke-linejoin="round"/>
<path d="M144.881 158.03C146.996 158.03 148.711 156.826 148.711 155.34C148.711 153.854 146.996 152.65 144.881 152.65C142.766 152.65 141.051 153.854 141.051 155.34C141.051 156.826 142.766 158.03 144.881 158.03Z" fill="white"/>
<path d="M136.411 158.902C137.4 158.412 137.891 157.384 137.506 156.607C137.121 155.83 136.007 155.598 135.017 156.088C134.027 156.578 133.537 157.606 133.921 158.383C134.306 159.16 135.421 159.392 136.411 158.902Z" fill="white"/>
</g>
<defs>
<clipPath id="clip0_782_256">
<rect width="299.04" height="260.98" fill="white" transform="translate(0 20)"/>
</clipPath>
</defs>
</svg>
