<svg width="300" height="300" viewBox="0 0 300 300" fill="none" xmlns="http://www.w3.org/2000/svg">
<g clip-path="url(#clip0_787_312)">
<path d="M281.92 169.65L239.7 256.86L236.5 263.48C230.96 274.92 217.2 279.71 205.76 274.17L111.94 228.75C100.49 223.2 95.7003 209.44 101.24 198L103.73 192.85L104.44 191.39L105.04 190.16L109.25 181.46L61.7103 190.46C49.2103 192.82 37.1803 184.61 34.8103 172.13L33.4503 164.97C33.4503 164.97 33.4503 164.93 33.4503 164.91L33.2003 163.61L28.8203 140.49L25.4403 122.65L15.4103 69.7C13.0503 57.2 21.2603 45.17 33.7503 42.79L100.21 30.21L121.26 26.23L136.16 23.41C139.65 22.75 143.11 22.91 146.33 23.77C154.63 25.96 161.36 32.74 163.06 41.74L167.08 62.98L172.53 91.76C174.18 92.14 175.82 92.71 177.42 93.48L238.24 122.93L257.52 132.26L271.23 138.9C282.67 144.44 287.46 158.2 281.91 169.64L281.92 169.65Z" fill="white" stroke="white" stroke-width="30" stroke-linecap="round" stroke-linejoin="round"/>
<path opacity="0.4" d="M167.091 62.97L167.081 62.98L163.061 41.74L167.091 62.97Z" fill="white" stroke="white" stroke-width="30" stroke-linecap="round" stroke-linejoin="round"/>
<path d="M146.637 104.163L101.219 197.989C95.68 209.432 100.466 223.2 111.91 228.739L205.735 274.156C217.178 279.696 230.946 274.91 236.485 263.466L281.903 169.641C287.442 158.197 282.656 144.43 271.212 138.891L177.387 93.4732C165.944 87.9339 152.176 92.72 146.637 104.163Z" fill="#FFCB9A"/>
<path d="M281.919 169.65L239.699 256.86C234.159 268.3 220.389 273.09 208.949 267.55L115.129 222.13C103.679 216.59 98.8992 202.82 104.429 191.38L146.649 104.17C152.189 92.7299 165.959 87.9399 177.409 93.4899L271.229 138.91C282.669 144.45 287.459 158.22 281.919 169.66V169.65Z" fill="#FDE9D6"/>
<path d="M185.679 256.29L138.279 233.34L173.009 190.31L199.319 203.05L185.679 256.29Z" fill="#FFCB9A"/>
<path d="M173.009 190.31L138.279 233.34L134.619 231.57L169.339 188.54L173.009 190.31Z" fill="#DBAF85"/>
<path d="M189.45 258.12L185.68 256.29L199.32 203.05L203.1 204.88L189.45 258.12Z" fill="#DBAF85"/>
<path d="M230.77 198.72C220.72 219.48 195.74 228.17 174.97 218.11C154.21 208.06 145.52 183.08 155.58 162.32C155.99 161.48 156.41 160.68 156.87 159.88C167.64 140.88 191.46 133.27 211.38 142.92C231.31 152.57 240.11 175.97 231.89 196.2C231.55 197.05 231.18 197.88 230.77 198.72Z" fill="#DBAF85"/>
<path d="M231.889 196.2C221.119 215.19 197.309 222.79 177.379 213.14C157.449 203.49 148.649 180.1 156.869 159.88C167.639 140.88 191.459 133.27 211.379 142.92C231.309 152.57 240.109 175.97 231.889 196.2Z" fill="#FFCB9A"/>
<path d="M175.79 178.54C179.346 178.54 182.23 175.657 182.23 172.1C182.23 168.543 179.346 165.66 175.79 165.66C172.233 165.66 169.35 168.543 169.35 172.1C169.35 175.657 172.233 178.54 175.79 178.54Z" fill="black"/>
<path d="M210.559 195.37C214.116 195.37 216.999 192.487 216.999 188.93C216.999 185.373 214.116 182.49 210.559 182.49C207.002 182.49 204.119 185.373 204.119 188.93C204.119 192.487 207.002 195.37 210.559 195.37Z" fill="black"/>
<path d="M186.51 179.39C188.13 184.04 193.49 186.73 198.25 185.08" stroke="black" stroke-width="2" stroke-linecap="round" stroke-linejoin="round"/>
<path d="M163.061 41.74L182.451 144.17C184.811 156.66 176.601 168.7 164.111 171.07L61.6905 190.46C49.1905 192.83 37.1505 184.61 34.7805 172.13L15.4005 69.69C13.0405 57.2 21.2505 45.16 33.7405 42.79L136.171 23.41C139.661 22.75 143.121 22.91 146.331 23.78C154.631 25.97 161.361 32.75 163.061 41.75V41.74Z" fill="#FFCB9A"/>
<path d="M163.061 41.74L181.081 136.95C183.441 149.44 175.231 161.48 162.741 163.85L60.3205 183.24C47.8205 185.61 35.7805 177.39 33.4105 164.91L15.4005 69.69C13.0405 57.2 21.2505 45.16 33.7405 42.79L136.171 23.41C139.661 22.75 143.121 22.91 146.331 23.78C154.631 25.97 161.361 32.75 163.061 41.75V41.74Z" fill="#FDE9D6"/>
<path d="M153.331 147.68C144.771 153.25 80.2414 168.47 66.2514 162.3C60.3414 159.7 56.8814 152.97 56.1914 145.89C55.5114 139.06 57.3914 131.9 62.1314 127.83C71.7814 119.54 128.961 105.51 145.821 112.8C152.471 115.67 156.361 121.15 158.051 126.99C160.461 135.33 158.371 144.4 153.331 147.68Z" fill="#DBAF85"/>
<path d="M158.04 126.99C158.69 133.82 156.54 140.34 152.44 143.01C143.88 148.58 79.3497 163.8 65.3597 157.63C60.7897 155.61 57.6797 151.11 56.1797 145.89C55.4997 139.06 57.3797 131.9 62.1197 127.83C71.7697 119.54 128.95 105.51 145.81 112.8C152.46 115.67 156.35 121.15 158.04 126.99Z" fill="#FFCB9A"/>
<path d="M131.74 95.9601C143.93 101.55 144.04 119.13 137.63 123.46C131.22 127.79 79.3602 139.15 72.1402 134.39C64.0002 129.03 61.6002 113.7 68.8102 107.24C76.0202 100.78 119 90.1101 131.75 95.9601H131.74Z" fill="#FFCB9A"/>
<path d="M120.791 81.8001C129.861 85.9601 129.941 99.0401 125.171 102.25C120.401 105.46 81.8214 113.93 76.4514 110.38C70.4014 106.39 68.6114 94.9901 73.9714 90.1801C79.3414 85.3701 111.311 77.4401 120.791 81.7901V81.8001Z" fill="#FFCB9A"/>
<path d="M95.0306 65.4399C98.9506 77.7099 73.0006 80.2699 71.2706 94.7099C70.7706 98.9099 91.5606 95.5699 100.461 91.1199C109.361 86.6699 105.821 72.4199 95.0306 65.4499V65.4399Z" fill="#FFCB9A"/>
<path d="M102.12 123.81C93.3101 126.4 77.6401 128.66 64.4201 124.19C61.8001 125.99 61.7201 124.66 64.0501 125.91C66.3801 127.16 87.7901 129.86 102.12 123.8V123.81Z" fill="#FDE9D6"/>
<path d="M93.791 104.16C99.791 103.67 109.171 100.47 115.031 97.6901C119.481 95.5801 128.081 93.7301 129.361 92.5901C130.601 93.3501 131.411 94.0101 130.571 94.8701C129.731 95.7301 124.181 95.3901 115.551 98.8301C109.071 101.42 99.781 104.66 93.791 104.15V104.16Z" fill="#FDE9D6"/>
<path d="M105.451 79.27C105.831 82.9 101.341 88.47 98.1406 89.05C102.751 88.91 107.031 82.12 107.031 80.43C107.031 79.09 105.451 79.27 105.451 79.27Z" fill="#FDE9D6"/>
<path d="M61.4708 81.6445C61.9513 77.9644 60.2189 74.704 57.6012 74.3622C54.9835 74.0203 52.4718 76.7265 51.9913 80.4066C51.5107 84.0868 53.2432 87.3472 55.8608 87.689C58.4785 88.0309 60.9902 85.3247 61.4708 81.6445Z" fill="#FFCB9A"/>
<path d="M57.014 86.5478C57.1034 83.9094 54.1689 81.6687 50.4597 81.5431C46.7505 81.4174 43.6711 83.4545 43.5817 86.0929C43.4924 88.7313 46.4268 90.972 50.1361 91.0976C53.8453 91.2232 56.9247 89.1862 57.014 86.5478Z" fill="#FFCB9A"/>
<path d="M56.6191 91.3902C58.8724 91.3902 60.6991 89.5635 60.6991 87.3102C60.6991 85.0569 58.8724 83.2302 56.6191 83.2302C54.3657 83.2302 52.5391 85.0569 52.5391 87.3102C52.5391 89.5635 54.3657 91.3902 56.6191 91.3902Z" fill="#FFCB9A"/>
<path d="M147.529 84.1012C149.898 82.5887 150.945 79.9927 149.866 78.3028C148.787 76.6129 145.992 76.4691 143.623 77.9816C141.253 79.4941 140.206 82.0901 141.285 83.78C142.364 85.4699 145.159 85.6137 147.529 84.1012Z" fill="#FFCB9A"/>
<path d="M142.511 83.8759C144.089 82.64 143.964 79.8438 142.231 77.6304C140.498 75.417 137.814 74.6246 136.235 75.8605C134.657 77.0965 134.782 79.8927 136.515 82.1061C138.248 84.3195 140.932 85.1119 142.511 83.8759Z" fill="#FFCB9A"/>
<path d="M141.881 87.1202C143.588 87.1202 144.971 85.7367 144.971 84.0302C144.971 82.3236 143.588 80.9402 141.881 80.9402C140.174 80.9402 138.791 82.3236 138.791 84.0302C138.791 85.7367 140.174 87.1202 141.881 87.1202Z" fill="#FFCB9A"/>
<path d="M93.7982 44.2169C94.6692 41.5441 93.8301 38.8738 91.924 38.2526C90.0178 37.6314 87.7665 39.2946 86.8955 41.9674C86.0245 44.6402 86.8636 47.3104 88.7697 47.9316C90.6758 48.5528 92.9272 46.8897 93.7982 44.2169Z" fill="#FFCB9A"/>
<path d="M89.7861 47.2501C90.2217 45.2932 88.3504 43.2116 85.6065 42.6008C82.8625 41.9899 80.2849 43.0811 79.8493 45.038C79.4137 46.9949 81.285 49.0765 84.0289 49.6873C86.7729 50.2981 89.3505 49.207 89.7861 47.2501Z" fill="#FFCB9A"/>
<path d="M89.3908 50.8502C91.0973 50.8502 92.4808 49.4667 92.4808 47.7602C92.4808 46.0536 91.0973 44.6702 89.3908 44.6702C87.6842 44.6702 86.3008 46.0536 86.3008 47.7602C86.3008 49.4667 87.6842 50.8502 89.3908 50.8502Z" fill="#FFCB9A"/>
</g>
<defs>
<clipPath id="clip0_787_312">
<rect width="299.23" height="283.47" fill="white" transform="translate(0 8)"/>
</clipPath>
</defs>
</svg>
