<svg width="300" height="300" viewBox="0 0 300 300" fill="none" xmlns="http://www.w3.org/2000/svg">
<rect width="300" height="300" fill="#FDE9D6"/>
<path d="M271.104 168.022L232.335 248.103L229.397 254.182C224.309 264.687 211.674 269.086 201.169 263.998L115.019 222.291C104.504 217.195 100.106 204.56 105.193 194.055L107.48 189.326L108.132 187.985L108.683 186.856L112.548 178.867L68.8945 187.131C57.4162 189.298 46.3696 181.759 44.1934 170.3L42.9445 163.725C42.9445 163.725 42.9445 163.688 42.9445 163.67L42.715 162.476L38.693 141.246L35.5893 124.864L26.3792 76.2425C24.2121 64.7643 31.751 53.7177 43.22 51.5322L104.247 39.9805L123.577 36.3259L137.259 33.7364C140.463 33.1304 143.641 33.2773 146.597 34.067C154.219 36.078 160.399 42.3037 161.96 50.5681L165.651 70.0718L170.656 96.4993C172.171 96.8482 173.677 97.3716 175.146 98.0787L230.994 125.121L248.698 133.689L261.288 139.786C271.792 144.873 276.191 157.508 271.095 168.013L271.104 168.022Z" fill="white" stroke="white" stroke-width="30" stroke-linecap="round" stroke-linejoin="round"/>
<path opacity="0.4" d="M165.662 70.0627L165.652 70.0719L161.961 50.5681L165.662 70.0627Z" fill="white" stroke="white" stroke-width="30" stroke-linecap="round" stroke-linejoin="round"/>
<path d="M146.882 107.888L105.177 194.044C100.09 204.552 104.485 217.194 114.993 222.281L201.149 263.986C211.657 269.072 224.299 264.677 229.385 254.169L271.09 168.013C276.177 157.505 271.782 144.864 261.274 139.777L175.118 98.072C164.61 92.9854 151.968 97.3804 146.882 107.888Z" fill="#FFCB9A"/>
<path d="M271.105 168.022L232.337 248.103C227.249 258.608 214.605 263.006 204.1 257.919L117.949 216.212C107.435 211.125 103.046 198.48 108.124 187.976L146.893 107.894C151.98 97.3895 164.624 92.9911 175.138 98.0874L261.289 139.795C271.794 144.882 276.193 157.526 271.105 168.031V168.022Z" fill="#FDE9D6"/>
<path d="M182.732 247.58L139.207 226.506L171.098 186.993L195.257 198.692L182.732 247.58Z" fill="#FFCB9A"/>
<path d="M171.098 186.993L139.207 226.506L135.846 224.881L167.728 185.368L171.098 186.993Z" fill="#DBAF85"/>
<path d="M186.194 249.26L182.732 247.58L195.257 198.692L198.728 200.372L186.194 249.26Z" fill="#DBAF85"/>
<path d="M224.137 194.716C214.908 213.779 191.97 221.758 172.898 212.521C153.835 203.292 145.855 180.354 155.093 161.291C155.47 160.52 155.855 159.785 156.278 159.051C166.167 141.604 188.04 134.616 206.332 143.477C224.633 152.338 232.713 173.825 225.165 192.402C224.853 193.182 224.513 193.944 224.137 194.716Z" fill="#DBAF85"/>
<path d="M225.164 192.402C215.274 209.839 193.411 216.818 175.11 207.957C156.809 199.096 148.728 177.618 156.276 159.051C166.166 141.604 188.039 134.616 206.331 143.477C224.631 152.338 232.712 173.825 225.164 192.402Z" fill="#FFCB9A"/>
<path d="M173.652 176.185C176.918 176.185 179.565 173.538 179.565 170.272C179.565 167.006 176.918 164.358 173.652 164.358C170.386 164.358 167.738 167.006 167.738 170.272C167.738 173.538 170.386 176.185 173.652 176.185Z" fill="black"/>
<path d="M205.578 191.639C208.844 191.639 211.491 188.992 211.491 185.726C211.491 182.46 208.844 179.812 205.578 179.812C202.312 179.812 199.664 182.46 199.664 185.726C199.664 188.992 202.312 191.639 205.578 191.639Z" fill="black"/>
<path d="M183.494 176.966C184.982 181.236 189.904 183.706 194.274 182.191" stroke="black" stroke-width="1.83651" stroke-linecap="round" stroke-linejoin="round"/>
<path d="M161.961 50.5679L179.766 144.625C181.933 156.094 174.394 167.15 162.925 169.326L68.8775 187.131C57.3993 189.307 46.3434 181.759 44.1672 170.299L26.3714 76.2332C24.2043 64.7641 31.7432 53.7083 43.2122 51.5321L137.269 33.7362C140.474 33.1302 143.651 33.2771 146.599 34.076C154.22 36.087 160.4 42.3128 161.961 50.5771V50.5679Z" fill="#FFCB9A"/>
<path d="M161.961 50.5679L178.508 137.995C180.675 149.464 173.136 160.52 161.667 162.696L67.6195 180.501C56.1412 182.677 45.0854 175.129 42.9092 163.67L26.3714 76.2332C24.2043 64.7641 31.7432 53.7083 43.2122 51.5321L137.269 33.7362C140.474 33.1302 143.651 33.2771 146.599 34.076C154.22 36.087 160.4 42.3128 161.961 50.5771V50.5679Z" fill="#FDE9D6"/>
<path d="M153.028 147.848C145.168 152.963 85.9129 166.939 73.0665 161.273C67.6396 158.885 64.4624 152.706 63.8288 146.204C63.2044 139.933 64.9307 133.358 69.2833 129.621C78.1445 122.008 130.65 109.125 146.132 115.819C152.239 118.455 155.811 123.487 157.362 128.849C159.575 136.507 157.656 144.836 153.028 147.848Z" fill="#DBAF85"/>
<path d="M157.351 128.849C157.948 135.121 155.973 141.108 152.209 143.56C144.348 148.674 85.0931 162.65 72.2467 156.985C68.0503 155.13 65.1945 150.998 63.8171 146.204C63.1927 139.933 64.919 133.358 69.2716 129.621C78.1327 122.008 130.639 109.125 146.12 115.819C152.227 118.455 155.799 123.487 157.351 128.849Z" fill="#FFCB9A"/>
<path d="M133.201 100.356C144.394 105.489 144.495 121.632 138.609 125.608C132.723 129.584 85.1023 140.015 78.4725 135.644C70.9979 130.723 68.7941 116.646 75.4147 110.714C82.0354 104.782 121.502 94.984 133.21 100.356H133.201Z" fill="#FFCB9A"/>
<path d="M123.147 87.3533C131.476 91.1732 131.549 103.184 127.169 106.132C122.789 109.079 87.3626 116.857 82.4316 113.597C76.8762 109.933 75.2325 99.4651 80.1543 95.0483C85.0854 90.6315 114.442 83.3497 123.147 87.3441V87.3533Z" fill="#FFCB9A"/>
<path d="M99.4919 72.3306C103.092 83.5976 79.2627 85.9483 77.6742 99.2079C77.215 103.065 96.3056 99.9976 104.478 95.9114C112.651 91.8252 109.4 78.74 99.4919 72.3398V72.3306Z" fill="#FFCB9A"/>
<path d="M106.002 125.929C97.9122 128.307 83.5231 130.383 71.3838 126.278C68.9779 127.931 68.9045 126.71 71.044 127.857C73.1836 129.005 92.8434 131.485 106.002 125.92V125.929Z" fill="#FDE9D6"/>
<path d="M98.3535 107.885C103.863 107.436 112.476 104.497 117.857 101.944C121.944 100.007 129.841 98.308 131.016 97.2612C132.155 97.9591 132.898 98.5652 132.127 99.3549C131.356 100.145 126.259 99.8324 118.335 102.991C112.384 105.369 103.854 108.345 98.3535 107.876V107.885Z" fill="#FDE9D6"/>
<path d="M109.06 85.0301C109.409 88.3634 105.286 93.4781 102.348 94.0107C106.581 93.8821 110.511 87.6472 110.511 86.0953C110.511 84.8648 109.06 85.0301 109.06 85.0301Z" fill="#FDE9D6"/>
<path d="M68.6755 87.2104C69.1168 83.8311 67.526 80.8372 65.1222 80.5233C62.7185 80.2094 60.4122 82.6944 59.9709 86.0736C59.5296 89.4529 61.1205 92.4468 63.5242 92.7607C65.9279 93.0746 68.2342 90.5896 68.6755 87.2104Z" fill="#FFCB9A"/>
<path d="M64.5825 91.7127C64.6646 89.2899 61.97 87.2324 58.5639 87.117C55.1579 87.0017 52.3303 88.8722 52.2482 91.2949C52.1661 93.7176 54.8607 95.7752 58.2668 95.8905C61.6728 96.0059 64.5004 94.1354 64.5825 91.7127Z" fill="#FFCB9A"/>
<path d="M64.2191 96.1592C66.2883 96.1592 67.9656 94.4819 67.9656 92.4127C67.9656 90.3436 66.2883 88.6663 64.2191 88.6663C62.15 88.6663 60.4727 90.3436 60.4727 92.4127C60.4727 94.4819 62.15 96.1592 64.2191 96.1592Z" fill="#FFCB9A"/>
<path d="M147.698 89.4662C149.874 88.0774 150.835 85.6935 149.845 84.1418C148.854 82.59 146.287 82.458 144.112 83.8468C141.936 85.2357 140.975 87.6195 141.965 89.1713C142.956 90.723 145.523 90.8551 147.698 89.4662Z" fill="#FFCB9A"/>
<path d="M143.09 89.2594C144.54 88.1245 144.425 85.5568 142.834 83.5244C141.242 81.4919 138.777 80.7643 137.328 81.8992C135.878 83.0341 135.993 85.6017 137.585 87.6342C139.176 89.6667 141.641 90.3943 143.09 89.2594Z" fill="#FFCB9A"/>
<path d="M142.511 92.2383C144.078 92.2383 145.349 90.9679 145.349 89.4009C145.349 87.8338 144.078 86.5635 142.511 86.5635C140.944 86.5635 139.674 87.8338 139.674 89.4009C139.674 90.9679 140.944 92.2383 142.511 92.2383Z" fill="#FFCB9A"/>
<path d="M98.3609 52.8422C99.1607 50.3879 98.3902 47.9359 96.6399 47.3654C94.8895 46.795 92.8222 48.3223 92.0224 50.7766C91.2226 53.2309 91.9931 55.6829 93.7434 56.2533C95.4938 56.8237 97.5611 55.2965 98.3609 52.8422Z" fill="#FFCB9A"/>
<path d="M94.6769 55.6274C95.0769 53.8305 93.3586 51.9191 90.839 51.3582C88.3193 50.7973 85.9524 51.7993 85.5524 53.5962C85.1524 55.3932 86.8707 57.3046 89.3904 57.8655C91.91 58.4264 94.2769 57.4244 94.6769 55.6274Z" fill="#FFCB9A"/>
<path d="M94.314 58.9334C95.881 58.9334 97.1514 57.663 97.1514 56.096C97.1514 54.5289 95.881 53.2585 94.314 53.2585C92.7469 53.2585 91.4766 54.5289 91.4766 56.096C91.4766 57.663 92.7469 58.9334 94.314 58.9334Z" fill="#FFCB9A"/>
</svg>
