<svg width="340" height="340" viewBox="0 0 340 340" fill="none" xmlns="http://www.w3.org/2000/svg">
<g clip-path="url(#clip0_767_4)">
<g clip-path="url(#clip1_767_4)">
<path d="M0.08 164.94C0.12 166.62 0.2 168.29 0.3 169.96V170C0.2 171.67 0.12 173.35 0.08 175.03C0.02 173.36 0 171.68 0 170C0 168.32 0.02 166.62 0.08 164.94Z" fill="#536A9C"/>
<path d="M340 170C340 263.89 263.89 340 170 340C76.11 340 0 263.89 0 170C0 164.94 0.22 159.93 0.65 154.98C8.26 241.84 81.17 309.96 170 309.96C258.83 309.96 331.74 241.84 339.35 154.98C339.78 159.93 340 164.94 340 170Z" fill="#2E4575"/>
<path d="M339.35 154.98C331.74 241.84 258.83 309.96 170 309.96C81.1704 309.96 8.26039 241.84 0.650391 154.98C8.26039 68.12 81.1704 0 170 0C258.83 0 331.74 68.12 339.35 154.98Z" fill="#536A9C"/>
<path d="M68.0109 171.03C67.9009 171 67.7709 170.98 67.6609 170.96C52.5609 168.85 45.0109 162.51 45.0109 151.92C45.0109 149.9 45.2909 147.71 45.8509 145.34C45.8809 145.19 45.9309 145.04 45.9809 144.9C50.3109 132.47 63.5909 126.26 85.8409 126.26C89.3409 126.26 93.0809 126.42 97.0409 126.73C99.1109 126.89 100.591 128.81 100.231 130.85L97.2309 147.96C96.9109 149.78 95.2309 151.05 93.3909 150.85C92.9809 150.8 92.5709 150.76 92.1709 150.72C88.1509 150.32 84.8009 150.12 82.1209 150.12C77.2709 150.12 74.5809 150.78 74.0409 152.09C73.9509 152.23 73.9109 152.38 73.9109 152.52V152.82C73.9109 154.82 76.4209 156.08 81.4409 156.63C97.2009 159.22 105.411 165.2 106.071 174.54C106.131 175.34 106.161 176.12 106.161 176.89C106.161 185.07 102.651 191.23 95.6409 195.36C88.6309 199.49 79.8609 201.63 69.3509 201.77C61.8409 201.77 53.6409 200.12 44.7409 196.83C42.9809 196.18 42.0309 194.25 42.6009 192.46L47.9109 175.7C48.5209 173.77 50.6409 172.74 52.5209 173.48C56.5309 175.05 60.1909 176 63.4809 176.34C65.1909 176.51 66.6609 176.6 67.8809 176.6C70.3909 176.6 71.8809 176.23 72.3709 175.49C72.4309 175.32 72.4709 175.13 72.5009 174.93V174.63C72.5009 172.95 71.0009 171.75 68.0209 171.04L68.0109 171.03Z" fill="#2E4575"/>
<path d="M137.362 174.54L143.352 195.74C143.902 197.69 142.692 199.71 140.712 200.14L119.472 204.77C117.382 205.23 115.372 203.73 115.212 201.59L110.112 132.77C110.012 131.44 110.672 130.16 111.822 129.48C123.392 122.7 133.642 119.04 142.572 118.5C143.342 118.44 144.112 118.41 144.882 118.41C153.402 118.41 161.142 121.19 168.102 126.75C173.802 131.28 176.652 137.65 176.652 145.86V146.37C176.652 153.04 174.032 159.37 168.782 165.35C163.422 171.48 153.152 174.54 137.952 174.54H137.352H137.362ZM131.062 146.38L132.312 151.41C132.692 152.95 134.072 154.06 135.672 154.06C135.672 154.06 135.692 154.06 135.702 154.06C145.282 154.06 150.462 152.07 151.262 148.07C151.432 147.27 151.522 146.53 151.522 145.85C151.522 142.8 149.882 140.88 146.602 140.08C145.692 139.88 144.722 139.78 143.692 139.78C140.762 139.78 137.262 140.61 133.192 142.26C131.562 142.92 130.652 144.67 131.072 146.38H131.062Z" fill="#2E4575"/>
<path d="M207.452 124.75L212.582 191.41C212.722 193.2 211.492 194.81 209.722 195.14L184.942 199.79C182.752 200.2 180.742 198.5 180.772 196.28L181.772 126.48C181.802 124.67 183.202 123.17 185.012 123.02L203.652 121.51C205.592 121.35 207.292 122.8 207.442 124.75H207.452Z" fill="#2E4575"/>
<path d="M250.32 187.05L250.45 187.8C250.76 189.61 249.63 191.35 247.85 191.81L228.63 196.72C226.51 197.26 224.42 195.76 224.25 193.58L219.86 136.69C219.72 134.88 220.98 133.26 222.77 132.95L243.15 129.42C244.45 129.19 245.77 129.72 246.56 130.77L259.64 148.11C261.66 150.79 265.94 149.38 265.97 146.02L266.1 132.45C266.12 130.66 267.48 129.16 269.26 128.98L293.9 126.47C296.19 126.24 298.08 128.22 297.74 130.49L288.11 194.57C287.88 196.1 286.67 197.31 285.13 197.53L269.27 199.83C267.92 200.03 266.58 199.43 265.83 198.29L256.71 184.51C254.61 181.33 249.66 183.29 250.31 187.05H250.32Z" fill="#2E4575"/>
<path d="M68.0109 160.98C67.9009 160.95 67.7709 160.93 67.6609 160.91C52.5609 158.8 45.0109 152.46 45.0109 141.87C45.0109 139.85 45.2909 137.66 45.8509 135.29C45.8809 135.14 45.9309 134.99 45.9809 134.85C50.3109 122.42 63.5909 116.21 85.8409 116.21C89.3409 116.21 93.0809 116.37 97.0409 116.68C99.1109 116.84 100.591 118.76 100.231 120.8L97.2309 137.91C96.9109 139.73 95.2309 141 93.3909 140.8C92.9809 140.75 92.5709 140.71 92.1709 140.67C88.1509 140.27 84.8009 140.07 82.1209 140.07C77.2709 140.07 74.5809 140.73 74.0409 142.04C73.9509 142.18 73.9109 142.33 73.9109 142.47V142.77C73.9109 144.77 76.4209 146.03 81.4409 146.58C97.2009 149.17 105.411 155.15 106.071 164.49C106.131 165.29 106.161 166.07 106.161 166.84C106.161 175.02 102.651 181.18 95.6409 185.31C88.6309 189.44 79.8609 191.58 69.3509 191.72C61.8409 191.72 53.6409 190.07 44.7409 186.78C42.9809 186.13 42.0309 184.2 42.6009 182.41L47.9109 165.65C48.5209 163.72 50.6409 162.69 52.5209 163.43C56.5309 165 60.1909 165.95 63.4809 166.29C65.1909 166.46 66.6609 166.55 67.8809 166.55C70.3909 166.55 71.8809 166.18 72.3709 165.44C72.4309 165.27 72.4709 165.08 72.5009 164.88V164.58C72.5009 162.9 71.0009 161.7 68.0209 160.99L68.0109 160.98Z" fill="white"/>
<path d="M137.362 164.49L143.352 185.69C143.902 187.64 142.692 189.66 140.712 190.09L119.472 194.72C117.382 195.18 115.372 193.68 115.212 191.54L110.112 122.72C110.012 121.39 110.672 120.11 111.822 119.43C123.392 112.65 133.642 108.99 142.572 108.45C143.342 108.39 144.112 108.36 144.882 108.36C153.402 108.36 161.142 111.14 168.102 116.7C173.802 121.23 176.652 127.6 176.652 135.81V136.32C176.652 142.99 174.032 149.32 168.782 155.3C163.422 161.43 153.152 164.49 137.952 164.49H137.352H137.362ZM131.062 136.33L132.312 141.36C132.692 142.9 134.072 144.01 135.672 144.01C135.672 144.01 135.692 144.01 135.702 144.01C145.282 144.01 150.462 142.02 151.262 138.02C151.432 137.22 151.522 136.48 151.522 135.8C151.522 132.75 149.882 130.83 146.602 130.03C145.692 129.83 144.722 129.73 143.692 129.73C140.762 129.73 137.262 130.56 133.192 132.21C131.562 132.87 130.652 134.62 131.072 136.33H131.062Z" fill="white"/>
<path d="M207.452 114.69L212.582 181.35C212.722 183.14 211.492 184.75 209.722 185.08L184.942 189.73C182.752 190.14 180.742 188.44 180.772 186.22L181.772 116.42C181.802 114.61 183.202 113.11 185.012 112.96L203.652 111.45C205.592 111.29 207.292 112.74 207.442 114.69H207.452Z" fill="white"/>
<path d="M250.32 177L250.45 177.75C250.76 179.56 249.63 181.3 247.85 181.76L228.63 186.67C226.51 187.21 224.42 185.71 224.25 183.53L219.86 126.64C219.72 124.83 220.98 123.21 222.77 122.9L243.15 119.37C244.45 119.14 245.77 119.67 246.56 120.72L259.64 138.06C261.66 140.74 265.94 139.33 265.97 135.97L266.1 122.4C266.12 120.61 267.48 119.11 269.26 118.93L293.9 116.42C296.19 116.19 298.08 118.17 297.74 120.44L288.11 184.52C287.88 186.05 286.67 187.26 285.13 187.48L269.27 189.78C267.92 189.98 266.58 189.38 265.83 188.24L256.71 174.46C254.61 171.28 249.66 173.24 250.31 177H250.32Z" fill="white"/>
<path d="M84.8409 71.8313C92.5591 67.88 96.182 59.5318 92.9329 53.1852C89.6837 46.8385 80.7929 44.8968 73.0747 48.8481C65.3565 52.7994 61.7336 61.1475 64.9827 67.4942C68.2318 73.8408 77.1227 75.7826 84.8409 71.8313Z" fill="#BBC8E5"/>
<path d="M145.489 62.6416C163.489 57.2723 174.582 41.1942 170.268 26.7301C165.953 12.266 147.864 4.89314 129.864 10.2624C111.865 15.6317 100.771 31.7099 105.086 46.174C109.401 60.6381 127.49 68.0109 145.489 62.6416Z" fill="#BBC8E5"/>
<path d="M280.05 93.53C282.187 93.53 283.92 91.7974 283.92 89.66C283.92 87.5227 282.187 85.79 280.05 85.79C277.912 85.79 276.18 87.5227 276.18 89.66C276.18 91.7974 277.912 93.53 280.05 93.53Z" fill="#BBC8E5"/>
<path d="M88.3002 253.77C90.0343 253.77 91.4402 252.364 91.4402 250.63C91.4402 248.896 90.0343 247.49 88.3002 247.49C86.566 247.49 85.1602 248.896 85.1602 250.63C85.1602 252.364 86.566 253.77 88.3002 253.77Z" fill="#BBC8E5"/>
</g>
</g>
<defs>
<clipPath id="clip0_767_4">
<rect width="340" height="340" fill="white"/>
</clipPath>
<clipPath id="clip1_767_4">
<rect width="340" height="340" fill="white"/>
</clipPath>
</defs>
</svg>
