<svg width="300" height="300" viewBox="0 0 300 300" fill="none" xmlns="http://www.w3.org/2000/svg">
<g clip-path="url(#clip0_779_182)">
<path d="M270.775 135.414C263.622 142.025 254.67 146.425 244.502 148.953C245.861 154.448 246.587 159.995 246.587 165.51C246.587 190.061 234.671 207.038 215.653 217.609C211.8 231.209 199.537 236.961 182.829 239.345C181.409 249.036 167.48 256.66 150.506 256.66C133.532 256.66 119.603 249.036 118.183 239.345C101.474 236.961 89.2214 231.209 85.3688 217.609C66.3509 207.048 54.4353 190.061 54.4353 165.51C54.4353 159.995 55.1609 154.458 56.5201 148.963C46.352 146.425 37.4 142.025 30.2363 135.414C14.836 121.179 11.5352 90.3454 29.6436 66.3172C35.6218 58.3555 43.9607 51.1307 54.977 45.5227C57.1741 44.3868 59.4632 43.3225 61.8647 42.3503C57.0719 46.106 53.209 49.9231 50.1739 53.7504C31.5648 77.2056 43.9096 100.456 58.288 107.343C62.7538 109.492 68.9057 110.833 75.8854 111.385C95.0975 87.4698 124.222 70.1138 150.506 70.1138C176.79 70.1138 205.914 87.4698 225.126 111.385C232.106 110.833 238.248 109.492 242.713 107.343C257.102 100.456 269.447 77.2056 250.828 53.7504C247.792 49.9231 243.94 46.106 239.137 42.3503C241.548 43.3328 243.838 44.3868 246.035 45.5227C257.051 51.1307 265.39 58.3555 271.368 66.3172C289.476 90.3454 286.176 121.179 270.775 135.414Z" fill="#C3CBDC" stroke="white" stroke-width="30" stroke-linecap="round" stroke-linejoin="round"/>
<path d="M150.495 256.65C168.414 256.65 182.941 248.164 182.941 237.697C182.941 227.23 168.414 218.745 150.495 218.745C132.575 218.745 118.049 227.23 118.049 237.697C118.049 248.164 132.575 256.65 150.495 256.65Z" fill="#AAB1C1"/>
<path d="M127.583 144.716C89.3735 155.164 51.7056 155.277 30.2249 135.424C14.8348 121.199 11.5238 90.3659 29.6322 66.3274C18.8714 88.3294 23.143 113.023 36.428 125.303C56.6517 144.01 91.2334 145.002 127.072 136.335L127.583 144.716Z" fill="#AAB1C1"/>
<path d="M127.072 136.324C91.2331 144.992 56.6514 144 36.4276 125.293C23.1325 113.013 18.8711 88.3192 29.6319 66.3172C35.6101 58.3555 43.9489 51.1307 54.9652 45.5227C57.1623 44.3868 59.4514 43.3225 61.8632 42.3401C57.0704 46.0958 53.2075 49.9231 50.1724 53.7402C31.5531 77.1954 43.9081 100.446 58.2864 107.333C72.4809 114.138 103.363 112.808 125.13 104.028L127.072 136.314V136.324Z" fill="#C3CBDC"/>
<path d="M173.416 144.716C211.626 155.164 249.293 155.277 270.774 135.424C286.164 121.199 289.475 90.3659 271.367 66.3274C282.128 88.3294 277.856 113.023 264.571 125.303C244.347 144.01 209.766 145.002 173.927 136.335L173.416 144.716Z" fill="#AAB1C1"/>
<path d="M173.928 136.324C209.766 144.992 244.348 144 264.572 125.293C277.867 113.013 282.128 88.3192 271.368 66.3172C265.389 58.3555 257.051 51.1307 246.034 45.5227C243.837 44.3868 241.548 43.3225 239.136 42.3401C243.929 46.0958 247.792 49.9231 250.827 53.7402C269.446 77.1954 257.091 100.446 242.713 107.333C228.519 114.138 197.636 112.808 175.869 104.028L173.928 136.314V136.324Z" fill="#C3CBDC"/>
<path d="M246.576 165.521C246.576 212.165 203.563 231.486 150.495 231.486C97.4266 231.486 54.4141 212.165 54.4141 165.521C54.4141 118.876 106.46 70.1138 150.495 70.1138C194.529 70.1138 246.576 118.876 246.576 165.521Z" fill="#DAE3F7"/>
<path d="M124.139 183.19C141.546 178.954 151.726 159.318 146.875 139.333C142.025 119.348 123.982 106.581 106.575 110.818C89.1678 115.054 78.9886 134.689 83.8389 154.675C88.6891 174.66 106.732 187.427 124.139 183.19Z" fill="white"/>
<path d="M184.514 184.115C202.428 184.115 216.949 169.572 216.949 151.634C216.949 133.695 202.428 119.153 184.514 119.153C166.6 119.153 152.078 133.695 152.078 151.634C152.078 169.572 166.6 184.115 184.514 184.115Z" fill="white"/>
<path d="M216.919 207.58C216.919 238.414 187.171 240.982 150.495 240.982C113.818 240.982 84.0801 238.414 84.0801 207.58C84.0801 206.342 84.1312 205.083 84.2231 203.845C86.4816 174.178 115.289 144.419 150.495 144.419C185.7 144.419 214.518 174.178 216.776 203.845C216.868 205.083 216.919 206.342 216.919 207.58Z" fill="#AAB1C1"/>
<path d="M216.776 203.845C214.517 231.322 185.699 233.676 150.494 233.676C115.289 233.676 86.4811 231.312 84.2227 203.845C86.4811 174.178 115.289 144.419 150.494 144.419C185.699 144.419 214.517 174.178 216.776 203.845Z" fill="#C3CBDC"/>
<path d="M103.64 135.751C108.59 135.751 112.602 131.733 112.602 126.777C112.602 121.82 108.59 117.802 103.64 117.802C98.6903 117.802 94.6777 121.82 94.6777 126.777C94.6777 131.733 98.6903 135.751 103.64 135.751Z" fill="black"/>
<path d="M203.562 159.769C208.512 159.769 212.524 155.751 212.524 150.795C212.524 145.838 208.512 141.82 203.562 141.82C198.612 141.82 194.6 145.838 194.6 150.795C194.6 155.751 198.612 159.769 203.562 159.769Z" fill="black"/>
<path d="M144.394 196.037C144.394 208.573 137.691 218.745 129.434 218.745C121.176 218.745 114.473 208.583 114.473 196.037C114.473 195.177 114.514 194.338 114.554 193.509C115.392 182.16 121.738 173.339 129.434 173.339C137.129 173.339 143.475 182.17 144.313 193.509C144.364 194.338 144.394 195.187 144.394 196.037Z" fill="#969CA9"/>
<path d="M144.313 193.509C143.475 204.858 137.129 213.669 129.434 213.669C121.739 213.669 115.393 204.848 114.555 193.509C115.393 182.16 121.739 173.339 129.434 173.339C137.129 173.339 143.475 182.17 144.313 193.509Z" fill="#AAB1C1"/>
<path d="M186.527 196.037C186.527 208.573 179.823 218.745 171.566 218.745C163.309 218.745 156.605 208.583 156.605 196.037C156.605 195.177 156.646 194.338 156.687 193.509C157.525 182.16 163.871 173.339 171.566 173.339C179.261 173.339 185.608 182.17 186.445 193.509C186.497 194.338 186.527 195.187 186.527 196.037Z" fill="#969CA9"/>
<path d="M186.446 193.509C185.608 204.858 179.262 213.669 171.567 213.669C163.872 213.669 157.525 204.848 156.688 193.509C157.525 182.16 163.872 173.339 171.567 173.339C179.262 173.339 185.608 182.17 186.446 193.509Z" fill="#AAB1C1"/>
</g>
<defs>
<clipPath id="clip0_779_182">
<rect width="297" height="245" fill="white" transform="translate(2 27)"/>
</clipPath>
</defs>
</svg>
