<svg width="300" height="300" viewBox="0 0 300 300" fill="none" xmlns="http://www.w3.org/2000/svg">
<rect width="300" height="300" fill="#DAE3F7"/>
<path d="M261.938 136.449C255.31 142.574 247.016 146.651 237.595 148.993C238.854 154.085 239.527 159.224 239.527 164.334C239.527 187.081 228.486 202.811 210.866 212.605C207.296 225.206 195.934 230.535 180.453 232.744C179.137 241.723 166.232 248.787 150.505 248.787C134.778 248.787 121.872 241.723 120.556 232.744C105.076 230.535 93.723 225.206 90.1534 212.605C72.5327 202.82 61.4926 187.081 61.4926 164.334C61.4926 159.224 62.1648 154.094 63.4241 149.002C54.0031 146.651 45.7088 142.574 39.0715 136.449C24.8026 123.26 21.7443 94.6916 38.5223 72.4287C44.0613 65.0519 51.7875 58.3579 61.9944 53.162C64.0301 52.1095 66.151 51.1234 68.3761 50.2227C63.9354 53.7024 60.3564 57.2391 57.5443 60.7852C40.3024 82.5171 51.7402 104.059 65.0622 110.441C69.1999 112.432 74.8998 113.674 81.3667 114.186C99.1673 92.0272 126.152 75.9464 150.505 75.9464C174.858 75.9464 201.842 92.0272 219.643 114.186C226.11 113.674 231.8 112.432 235.938 110.441C249.27 104.059 260.707 82.5171 243.456 60.7852C240.644 57.2391 237.074 53.7024 232.624 50.2227C234.859 51.1329 236.98 52.1095 239.015 53.162C249.222 58.3579 256.948 65.0519 262.487 72.4287C279.265 94.6916 276.207 123.26 261.938 136.449Z" fill="#C3CBDC" stroke="white" stroke-width="30" stroke-linecap="round" stroke-linejoin="round"/>
<path d="M150.496 248.777C167.099 248.777 180.558 240.916 180.558 231.217C180.558 221.519 167.099 213.657 150.496 213.657C133.893 213.657 120.434 221.519 120.434 231.217C120.434 240.916 133.893 248.777 150.496 248.777Z" fill="#AAB1C1"/>
<path d="M129.266 145.067C93.8633 154.748 58.9629 154.852 39.0603 136.458C24.8009 123.278 21.7332 94.7101 38.5112 72.4377C28.5409 92.8233 32.4987 115.702 44.8076 127.08C63.5456 144.413 95.5866 145.333 128.792 137.302L129.266 145.067Z" fill="#AAB1C1"/>
<path d="M128.792 137.292C95.586 145.323 63.545 144.404 44.807 127.071C32.4887 115.693 28.5403 92.8139 38.5106 72.4284C44.0496 65.0517 51.7758 58.3576 61.9827 53.1617C64.0184 52.1092 66.1393 51.1231 68.3738 50.2129C63.9332 53.6927 60.3541 57.2388 57.542 60.7754C40.2906 82.5074 51.7379 104.05 65.0599 110.431C78.2115 116.736 106.825 115.503 126.993 107.368L128.792 137.283V137.292Z" fill="#C3CBDC"/>
<path d="M171.732 145.067C207.135 154.748 242.035 154.852 261.938 136.458C276.197 123.278 279.265 94.7101 262.487 72.4377C272.457 92.8233 268.499 115.702 256.19 127.08C237.452 144.413 205.411 145.333 172.206 137.302L171.732 145.067Z" fill="#AAB1C1"/>
<path d="M172.207 137.292C205.413 145.323 237.454 144.404 256.192 127.071C268.51 115.693 272.458 92.8139 262.488 72.4284C256.949 65.0517 249.223 58.3576 239.016 53.1617C236.98 52.1092 234.859 51.1231 232.625 50.2129C237.065 53.6927 240.644 57.2388 243.457 60.7754C260.708 82.5074 249.261 104.05 235.939 110.431C222.787 116.736 194.174 115.503 174.006 107.368L172.207 137.283V137.292Z" fill="#C3CBDC"/>
<path d="M239.516 164.343C239.516 207.561 199.664 225.462 150.494 225.462C101.325 225.462 61.4727 207.561 61.4727 164.343C61.4727 121.126 109.695 75.946 150.494 75.946C191.294 75.946 239.516 121.126 239.516 164.343Z" fill="#DAE3F7"/>
<path d="M126.076 180.715C142.204 176.79 151.636 158.597 147.142 140.08C142.648 121.563 125.93 109.734 109.802 113.659C93.674 117.585 84.2427 135.777 88.7366 154.294C93.2305 172.811 109.948 184.64 126.076 180.715Z" fill="white"/>
<path d="M182.014 181.572C198.611 181.572 212.066 168.098 212.066 151.477C212.066 134.856 198.611 121.382 182.014 121.382C165.416 121.382 151.961 134.856 151.961 151.477C151.961 168.098 165.416 181.572 182.014 181.572Z" fill="white"/>
<path d="M212.038 203.313C212.038 231.881 184.476 234.261 150.494 234.261C116.512 234.261 88.959 231.881 88.959 203.313C88.959 202.166 89.0063 201 89.0915 199.852C91.1841 172.365 117.875 144.792 150.494 144.792C183.113 144.792 209.813 172.365 211.906 199.852C211.991 201 212.038 202.166 212.038 203.313Z" fill="#AAB1C1"/>
<path d="M211.906 199.852C209.814 225.311 183.113 227.491 150.494 227.491C117.876 227.491 91.1843 225.301 89.0918 199.852C91.1843 172.365 117.876 144.792 150.494 144.792C183.113 144.792 209.814 172.365 211.906 199.852Z" fill="#C3CBDC"/>
<path d="M107.083 136.761C111.669 136.761 115.387 133.038 115.387 128.446C115.387 123.854 111.669 120.131 107.083 120.131C102.497 120.131 98.7793 123.854 98.7793 128.446C98.7793 133.038 102.497 136.761 107.083 136.761Z" fill="black"/>
<path d="M199.663 159.015C204.249 159.015 207.967 155.292 207.967 150.699C207.967 146.107 204.249 142.384 199.663 142.384C195.077 142.384 191.359 146.107 191.359 150.699C191.359 155.292 195.077 159.015 199.663 159.015Z" fill="black"/>
<path d="M144.843 192.618C144.843 204.233 138.631 213.657 130.981 213.657C123.33 213.657 117.119 204.242 117.119 192.618C117.119 191.821 117.157 191.044 117.195 190.276C117.971 179.761 123.851 171.587 130.981 171.587C138.111 171.587 143.99 179.77 144.767 190.276C144.814 191.044 144.843 191.831 144.843 192.618Z" fill="#969CA9"/>
<path d="M144.767 190.276C143.991 200.791 138.111 208.955 130.981 208.955C123.852 208.955 117.972 200.781 117.195 190.276C117.972 179.761 123.852 171.587 130.981 171.587C138.111 171.587 143.991 179.77 144.767 190.276Z" fill="#AAB1C1"/>
<path d="M183.882 192.618C183.882 204.233 177.67 213.657 170.02 213.657C162.369 213.657 156.158 204.242 156.158 192.618C156.158 191.821 156.196 191.044 156.234 190.276C157.01 179.761 162.89 171.587 170.02 171.587C177.15 171.587 183.029 179.77 183.806 190.276C183.853 191.044 183.882 191.831 183.882 192.618Z" fill="#969CA9"/>
<path d="M183.806 190.276C183.03 200.791 177.15 208.955 170.02 208.955C162.891 208.955 157.011 200.781 156.234 190.276C157.011 179.761 162.891 171.587 170.02 171.587C177.15 171.587 183.03 179.77 183.806 190.276Z" fill="#AAB1C1"/>
</svg>
