<svg width="300" height="300" viewBox="0 0 300 300" fill="none" xmlns="http://www.w3.org/2000/svg">
<g clip-path="url(#clip0_476_19736)">
<rect width="300" height="300" fill="#E85EFF"/>
<g clip-path="url(#clip1_476_19736)">
<path d="M150.48 150.46V150.47H150.47L-1026.84 -1026.84L-605.4 -1333.03L150.48 150.46Z" fill="#E85EFF"/>
<path d="M150.48 150.46L-605.4 -1333.03L-109.98 -1494L150.48 150.46Z" fill="white"/>
<path d="M410.939 -1494L150.479 150.46L-109.98 -1494H410.939Z" fill="#E85EFF"/>
<path d="M906.371 -1333.03L150.49 150.46V150.47H150.48V150.46L410.94 -1494L906.371 -1333.03Z" fill="white"/>
<path d="M1327.8 -1026.84L150.49 150.46L906.37 -1333.03L1327.8 -1026.84Z" fill="#E85EFF"/>
<path d="M1633.99 -605.41L150.5 150.47H150.49V150.46L1327.8 -1026.84L1633.99 -605.41Z" fill="white"/>
<path d="M1794.96 -109.99L150.5 150.47L1633.99 -605.41L1794.96 -109.99Z" fill="#E85EFF"/>
<path d="M1794.96 -109.99V410.93L150.5 150.47L1794.96 -109.99Z" fill="white"/>
<path d="M1794.96 410.93L1633.99 906.36L150.49 150.48V150.47H150.5L1794.96 410.93Z" fill="#E85EFF"/>
<path d="M1633.99 906.36L1327.8 1327.79L150.49 150.49V150.48L1633.99 906.36Z" fill="white"/>
<path d="M1327.8 1327.79L906.37 1633.98L150.49 150.49L1327.8 1327.79Z" fill="#E85EFF"/>
<path d="M906.371 1633.98L410.94 1794.95L150.48 150.49V150.48H150.49V150.49L906.371 1633.98Z" fill="white"/>
<path d="M410.939 1794.95H-109.98L150.479 150.49L410.939 1794.95Z" fill="#E85EFF"/>
<path d="M150.48 150.49L-109.98 1794.95L-605.4 1633.98L150.48 150.49Z" fill="white"/>
<path d="M150.48 150.48V150.49L-605.4 1633.98L-1026.84 1327.79L150.47 150.48H150.48Z" fill="#E85EFF"/>
<path d="M150.46 150.49L-1026.84 1327.79L-1333.02 906.36L150.46 150.49Z" fill="white"/>
<path d="M150.48 150.47V150.48H150.47L150.46 150.49L-1333.02 906.36L-1494 410.93L150.47 150.47H150.48Z" fill="#E85EFF"/>
<path d="M150.47 150.47L-1494 410.93V-109.99L150.47 150.47Z" fill="white"/>
<path d="M150.47 150.47L-1494 -109.99L-1333.02 -605.41L150.47 150.47Z" fill="#E85EFF"/>
<path d="M150.47 150.47L-1333.02 -605.41L-1026.84 -1026.84L150.47 150.47Z" fill="white"/>
</g>
</g>
<defs>
<clipPath id="clip0_476_19736">
<rect width="300" height="300" fill="white"/>
</clipPath>
<clipPath id="clip1_476_19736">
<rect width="3288.96" height="3288.95" fill="white" transform="translate(-1494 -1494)"/>
</clipPath>
</defs>
</svg>
