<svg width="32" height="32" viewBox="0 0 32 32" fill="none" xmlns="http://www.w3.org/2000/svg">
<g clip-path="url(#clip0_823_11)">
<rect width="32" height="32" rx="16" fill="#CAD3E7"/>
<g clip-path="url(#clip1_823_11)">
<path d="M24.4678 29.9961H24.4667C22.1532 31.4378 19.4224 32.2712 16.4959 32.2712C13.5693 32.2712 11.0705 31.5078 8.82227 30.1768L9.55769 27.7992L12.6171 17.8983V17.896L21.4247 11.938C21.4539 12.0347 21.4795 12.1338 21.5017 12.234C21.511 12.2736 21.5203 12.3144 21.5285 12.3541C21.5366 12.3937 21.5448 12.4345 21.5518 12.4753C21.5529 12.4811 21.5541 12.4858 21.5553 12.4916C21.5576 12.4974 21.5576 12.5044 21.5588 12.5102C21.5669 12.5487 21.5739 12.5872 21.5786 12.6268C21.5809 12.6373 21.5821 12.6489 21.5832 12.6583L22.7814 19.8587L23.0378 21.3995L23.3956 23.5486L24.4678 29.9961Z" fill="#536A9C"/>
<path d="M30.6195 35.3446C30.6102 35.5031 30.5986 35.6604 30.5846 35.8155C29.5694 47.4389 17.1942 48.7361 11.8866 46.369C9.03811 45.0986 7.51714 43.2501 6.82367 41.2035C4.88779 35.4845 9.42505 28.2281 9.55675 27.7992C9.74323 28.1372 9.98449 28.4484 10.2537 28.692C10.5218 28.9355 10.8178 29.1104 11.1127 29.178C12.5218 29.4996 18.9192 28.1628 23.3935 23.5498H23.3946L24.1767 28.2537C24.1767 28.2631 24.1802 28.2712 24.1814 28.2805C24.8667 32.0859 26.0951 36.1371 26.6837 36.8726C27.2734 37.6091 29.1021 38.0532 30.6195 35.3446Z" fill="#C4B0CA"/>
<path d="M30.6195 35.3446C30.6102 35.5031 30.5986 35.6604 30.5846 35.8155C28.292 47.2384 16.0975 47.2862 11.087 44.8212C9.08473 43.8364 7.71761 42.5905 6.82367 41.2035C4.88779 35.4845 9.42505 28.2281 9.55675 27.7992C9.74323 28.1372 9.98449 28.4484 10.2537 28.692C10.5218 28.9355 10.8178 29.1104 11.1127 29.178C12.5218 29.4996 18.9192 28.1628 23.3935 23.5498H23.3946L24.1767 28.2537C24.1767 28.2631 24.1802 28.2712 24.1814 28.2805C24.8667 32.0859 26.0951 36.1371 26.6837 36.8726C27.2734 37.6091 29.1021 38.0532 30.6195 35.3446Z" fill="#DFD3E2"/>
<path d="M23.3951 23.5498H23.3963L24.1783 28.2537C24.1783 28.2631 24.1818 28.2712 24.183 28.2805C24.8683 32.0859 26.0967 36.1371 26.6853 36.8726C27.2751 37.6091 29.1037 38.0532 30.6212 35.3446C29.9032 47.4039 17.267 48.7676 11.8882 46.369C1.07944 41.5497 9.37891 28.3819 9.5584 27.7992" stroke="black" stroke-width="0.233099" stroke-linecap="round" stroke-linejoin="round"/>
<path d="M7.73237 34.1349C7.0727 32.4158 6.02375 31.9543 5.53774 32.4706C4.99113 33.0522 6.6065 34.3936 6.8093 34.4974C6.12282 34.5626 4.90721 35.1209 5.3198 35.9589C5.59602 36.5195 6.87223 36.0615 7.29647 35.2678" fill="#DFD3E2"/>
<path d="M7.73237 34.1349C7.0727 32.4158 6.02375 31.9543 5.53774 32.4706C4.99113 33.0522 6.6065 34.3936 6.8093 34.4974C6.12282 34.5626 4.90721 35.1209 5.3198 35.9589C5.59602 36.5195 6.87223 36.0615 7.29647 35.2678" stroke="black" stroke-width="0.233099" stroke-linecap="round" stroke-linejoin="round"/>
<path d="M15.9858 18.9974C19.0748 18.9974 21.579 16.523 21.579 13.4706C21.579 10.4183 19.0748 7.94385 15.9858 7.94385C12.8967 7.94385 10.3926 10.4183 10.3926 13.4706C10.3926 16.523 12.8967 18.9974 15.9858 18.9974Z" fill="#536A9C"/>
<path d="M17.0047 16.4392C18.7896 16.3428 20.1427 14.5259 20.0269 12.3811C19.9111 10.2362 18.3703 8.57561 16.5854 8.67197C14.8005 8.76832 13.4474 10.5852 13.5632 12.73C13.6789 14.8749 15.2198 16.5355 17.0047 16.4392Z" fill="#2E4575"/>
<path d="M13.1855 12.416C12.6435 13.6211 11.6179 14.4311 10.52 14.6572C10.5188 14.6526 10.5177 14.6491 10.5165 14.6444C10.5118 14.6258 10.5083 14.6083 10.5048 14.5896C10.5002 14.5687 10.4955 14.5477 10.492 14.5267C10.4874 14.5057 10.4839 14.4847 10.4804 14.4638C10.4734 14.4253 10.4664 14.3868 10.4606 14.3484C10.4547 14.3099 10.4489 14.2715 10.4431 14.233C10.4372 14.1934 10.4326 14.1549 10.4279 14.1153C10.4233 14.0768 10.4198 14.0384 10.4163 13.9987C10.4093 13.9358 10.4046 13.8717 10.4011 13.8076C10.3976 13.7563 10.3953 13.705 10.3941 13.6537C10.3918 13.5931 10.3906 13.5325 10.3906 13.4719C10.3906 13.388 10.393 13.3053 10.3965 13.2225C10.3976 13.1806 10.3999 13.1398 10.4034 13.0978C10.4058 13.057 10.4093 13.0162 10.4128 12.9754C10.4139 12.9661 10.4139 12.9568 10.4163 12.9475C10.4198 12.9043 10.4244 12.86 10.4303 12.8169C10.4372 12.7528 10.4454 12.6887 10.4559 12.6258C10.4594 12.6001 10.4641 12.5745 10.4687 12.5489C10.4745 12.5081 10.4827 12.4673 10.4897 12.4265C10.4932 12.4125 10.4955 12.3997 10.4979 12.3857C10.5095 12.3297 10.5223 12.2738 10.5351 12.2179C10.5608 12.1071 10.5899 11.9987 10.6226 11.8915C10.6354 11.8484 10.6494 11.8053 10.6634 11.7621C10.675 11.7272 10.6867 11.6922 10.6983 11.6584C10.71 11.6235 10.7228 11.5885 10.7356 11.5547C10.7613 11.4859 10.7881 11.4183 10.816 11.3507C10.872 11.2167 10.9337 11.085 11.0002 10.9556C11.0177 10.9242 11.034 10.8915 11.0515 10.8601C11.0689 10.8274 11.0853 10.796 11.1039 10.7645C11.1202 10.7353 11.1365 10.7074 11.1529 10.6794C11.2088 10.5827 11.2682 10.4883 11.3312 10.3962C11.3638 10.3484 11.3964 10.3018 11.4291 10.2563C11.4442 10.2354 11.4594 10.2132 11.4757 10.1922C11.513 10.1409 11.5515 10.0908 11.5911 10.0419H11.5922C11.6354 9.9871 11.6797 9.93349 11.7251 9.88104C11.7671 9.83209 11.809 9.78431 11.8522 9.73652C12.034 9.53955 12.2298 9.35541 12.4384 9.18641C12.464 9.16426 12.4897 9.14445 12.5165 9.12347C12.5689 9.08151 12.6225 9.04189 12.6773 9.0011C12.7286 8.9638 12.7822 8.9265 12.8358 8.89037C12.8894 8.85424 12.9431 8.81811 12.9978 8.78431C12.999 8.78315 13.0013 8.78198 13.0025 8.78198C13.6447 9.76682 13.7566 11.1468 13.1855 12.416Z" fill="#2E4575"/>
<path d="M21.5537 12.4928C21.0852 9.89261 18.7845 7.91943 16.0165 7.91943C12.9093 7.91943 10.3906 10.4043 10.3906 13.473C10.3906 16.0464 12.1645 18.2119 14.5712 18.8424" stroke="black" stroke-width="0.233099" stroke-linecap="round" stroke-linejoin="round"/>
<path d="M20.7773 10.4474C21.4743 9.8297 21.4219 9.21198 21.4778 8.52551C21.6037 6.97774 23.3449 6.9451 23.2342 8.39614C23.1433 9.58727 20.7773 10.4474 20.7773 10.4474Z" fill="#536A9C" stroke="black" stroke-width="0.233099" stroke-linecap="round" stroke-linejoin="round"/>
<path d="M20.8828 10.4894C21.6497 10.3006 22.9376 10.0092 22.8024 10.8635C22.6683 11.7178 21.5623 10.9579 20.8828 10.4894Z" fill="#536A9C" stroke="black" stroke-width="0.233099" stroke-linecap="round" stroke-linejoin="round"/>
<path d="M11.5742 15.7341C11.8062 16.0115 12.5392 17.2085 13.1115 17.2085C13.3702 17.2085 14.4134 16.1712 14.4576 15.6619" fill="#FF955F"/>
<path d="M11.5742 15.7341C11.8062 16.0115 12.5392 17.2085 13.1115 17.2085C13.3702 17.2085 14.4134 16.1712 14.4576 15.6619" stroke="black" stroke-width="0.233099" stroke-linecap="round" stroke-linejoin="round"/>
<path d="M12.0304 16.0919C12.0304 16.0919 12.0269 16.0931 12.0246 16.0943C11.9966 16.1059 11.9686 16.1176 11.9418 16.1304C10.584 16.7516 9.99776 17.8646 9.78681 18.6782C9.51641 17.8984 9.51758 17.1922 9.51758 16.7959C9.51758 16.3996 11.8672 14.2621 12.3765 14.205C12.887 14.1491 14.2448 14.9276 14.4581 15.663" fill="#FF955F"/>
<path d="M12.0304 16.0919C12.0304 16.0919 12.0269 16.0931 12.0246 16.0943C11.9966 16.1059 11.9686 16.1176 11.9418 16.1304C10.584 16.7516 9.99776 17.8646 9.78681 18.6782C9.51641 17.8984 9.51758 17.1922 9.51758 16.7959C9.51758 16.3996 11.8672 14.2621 12.3765 14.205C12.887 14.1491 14.2448 14.9276 14.4581 15.663" stroke="black" stroke-width="0.233099" stroke-linecap="round" stroke-linejoin="round"/>
<path d="M12.6159 15.8833C12.6159 15.8833 12.6146 15.8846 12.6133 15.8846" stroke="black" stroke-width="0.233099" stroke-linecap="round" stroke-linejoin="round"/>
<path d="M12.2051 14.93L12.3578 14.8274" stroke="black" stroke-width="0.233099" stroke-linecap="round" stroke-linejoin="round"/>
<path d="M13.9353 15.2471C15.4691 15.3543 14.6451 16.9149 13.8887 16.1305Z" fill="#FF945F"/>
<path d="M13.9353 15.2471C15.4691 15.3543 14.6451 16.9149 13.8887 16.1305" stroke="black" stroke-width="0.233099" stroke-linecap="round" stroke-linejoin="round"/>
<path d="M11.9414 16.1304C12.0649 16.0489 12.6442 15.9743 13.0241 15.6165C13.312 15.3449 13.6873 15.6374 14.1069 15.8507" stroke="black" stroke-width="0.233099" stroke-linecap="round" stroke-linejoin="round"/>
<path d="M19.6396 12.1722C19.8459 14.1139 18.713 15.5475 17.1431 15.7141C15.5732 15.8808 14.1641 14.7188 13.9567 12.7771C13.7492 10.8354 14.8541 9.12677 16.4229 8.95894C17.9916 8.79227 19.4322 10.2305 19.6385 12.171L19.6396 12.1722Z" fill="#FFCB9A" stroke="black" stroke-width="0.233099" stroke-linecap="round" stroke-linejoin="round"/>
<path d="M16.3867 11.3516C16.7395 11.3516 17.0254 11.0656 17.0254 10.7129C17.0254 10.3602 16.7395 10.0742 16.3867 10.0742C16.034 10.0742 15.748 10.3602 15.748 10.7129C15.748 11.0656 16.034 11.3516 16.3867 11.3516Z" fill="black" stroke="black" stroke-width="0.233099" stroke-linecap="round" stroke-linejoin="round"/>
<path opacity="0.51" d="M18.3441 12.1427C18.7155 11.9586 18.7701 11.3119 18.466 10.6983C18.1619 10.0846 17.6143 9.73634 17.2428 9.9204C16.8714 10.1045 16.8168 10.7511 17.1209 11.3648C17.425 11.9785 17.9726 12.3267 18.3441 12.1427Z" fill="white"/>
<path opacity="0.51" d="M18.7856 13.5611C18.8233 13.2525 18.6564 12.9783 18.413 12.9486C18.1695 12.9189 17.9417 13.145 17.9041 13.4537C17.8664 13.7623 18.0333 14.0365 18.2767 14.0662C18.5202 14.0959 18.748 13.8697 18.7856 13.5611Z" fill="white"/>
<path d="M12.9114 12.1221C12.3077 13.6279 11.0944 14.3097 10.0956 13.91C9.09673 13.5102 8.69114 12.1781 9.29487 10.6722C9.89859 9.16642 11.1981 8.27016 12.1969 8.67109C13.1958 9.07201 13.5163 10.6175 12.9126 12.1221H12.9114Z" fill="#FFCB9A" stroke="black" stroke-width="0.233099" stroke-linecap="round" stroke-linejoin="round"/>
<path d="M10.3926 12.9776C10.7453 12.9776 11.0313 12.6916 11.0313 12.3389C11.0313 11.9861 10.7453 11.7002 10.3926 11.7002C10.0399 11.7002 9.75391 11.9861 9.75391 12.3389C9.75391 12.6916 10.0399 12.9776 10.3926 12.9776Z" fill="black" stroke="black" stroke-width="0.233099" stroke-linecap="round" stroke-linejoin="round"/>
<path opacity="0.51" d="M11.3214 10.0132C11.6375 9.85659 11.8003 9.5412 11.6851 9.30876C11.57 9.07633 11.2204 9.01487 10.9043 9.17149C10.5882 9.32811 10.4254 9.6435 10.5406 9.87593C10.6558 10.1084 11.0053 10.1698 11.3214 10.0132Z" fill="white"/>
<path d="M15.3634 7.3214L14.459 5.76896C14.459 5.76896 17.2597 4.55685 17.3855 4.5382C17.5114 4.51955 19.8086 6.82023 19.8086 6.82023L17.3855 5.7235L15.3634 7.32023V7.3214Z" fill="black" stroke="black" stroke-width="0.116549" stroke-linecap="round" stroke-linejoin="round"/>
<path d="M12.6433 6.89014L13.0151 5.28875C13.0151 5.28875 10.2517 4.97174 10.1375 4.98922C10.0233 5.00671 8.63867 7.63373 8.63867 7.63373L10.4545 6.02884L12.6433 6.89131V6.89014Z" fill="black" stroke="black" stroke-width="0.116549" stroke-linecap="round" stroke-linejoin="round"/>
<path d="M13.5947 23.0847C12.3651 22.995 11.5038 24.2292 12.0586 24.9495C12.5504 25.5894 13.4304 24.9891 13.5947 24.5311C13.7229 25.0626 14.0225 25.3399 14.4584 25.3015C14.8943 25.263 15.1868 24.6593 14.8022 24.3481" fill="#536A9C"/>
<path d="M13.5947 23.0847C12.3651 22.995 11.5038 24.2292 12.0586 24.9495C12.5504 25.5894 13.4304 24.9891 13.5947 24.5311C13.7229 25.0626 14.0225 25.3399 14.4584 25.3015C14.8943 25.263 15.1868 24.6593 14.8022 24.3481" stroke="black" stroke-width="0.233099" stroke-linecap="round" stroke-linejoin="round"/>
<path d="M14.6002 33.2714C14.2727 35.5639 15.4067 46.7037 31.6968 42.1734C28.6129 40.9182 28.395 34.424 26.3215 31.2038C24.2481 27.9835 21.7924 27.656 21.7924 27.656" fill="#DFD3E2"/>
<path d="M14.6002 33.2714C14.2727 35.5639 15.4067 46.7037 31.6968 42.1734C28.6129 40.9182 28.395 34.424 26.3215 31.2038C24.2481 27.9835 21.7924 27.656 21.7924 27.656" stroke="black" stroke-width="0.233099" stroke-linecap="round" stroke-linejoin="round"/>
<path d="M26.2045 31.72C26.9597 31.4555 27.8187 32.1221 27.5075 32.6536C27.2779 33.044 26.3945 32.8867 26.166 32.558" fill="#DFD3E2"/>
<path d="M26.2045 31.72C26.9597 31.4555 27.8187 32.1221 27.5075 32.6536C27.2779 33.044 26.3945 32.8867 26.166 32.558" stroke="black" stroke-width="0.233099" stroke-linecap="round" stroke-linejoin="round"/>
<path d="M9.55664 27.7992L12.6161 17.896" stroke="black" stroke-width="0.233099" stroke-linecap="round" stroke-linejoin="round"/>
<path d="M21.5586 12.5103L23.3954 23.5486" stroke="black" stroke-width="0.233099" stroke-linecap="round" stroke-linejoin="round"/>
<path d="M21.5547 19.6208C22.6199 19.6208 23.6712 20.157 23.592 20.7642C23.4731 21.6849 22.2633 21.5999 21.5547 20.7642" fill="#536A9C"/>
<path d="M21.5547 19.6208C22.6199 19.6208 23.6712 20.157 23.592 20.7642C23.4731 21.6849 22.2633 21.5999 21.5547 20.7642" stroke="black" stroke-width="0.233099" stroke-linecap="round" stroke-linejoin="round"/>
</g>
</g>
<defs>
<clipPath id="clip0_823_11">
<rect width="32" height="32" rx="16" fill="white"/>
</clipPath>
<clipPath id="clip1_823_11">
<rect width="26.7795" height="49.312" fill="white" transform="translate(5.11914 4.47998)"/>
</clipPath>
</defs>
</svg>
