<svg width="300" height="300" viewBox="0 0 300 300" fill="none" xmlns="http://www.w3.org/2000/svg">
<g clip-path="url(#clip0_555_22462)">
<rect width="300" height="300" fill="white"/>
<g clip-path="url(#clip1_555_22462)">
<path d="M358.733 20.053C366.374 49.7868 388.887 37.8913 407.575 55.7296C431.098 78.1823 442.824 124.536 405.448 157.656C375.113 184.533 320.497 177.611 302.239 157.656C283.98 137.7 293.319 113.489 281.723 94.5324C274.381 82.537 245.325 62.9508 255.094 -2.45966C266.76 -80.5148 345.568 -77.2088 362.099 -52.0594C384.662 -17.7411 352.54 -4.02775 358.733 20.053Z" fill="#536A9C"/>
<path d="M278.886 343.28C316.512 308.692 329.087 275.832 319.209 234.013C309.331 192.194 257.421 166.395 226.458 201.982C205.242 226.372 231.472 261.03 210.336 282.584C179.692 313.836 122.349 257.015 106.358 321.796C90.6964 385.209 245.325 374.153 278.886 343.29L278.886 343.28Z" fill="#536A9C"/>
<path d="M298.522 176.023C294.976 182.386 251.717 188.598 246.483 161.931C241.249 135.263 271.064 125.325 286.227 145.98C301.389 166.635 302.178 169.461 298.512 176.023L298.522 176.023Z" fill="#536A9C"/>
<path d="M76.8822 -42.4011C57.2252 -30.0861 84.3834 -2.11009 71.5684 53.802C61.5202 97.6886 101.923 112.301 131.858 99.4065C172.47 81.9178 189.5 136.152 229.943 133.455C258.06 131.577 283.361 109.404 245.874 51.305C217.997 8.08752 238.973 -14.0356 238.683 -27.7189C237.744 -72.3847 102.802 -58.6414 76.8722 -42.4011L76.8822 -42.4011Z" fill="#536A9C"/>
<path d="M230.851 158.235C227.845 143.852 217.767 135.203 199.968 134.913C182.168 134.624 170.822 146.359 157.567 136.901C144.313 127.442 130.689 101.694 98.8858 112.291C67.083 122.888 60.6506 158.854 80.3376 190.646C100.025 222.437 95.7895 231.366 96.6185 257.644C97.2178 276.571 124.706 290.634 167.106 278.179C209.506 265.724 207.129 246.398 208.358 214.557C209.636 181.537 236.465 185.152 230.841 158.215L230.851 158.235Z" fill="#536A9C"/>
<path d="M5.9844 -39.6544C-3.71425 -12.877 21.666 58.0368 48.4547 58.2066C71.5677 58.3564 75.2334 24.0481 61.3796 -21.1969C47.5258 -66.4419 13.5955 -60.6889 5.9844 -39.6644L5.9844 -39.6544Z" fill="#536A9C"/>
<path d="M82.0452 351.96C102.891 326.441 109.443 289.096 94.3408 284.521C79.2385 279.947 71.5075 295.938 59.5715 314.375C47.6354 332.813 26.2005 324.623 21.6359 337.207C18.3097 346.386 64.8353 373.034 82.0452 351.96Z" fill="#536A9C"/>
<path d="M-53.1858 344.359C-68.4879 324.353 -48.0218 314.066 -58.0002 291.353C-66.1906 272.716 -122.025 244.88 -110.669 210.122C-99.3119 175.364 -53.1858 175.005 -18.7561 196.349C15.6736 217.693 30.2166 192.613 54.3384 196.349C80.7075 200.434 100.345 226.981 81.4067 271.048C62.4689 315.114 -6.72018 346.087 -14.2913 347.465C-21.8625 348.843 -48.711 350.222 -53.1858 344.369L-53.1858 344.359Z" fill="#536A9C"/>
<path d="M52.3805 75.4157C68.6914 80.4695 77.1715 103.232 63.6173 140.916C50.0632 178.6 26.1312 194.141 3.87724 172.318C-18.3767 150.494 0.431273 115.787 3.87724 108.186C8.07233 98.9271 28.908 68.1345 52.3805 75.4057L52.3805 75.4157Z" fill="#536A9C"/>
<path d="M-72.6624 -5.97539C-59.5578 8.11748 -41.3091 -14.7247 -13.9611 3.14354C-2.07506 10.9141 32.4146 49.8068 18.1213 77.1536C6.57482 99.2467 -13.7015 93.0443 -19.5346 113.09C-25.3678 133.136 -11.1345 142.105 -15.789 157.666C-23.0306 181.866 -63.8128 181.866 -112.186 167.763C-153.528 155.718 -161.618 153.351 -161.618 123.817C-161.618 94.2828 -146.666 94.083 -153.598 74.317C-160.53 54.551 -197.716 26.4752 -164.175 -2.68938C-130.635 -31.8539 -96.7243 -31.8539 -72.6624 -5.97539Z" fill="#536A9C"/>
</g>
</g>
<defs>
<clipPath id="clip0_555_22462">
<rect width="300" height="300" fill="white"/>
</clipPath>
<clipPath id="clip1_555_22462">
<rect width="436" height="641" fill="white" transform="translate(463 -68) rotate(90)"/>
</clipPath>
</defs>
</svg>
