<svg width="300" height="300" viewBox="0 0 300 300" fill="none" xmlns="http://www.w3.org/2000/svg">
<rect width="300" height="300" fill="#DAE3F7"/>
<path d="M263.207 130.861C262.558 130.011 261.89 129.178 261.186 128.355C246.613 111.422 223.085 106.638 203.555 114.981C201.039 105.284 195.413 96.4842 187.217 90.0625L124.656 40.9758C112.444 31.389 96.3345 28.5258 81.57 33.31C66.8056 38.0943 55.4441 49.8582 51.1721 64.7782L29.2633 141.226C24.5157 157.811 29.2633 175.548 41.6676 187.522C54.072 199.506 71.9558 203.65 88.3668 198.335L172.837 170.983C173.276 170.846 173.697 170.7 174.127 170.535C174.968 174.981 176.432 179.326 178.508 183.461L128.553 226.418C123.476 230.782 122.881 238.466 127.254 243.561C127.986 244.403 128.809 245.126 129.687 245.72C133.273 248.144 137.902 248.455 141.799 246.562L156.655 263.833C161.018 268.91 168.693 269.504 173.797 265.132C178.884 260.741 179.451 253.075 175.087 247.989L160.497 231.02L163.689 228.275L178.289 245.235C182.652 250.321 190.327 250.907 195.423 246.534C200.518 242.153 201.085 234.478 196.722 229.391L182.122 212.422L194.361 201.903C212.675 214.837 238.161 214.243 255.898 198.975C276.014 181.668 278.996 151.764 263.226 130.87L263.207 130.861ZM240.036 180.533C230.092 189.077 215.429 188.684 205.961 180.085C198.88 169.446 200.683 154.874 210.626 146.339C220.579 137.777 235.243 138.18 244.711 146.769C251.791 157.417 249.989 171.98 240.036 180.533Z" fill="#969CA9" stroke="white" stroke-width="30" stroke-miterlimit="10"/>
<path d="M240.036 180.543C230.092 189.087 215.429 188.693 205.961 180.094C198.88 169.456 200.682 154.883 210.626 146.348C220.579 137.786 235.243 138.189 244.71 146.778C251.791 157.426 249.989 171.99 240.036 180.543Z" fill="white" stroke="white" stroke-width="30" stroke-miterlimit="10"/>
<path d="M261.194 128.364C261.899 129.178 262.567 130.02 263.207 130.861C244.921 112.136 214.889 110.617 194.773 127.916C177.026 143.183 172.617 168.275 182.661 188.318L132.706 231.285C128.461 234.935 127.354 240.899 129.669 245.72C128.79 245.125 127.967 244.403 127.235 243.561C122.853 238.466 123.439 230.791 128.525 226.427L178.481 183.461C168.437 163.418 172.846 138.317 190.592 123.058C211.522 105.055 243.183 107.434 261.185 128.364H261.194Z" fill="#C3CBDC"/>
<path d="M194.782 127.916C177.035 143.183 172.626 168.275 182.67 188.318L132.715 231.285C128.47 234.935 127.363 240.899 129.678 245.72C133.264 248.135 137.901 248.455 141.789 246.562L156.645 263.832C161.018 268.909 168.693 269.504 173.779 265.122C178.865 260.741 179.441 253.066 175.069 247.989L160.469 231.02L163.671 228.266L178.27 245.235C182.643 250.312 190.318 250.907 195.404 246.525C200.49 242.143 201.066 234.468 196.694 229.391L182.094 212.422L194.334 201.893C212.657 214.837 238.133 214.234 255.88 198.966C275.995 181.668 278.978 151.755 263.207 130.861C244.921 112.136 214.889 110.617 194.773 127.916H194.782ZM244.71 146.769C251.791 157.417 249.988 171.971 240.036 180.533C230.092 189.086 215.428 188.684 205.97 180.094C205.183 179.39 204.433 178.621 203.719 177.789C194.462 167.022 195.688 150.739 206.454 141.482C217.23 132.215 233.513 133.441 242.771 144.208C243.484 145.031 244.134 145.891 244.71 146.778V146.769Z" fill="#DAE3F7"/>
<path d="M242.77 144.208C243.483 145.031 244.133 145.891 244.709 146.778C235.241 138.189 220.577 137.786 210.625 146.348C200.681 154.901 198.879 169.455 205.959 180.103C205.173 179.399 204.423 178.631 203.709 177.798C194.452 167.031 195.677 150.748 206.444 141.491C217.22 132.224 233.503 133.45 242.761 144.217L242.77 144.208Z" fill="#C3CBDC"/>
<path d="M173.037 147.766L74.5802 179.655C61.0781 184.037 48.0883 173.929 47.6035 160.911C51.5553 170.123 62.0935 175.987 72.961 172.465L171.427 140.576C180.941 137.493 186.027 128.739 185.679 120.049C190.162 130.55 185.222 143.814 173.037 147.766Z" fill="#969CA9"/>
<path d="M171.427 140.576L72.9607 172.465C62.0932 175.987 51.555 170.123 47.6032 160.911C47.5209 158.789 47.7679 156.593 48.4082 154.361L73.9304 65.2534C77.9645 51.1842 94.961 45.6772 106.478 54.7152L179.413 111.934C182.322 114.221 184.389 117.02 185.679 120.048C186.027 128.739 180.94 137.493 171.427 140.576Z" fill="#C3CBDC"/>
<path d="M88.3563 54.2671C95.7294 51.8796 104.209 52.9316 111.061 58.3013L173.631 107.388C189.082 119.509 184.737 143.97 166.048 150.026L81.5778 177.386C62.889 183.442 45.0235 166.171 50.439 147.29L72.3386 70.8337C74.7353 62.4635 80.9924 56.6364 88.3654 54.2488M81.5778 33.3006C66.8134 38.0848 55.4428 49.8488 51.1708 64.7687L29.2711 141.225C24.5235 157.801 29.2711 175.539 41.6755 187.522C54.0706 199.506 71.9636 203.649 88.3746 198.335L172.845 170.974C189.247 165.659 201.312 151.809 204.331 134.84C207.35 117.862 200.8 100.71 187.234 90.0622L124.645 40.9755C112.433 31.3978 96.3331 28.5346 81.5687 33.3189L81.5778 33.3006Z" fill="#DAE3F7"/>
<path d="M110.465 122.765C105.846 124.266 100.842 121.988 98.9301 117.533L87.3583 90.5563C84.5316 83.9699 87.9803 76.3773 94.7954 74.1727C101.638 71.959 108.901 76.1212 110.438 83.1466L116.741 111.816C117.784 116.545 115.058 121.284 110.456 122.775L110.465 122.765Z" fill="#DAE3F7"/>
<path d="M115.827 150.309C122.036 150.309 127.069 145.276 127.069 139.067C127.069 132.858 122.036 127.824 115.827 127.824C109.617 127.824 104.584 132.858 104.584 139.067C104.584 145.276 109.617 150.309 115.827 150.309Z" fill="#DAE3F7"/>
</svg>
