<svg width="300" height="300" viewBox="0 0 300 300" fill="none" xmlns="http://www.w3.org/2000/svg">
<g clip-path="url(#clip0_797_476)">
<path d="M281.12 180.24C283.33 196.1 281.72 212.77 274.06 227.63C252.84 268.82 215.11 268.72 178.29 249.75C150.51 235.44 131.16 214.48 132.45 187.37C132.87 178.54 135.47 169.05 140.68 158.93C144.11 152.27 148.55 146.37 153.68 141.24C151.6 140.46 149.58 139.53 147.62 138.48C143.56 136.29 138.48 137.93 136.49 142.09C130.84 153.8 120.82 163.17 107.77 167.4C81.6902 175.85 53.3702 160.59 44.5402 133.33C44.1602 132.15 43.8202 130.98 43.5202 129.8C42.3102 125 41.7902 120.16 41.9002 115.43C41.9102 115.39 41.9102 115.35 41.9002 115.31C41.7802 109.88 42.3402 104.82 43.5502 100.09C33.8302 101.88 21.9602 97.2899 16.9902 86.8899C25.2402 77.5199 34.0102 77.0899 40.7302 79.0899C40.9602 74.5399 42.8602 69.9399 46.6902 66.7099C52.5902 69.6899 55.1802 73.7399 56.0502 77.6799C68.0502 64.7599 87.2402 55.1099 111.87 47.1299C161.67 30.9899 200.65 34.1999 215.64 73.7599C215.95 74.5499 216.25 75.3599 216.52 76.1899C216.68 76.6099 216.81 77.0199 216.96 77.4599C221.04 90.0599 220.25 103.02 215.63 114.15C220.92 113.77 225.97 113.86 230.6 114.41C226.47 104.8 219.65 93.5499 227.7 89.9499C238.12 85.2899 278.37 100.01 282.22 110.87C285.32 119.58 267.69 126.28 258.01 128.46C268.9 140.38 278.24 159.6 281.11 180.24H281.12Z" fill="#FFCB9A" stroke="white" stroke-width="30" stroke-linecap="round" stroke-linejoin="round"/>
<path d="M274.061 227.63C252.841 268.82 215.121 268.71 178.291 249.74C150.511 235.43 131.171 214.47 132.451 187.37C136.601 208.55 154.001 225.31 177.401 237.36C214.231 256.33 251.951 256.45 273.171 215.25C278.851 204.23 281.191 192.19 281.121 180.24C283.331 196.09 281.711 212.77 274.061 227.63Z" fill="#FFCB9A"/>
<path d="M273.171 215.25C251.941 256.46 214.231 256.33 177.401 237.36C154.011 225.31 136.601 208.55 132.451 187.37C132.871 178.54 135.471 169.05 140.681 158.93C161.911 117.72 221.601 106.2 245.801 118.67C261.291 126.65 277.201 152.12 281.121 180.25C281.191 192.19 278.841 204.23 273.171 215.26V215.25Z" fill="#FDE9D6"/>
<path d="M233.121 122.23C231.761 112.08 217.281 94.5999 227.701 89.9399C238.121 85.2799 278.371 99.9999 282.221 110.86C286.081 121.72 257.741 129.47 252.731 129.18C247.721 128.89 233.111 122.23 233.111 122.23H233.121Z" fill="#FDE9D6"/>
<path d="M175.2 156.39L178.3 150.63L182.61 153.13L179.41 157.95C180.19 158.3 181.01 158.69 181.86 159.13C182.8 159.61 183.77 160.15 184.78 160.73L180.9 169.3C180.41 168.96 179.95 168.63 179.52 168.33C178.07 167.32 176.86 166.57 175.9 166.07C174.55 165.38 173.69 165.19 173.31 165.51C173.26 165.54 173.21 165.57 173.18 165.62L173.12 165.73C172.77 166.41 173.36 167.29 174.89 168.37C179.28 171.83 180.49 175.47 178.53 179.28C178.31 179.71 178.05 180.14 177.75 180.56L177.54 180.85C175.3 183.95 171.38 184.37 165.79 182.1L164.51 185.82L160.34 184.18L162.7 180.64C161.12 179.83 159.45 178.84 157.67 177.67L160.23 167.65C162.32 169.48 164.03 170.85 165.33 171.76C165.95 172.18 166.48 172.51 166.93 172.74C167.65 173.11 168.15 173.22 168.42 173.07C168.48 173.02 168.53 172.97 168.56 172.9C168.6 172.85 168.63 172.81 168.65 172.77C168.94 172.21 168.65 171.52 167.76 170.72C163.52 166.78 162.21 163.25 163.82 160.12C163.96 159.85 164.12 159.58 164.31 159.32C164.61 158.89 164.95 158.47 165.33 158.04C167.39 155.65 170.68 155.09 175.2 156.36V156.39Z" fill="#FFCB9A"/>
<path d="M191.55 181.51C186.36 177.87 184.77 174.11 186.78 170.21C187.17 169.45 187.71 168.67 188.39 167.89C192.32 164.09 198.38 164.3 206.59 168.52C208.28 169.39 210.07 170.44 211.95 171.66L205.84 179.71C205.29 179.34 204.78 178.99 204.29 178.67C202.89 177.76 201.7 177.06 200.72 176.55C198.94 175.64 197.83 175.37 197.39 175.75C197.33 175.79 197.29 175.83 197.26 175.88L197.2 175.99C196.82 176.72 197.5 177.66 199.24 178.81C204.53 182.74 206.41 186.48 204.88 190.03C204.75 190.33 204.61 190.62 204.47 190.91C202.93 193.91 200.48 195.5 197.13 195.69C193.78 195.88 190.16 195.01 186.28 193.08C183.21 191.5 180.21 189 177.27 185.58L184.47 178.34C185.98 180.26 187.47 181.69 188.94 182.64C189.53 183.02 190.06 183.33 190.51 183.56C191.43 184.03 192.05 184.18 192.36 184C192.41 183.95 192.46 183.89 192.51 183.82L192.57 183.71C192.89 183.08 192.55 182.35 191.55 181.5V181.51Z" fill="#FFCB9A"/>
<path d="M214.621 207.17C210.921 205.26 208.411 202.36 207.091 198.45C205.771 194.54 206.041 190.78 207.911 187.16C209.781 183.52 212.691 181.11 216.641 179.92C220.591 178.73 224.411 179.08 228.111 180.99C231.801 182.89 234.301 185.79 235.621 189.7C236.941 193.61 236.661 197.38 234.791 201.01C232.921 204.63 230.021 207.04 226.071 208.24C222.121 209.43 218.311 209.08 214.621 207.18V207.17ZM223.171 197.03C224.611 196.59 225.671 195.73 226.331 194.44C226.991 193.17 227.071 191.81 226.601 190.38C226.121 188.95 225.191 187.88 223.801 187.16C222.411 186.44 220.991 186.31 219.551 186.75C218.111 187.19 217.061 188.05 216.401 189.32C215.741 190.59 215.651 191.96 216.131 193.39C216.611 194.82 217.541 195.89 218.931 196.61C220.321 197.33 221.741 197.46 223.181 197.02L223.171 197.03Z" fill="#FFCB9A"/>
<path d="M246.16 186.89L256.34 192.85L245.91 209.05L254.06 212.85L245.89 222.94L230.66 213.71L246.16 186.89Z" fill="#FFCB9A"/>
<path d="M216.959 77.44C225.799 104.71 211.819 133.67 185.739 142.12C172.679 146.35 159.079 144.64 147.629 138.47C143.569 136.28 138.499 137.92 136.499 142.08C130.849 153.79 120.829 163.15 107.779 167.39C81.6993 175.84 53.3893 160.59 44.5493 133.32C44.1693 132.14 43.8293 130.97 43.5293 129.79C53.5193 154.94 80.5493 168.61 105.549 160.51C118.609 156.28 128.619 146.91 134.269 135.2C136.269 131.05 141.339 129.41 145.399 131.59C156.839 137.76 170.449 139.47 183.509 135.24C208.579 127.11 222.469 100.04 215.649 73.74C215.959 74.53 216.249 75.34 216.529 76.17C216.689 76.58 216.819 77.01 216.959 77.44Z" fill="#FFCB9A"/>
<path d="M215.64 73.7399C222.46 100.04 208.57 127.11 183.5 135.24C170.44 139.47 156.84 137.76 145.39 131.59C141.33 129.4 136.26 131.04 134.26 135.2C128.61 146.91 118.59 156.27 105.54 160.51C80.5399 168.61 53.5099 154.94 43.5199 129.79C42.3199 124.99 41.7899 120.15 41.8999 115.42C41.8999 115.38 41.8999 115.34 41.8999 115.3C41.1099 81.0399 67.7699 61.4199 111.86 47.1299C161.66 30.9899 200.64 34.1999 215.63 73.7599L215.64 73.7399Z" fill="#FDE9D6"/>
<path d="M53.5198 94.9498C44.3098 104.57 23.9198 101.39 17.0098 86.8698C32.3698 69.4398 49.4898 82.9298 51.9698 85.5598C53.4098 89.8298 53.5198 94.9498 53.5198 94.9498Z" fill="#FDE9D6"/>
<path d="M47.7095 93.5199C39.3595 88.8699 37.8695 74.14 46.6895 66.7C61.5795 74.2 55.3195 88.5399 53.9395 90.7399C51.2295 92.5199 47.6995 93.5199 47.6995 93.5199H47.7095Z" fill="#FDE9D6"/>
<path d="M101.292 153.267C116.302 148.401 124.284 131.544 119.121 115.615C113.958 99.6853 97.6038 90.7163 82.5939 95.5817C67.584 100.447 59.6018 117.305 64.7653 133.234C69.9287 149.163 86.2825 158.132 101.292 153.267Z" fill="white"/>
<path d="M182.708 126.876C197.718 122.011 205.7 105.154 200.537 89.2243C195.374 73.2949 179.02 64.3259 164.01 69.1913C149 74.0568 141.018 90.9142 146.181 106.844C151.345 122.773 167.698 131.742 182.708 126.876Z" fill="white"/>
<path d="M80.9801 122.12C84.5147 122.12 87.3801 119.254 87.3801 115.72C87.3801 112.185 84.5147 109.32 80.9801 109.32C77.4455 109.32 74.5801 112.185 74.5801 115.72C74.5801 119.254 77.4455 122.12 80.9801 122.12Z" fill="black"/>
<path d="M185.769 112.85C189.304 112.85 192.169 109.984 192.169 106.45C192.169 102.915 189.304 100.05 185.769 100.05C182.235 100.05 179.369 102.915 179.369 106.45C179.369 109.984 182.235 112.85 185.769 112.85Z" fill="black"/>
</g>
<defs>
<clipPath id="clip0_797_476">
<rect width="295.58" height="254.02" fill="white" transform="translate(2 23)"/>
</clipPath>
</defs>
</svg>
