<svg width="300" height="300" viewBox="0 0 300 300" fill="none" xmlns="http://www.w3.org/2000/svg">
<rect width="300" height="300" fill="#DAE3F7"/>
<path d="M150.3 266.881C214.686 266.881 266.881 214.686 266.881 150.3C266.881 85.914 214.686 33.7188 150.3 33.7188C85.914 33.7188 33.7188 85.914 33.7188 150.3C33.7188 214.686 85.914 266.881 150.3 266.881Z" fill="#C3CBDC" stroke="white" stroke-width="30" stroke-miterlimit="10"/>
<path d="M266.874 150.3C266.874 172.418 260.708 193.102 250.012 210.725C250.012 210.742 250.012 210.742 249.994 210.751C229.547 244.405 192.543 266.881 150.292 266.881C85.9058 266.881 33.7109 214.687 33.7109 150.3C33.7109 121.815 43.9348 95.7089 60.9103 75.4624C82.2938 49.9422 114.391 33.7275 150.292 33.7275C214.679 33.7275 266.865 85.9136 266.865 150.3H266.874Z" fill="#C3CBDC"/>
<path d="M266.873 150.3C266.873 172.418 260.707 193.102 250.011 210.725C250.011 210.742 250.011 210.742 249.994 210.751C228.61 236.227 196.522 252.425 160.656 252.425C96.2691 252.425 44.0742 200.23 44.0742 135.843C44.0742 113.743 50.2313 93.0764 60.9099 75.4624C82.2933 49.9422 114.39 33.7275 150.292 33.7275C214.678 33.7275 266.864 85.9136 266.864 150.3H266.873Z" fill="#DAE3F7"/>
<path d="M179.371 120.783C183.636 120.783 187.093 117.325 187.093 113.06C187.093 108.795 183.636 105.338 179.371 105.338C175.106 105.338 171.648 108.795 171.648 113.06C171.648 117.325 175.106 120.783 179.371 120.783Z" fill="black"/>
<path d="M221.543 120.783C225.808 120.783 229.265 117.325 229.265 113.06C229.265 108.795 225.808 105.338 221.543 105.338C217.278 105.338 213.82 108.795 213.82 113.06C213.82 117.325 217.278 120.783 221.543 120.783Z" fill="black"/>
<path d="M190.408 127.797H210.077" stroke="black" stroke-width="1.74916" stroke-linecap="round" stroke-linejoin="round"/>
<path d="M189.096 124.29C189.096 124.29 192.061 127.683 189.096 131.313" stroke="black" stroke-width="1.74916" stroke-linecap="round" stroke-linejoin="round"/>
<path d="M212.044 124.29C212.044 124.29 209.079 127.683 212.044 131.313" stroke="black" stroke-width="1.74916" stroke-linecap="round" stroke-linejoin="round"/>
<path d="M121.989 71.1244C126.519 79.2405 121.648 90.5925 111.109 96.4697C100.571 102.347 88.3439 100.536 83.8224 92.4204C83.4813 91.8082 83.1839 91.1698 82.9565 90.5226C80.0617 82.6164 84.9681 72.515 94.7109 67.0751C104.454 61.6352 115.613 62.7722 120.826 69.3927C121.263 69.9262 121.648 70.5122 121.989 71.1244Z" fill="#AAB1C1"/>
<path d="M120.826 69.4015C123.721 77.3077 118.823 87.4004 109.08 92.8402C99.3374 98.2801 88.169 97.1519 82.9565 90.5314C80.0617 82.6252 84.9681 72.5238 94.7109 67.0839C104.454 61.644 115.613 62.781 120.826 69.4015Z" fill="#C3CBDC"/>
<path d="M222.838 75.6109C220.144 79.3891 213.121 79.0218 207.166 74.7713C201.21 70.5209 198.568 64.0053 201.262 60.2271C201.463 59.9385 201.699 59.6761 201.953 59.44C205.023 56.5189 211.434 57.1486 216.935 61.0754C222.444 65.0023 225.112 70.8532 223.354 74.7101C223.214 75.025 223.039 75.3311 222.838 75.6197V75.6109Z" fill="#AAB1C1"/>
<path d="M223.352 74.7014C220.283 77.6225 213.881 77.0015 208.38 73.0747C202.87 69.1478 200.194 63.2881 201.96 59.44C205.03 56.5189 211.441 57.1486 216.942 61.0754C222.452 65.0023 225.119 70.8532 223.361 74.7101L223.352 74.7014Z" fill="#C3CBDC"/>
<path d="M202.284 212.946C202.284 222.243 194.789 229.782 185.536 229.782C176.283 229.782 168.779 222.243 168.779 212.946C168.779 212.246 168.823 211.547 168.91 210.865C169.925 202.547 176.983 196.119 185.536 196.119C194.09 196.119 201.139 202.547 202.153 210.865C202.241 211.538 202.284 212.246 202.284 212.946Z" fill="#AAB1C1"/>
<path d="M202.153 210.865C201.138 219.182 194.089 225.61 185.536 225.61C176.983 225.61 169.925 219.182 168.91 210.865C169.925 202.547 176.983 196.119 185.536 196.119C194.089 196.119 201.138 202.547 202.153 210.865Z" fill="#C3CBDC"/>
<path d="M96.2691 152.557C96.2691 158.862 91.0828 163.987 84.6809 163.987C78.279 163.987 73.084 158.871 73.084 152.557C73.084 152.084 73.1102 151.603 73.1802 151.148C73.8799 145.499 78.7687 141.135 84.6896 141.135C90.6105 141.135 95.4907 145.499 96.1903 151.148C96.2516 151.612 96.2866 152.084 96.2866 152.557H96.2691Z" fill="#AAB1C1"/>
<path d="M96.1723 151.148C95.4726 156.798 90.5925 161.162 84.6716 161.162C78.7507 161.162 73.8705 156.798 73.1621 151.148C73.8618 145.499 78.7507 141.135 84.6716 141.135C90.5925 141.135 95.4726 145.499 96.1723 151.148Z" fill="#C3CBDC"/>
<path d="M154.505 154.909C154.505 159.072 151.086 162.448 146.862 162.448C142.637 162.448 139.209 159.072 139.209 154.909C139.209 154.594 139.226 154.279 139.27 153.982C139.734 150.256 142.952 147.379 146.862 147.379C150.771 147.379 153.981 150.256 154.444 153.982C154.488 154.288 154.505 154.603 154.505 154.909Z" fill="#AAB1C1"/>
<path d="M154.445 153.973C153.982 157.699 150.763 160.576 146.863 160.576C142.962 160.576 139.735 157.699 139.271 153.973C139.735 150.247 142.953 147.37 146.863 147.37C150.772 147.37 153.982 150.247 154.445 153.973Z" fill="#C3CBDC"/>
<path d="M255.643 158.556C255.643 162.291 253.431 165.325 250.702 165.325C247.973 165.325 245.752 162.291 245.752 158.556C245.752 158.276 245.761 157.996 245.787 157.717C246.084 154.376 248.166 151.787 250.693 151.787C253.221 151.787 255.302 154.376 255.6 157.717C255.626 157.988 255.635 158.267 255.635 158.556H255.643Z" fill="#AAB1C1"/>
<path d="M255.608 157.717C255.31 161.057 253.229 163.646 250.701 163.646C248.174 163.646 246.092 161.057 245.795 157.717C246.092 154.376 248.174 151.787 250.701 151.787C253.229 151.787 255.31 154.376 255.608 157.717Z" fill="#C3CBDC"/>
</svg>
