<svg width="300" height="300" viewBox="0 0 300 300" fill="none" xmlns="http://www.w3.org/2000/svg">
<g clip-path="url(#clip0_769_72)">
<path d="M150.3 283.6C223.92 283.6 283.6 223.92 283.6 150.3C283.6 76.6804 223.92 17 150.3 17C76.6804 17 17 76.6804 17 150.3C17 223.92 76.6804 283.6 150.3 283.6Z" fill="#C3CBDC" stroke="white" stroke-width="30" stroke-miterlimit="10"/>
<path d="M283.59 150.3C283.59 175.59 276.54 199.24 264.31 219.39C264.31 219.41 264.31 219.41 264.29 219.42C240.91 257.9 198.6 283.6 150.29 283.6C76.6702 283.6 16.9902 223.92 16.9902 150.3C16.9902 117.73 28.6802 87.88 48.0902 64.73C72.5402 35.55 109.24 17.01 150.29 17.01C223.91 17.01 283.58 76.68 283.58 150.3H283.59Z" fill="#C3CBDC"/>
<path d="M283.59 150.3C283.59 175.59 276.54 199.24 264.31 219.39C264.31 219.41 264.31 219.41 264.29 219.42C239.84 248.55 203.15 267.07 162.14 267.07C88.5198 267.07 28.8398 207.39 28.8398 133.77C28.8398 108.5 35.8798 84.87 48.0898 64.73C72.5398 35.55 109.24 17.01 150.29 17.01C223.91 17.01 283.58 76.68 283.58 150.3H283.59Z" fill="#DAE3F7"/>
<path d="M183.541 116.55C188.418 116.55 192.371 112.597 192.371 107.72C192.371 102.843 188.418 98.8899 183.541 98.8899C178.664 98.8899 174.711 102.843 174.711 107.72C174.711 112.597 178.664 116.55 183.541 116.55Z" fill="black"/>
<path d="M231.76 116.55C236.636 116.55 240.59 112.597 240.59 107.72C240.59 102.843 236.636 98.8899 231.76 98.8899C226.883 98.8899 222.93 102.843 222.93 107.72C222.93 112.597 226.883 116.55 231.76 116.55Z" fill="black"/>
<path d="M196.16 124.57H218.65" stroke="black" stroke-width="2" stroke-linecap="round" stroke-linejoin="round"/>
<path d="M194.66 120.56C194.66 120.56 198.05 124.44 194.66 128.59" stroke="black" stroke-width="2" stroke-linecap="round" stroke-linejoin="round"/>
<path d="M220.899 120.56C220.899 120.56 217.509 124.44 220.899 128.59" stroke="black" stroke-width="2" stroke-linecap="round" stroke-linejoin="round"/>
<path d="M117.93 59.7701C123.11 69.0501 117.54 82.0301 105.49 88.7501C93.4395 95.4701 79.4595 93.4001 74.2895 84.1201C73.8995 83.4201 73.5596 82.6901 73.2996 81.9501C69.9896 72.9101 75.5995 61.3601 86.7395 55.1401C97.8795 48.9201 110.64 50.2201 116.6 57.7901C117.1 58.4001 117.54 59.0701 117.93 59.7701Z" fill="#AAB1C1"/>
<path d="M116.6 57.8001C119.91 66.8401 114.31 78.3801 103.17 84.6001C92.0295 90.8201 79.2596 89.5301 73.2996 81.9601C69.9896 72.9201 75.5995 61.3701 86.7395 55.1501C97.8795 48.9301 110.64 50.2301 116.6 57.8001Z" fill="#C3CBDC"/>
<path d="M233.24 64.9C230.16 69.22 222.13 68.8 215.32 63.94C208.51 59.08 205.49 51.63 208.57 47.31C208.8 46.98 209.07 46.68 209.36 46.41C212.87 43.07 220.2 43.79 226.49 48.28C232.79 52.77 235.84 59.46 233.83 63.87C233.67 64.23 233.47 64.58 233.24 64.91V64.9Z" fill="#AAB1C1"/>
<path d="M233.83 63.86C230.32 67.2 223 66.49 216.71 62C210.41 57.51 207.35 50.81 209.37 46.41C212.88 43.07 220.21 43.79 226.5 48.28C232.8 52.77 235.85 59.46 233.84 63.87L233.83 63.86Z" fill="#C3CBDC"/>
<path d="M209.74 221.93C209.74 232.56 201.17 241.18 190.59 241.18C180.01 241.18 171.43 232.56 171.43 221.93C171.43 221.13 171.48 220.33 171.58 219.55C172.74 210.04 180.81 202.69 190.59 202.69C200.37 202.69 208.43 210.04 209.59 219.55C209.69 220.32 209.74 221.13 209.74 221.93Z" fill="#AAB1C1"/>
<path d="M209.59 219.55C208.43 229.06 200.37 236.41 190.59 236.41C180.81 236.41 172.74 229.06 171.58 219.55C172.74 210.04 180.81 202.69 190.59 202.69C200.37 202.69 208.43 210.04 209.59 219.55Z" fill="#C3CBDC"/>
<path d="M88.5198 152.88C88.5198 160.09 82.5898 165.95 75.2698 165.95C67.9498 165.95 62.0098 160.1 62.0098 152.88C62.0098 152.34 62.0398 151.79 62.1198 151.27C62.9198 144.81 68.5098 139.82 75.2798 139.82C82.0498 139.82 87.6298 144.81 88.4298 151.27C88.4998 151.8 88.5398 152.34 88.5398 152.88H88.5198Z" fill="#AAB1C1"/>
<path d="M88.4096 151.27C87.6096 157.73 82.0296 162.72 75.2596 162.72C68.4896 162.72 62.9096 157.73 62.0996 151.27C62.8996 144.81 68.4896 139.82 75.2596 139.82C82.0296 139.82 87.6096 144.81 88.4096 151.27Z" fill="#C3CBDC"/>
<path d="M155.109 155.57C155.109 160.33 151.199 164.19 146.369 164.19C141.539 164.19 137.619 160.33 137.619 155.57C137.619 155.21 137.639 154.85 137.689 154.51C138.219 150.25 141.899 146.96 146.369 146.96C150.839 146.96 154.509 150.25 155.039 154.51C155.089 154.86 155.109 155.22 155.109 155.57Z" fill="#AAB1C1"/>
<path d="M155.039 154.5C154.509 158.76 150.829 162.05 146.369 162.05C141.909 162.05 138.219 158.76 137.689 154.5C138.219 150.24 141.899 146.95 146.369 146.95C150.839 146.95 154.509 150.24 155.039 154.5Z" fill="#C3CBDC"/>
<path d="M270.749 159.74C270.749 164.01 268.219 167.48 265.099 167.48C261.979 167.48 259.439 164.01 259.439 159.74C259.439 159.42 259.449 159.1 259.479 158.78C259.819 154.96 262.199 152 265.089 152C267.979 152 270.359 154.96 270.699 158.78C270.729 159.09 270.739 159.41 270.739 159.74H270.749Z" fill="#AAB1C1"/>
<path d="M270.71 158.78C270.37 162.6 267.99 165.56 265.1 165.56C262.21 165.56 259.83 162.6 259.49 158.78C259.83 154.96 262.21 152 265.1 152C267.99 152 270.37 154.96 270.71 158.78Z" fill="#C3CBDC"/>
</g>
<defs>
<clipPath id="clip0_769_72">
<rect width="296.6" height="296.6" fill="white" transform="translate(2 2)"/>
</clipPath>
</defs>
</svg>
