<svg width="300" height="300" viewBox="0 0 300 300" fill="none" xmlns="http://www.w3.org/2000/svg">
<g clip-path="url(#clip0_549_22428)">
<rect width="300" height="300" fill="white"/>
<circle cx="137.483" cy="144.393" r="42.196" fill="#CAD3E7"/>
<circle cx="106.296" cy="-19.804" r="42.196" fill="#CAD3E7"/>
<circle cx="239.305" cy="76.5129" r="42.196" fill="#CAD3E7"/>
<circle cx="334.704" cy="318.681" r="42.196" fill="#CAD3E7"/>
<circle cx="221.876" cy="254.47" r="42.196" fill="#CAD3E7"/>
<circle cx="-36.804" cy="318.681" r="42.196" fill="#CAD3E7"/>
<circle cx="-12.0364" cy="149.897" r="42.196" fill="#CAD3E7"/>
<circle cx="39.3328" cy="50.8284" r="33.9403" fill="#CAD3E7"/>
<circle cx="86.1141" cy="242.545" r="33.9403" fill="#CAD3E7"/>
<circle cx="23.2788" cy="256.763" r="14.2182" fill="#CAD3E7"/>
<circle cx="39.7905" cy="194.386" r="14.2182" fill="#CAD3E7"/>
<circle cx="162.71" cy="220.071" r="14.2182" fill="#CAD3E7"/>
<circle cx="149.867" cy="276.027" r="14.2182" fill="#CAD3E7"/>
<circle cx="283.794" cy="234.748" r="14.2182" fill="#CAD3E7"/>
<circle cx="298.47" cy="109.995" r="14.2182" fill="#CAD3E7"/>
<circle cx="179.22" cy="48.5351" r="14.2182" fill="#CAD3E7"/>
<circle cx="188.394" cy="-5.5858" r="14.2182" fill="#CAD3E7"/>
<circle cx="23.2788" cy="-5.5858" r="14.2182" fill="#CAD3E7"/>
<circle cx="205.824" cy="143.935" r="14.2182" fill="#CAD3E7"/>
<circle cx="292.05" cy="20.0987" r="14.2182" fill="#CAD3E7"/>
<circle cx="120.055" cy="58.1668" r="18.3461" fill="#CAD3E7"/>
<circle cx="57.6781" cy="137.055" r="18.3461" fill="#CAD3E7"/>
<circle cx="257.651" cy="168.243" r="18.3461" fill="#CAD3E7"/>
</g>
<defs>
<clipPath id="clip0_549_22428">
<rect width="300" height="300" fill="white"/>
</clipPath>
</defs>
</svg>
