<svg width="300" height="300" viewBox="0 0 300 300" fill="none" xmlns="http://www.w3.org/2000/svg">
<g clip-path="url(#clip0_798_522)">
<path d="M273.721 129.12C273.011 128.19 272.281 127.28 271.511 126.38C255.581 107.87 229.861 102.64 208.511 111.76C205.761 101.16 199.611 91.5401 190.651 84.5201L122.261 30.8601C108.911 20.3801 91.3008 17.2501 75.1608 22.4801C59.0208 27.7101 46.6008 40.5701 41.9308 56.8801L17.9808 140.45C12.7908 158.58 17.9808 177.97 31.5408 191.06C45.1008 204.16 64.6508 208.69 82.5908 202.88L174.931 172.98C175.411 172.83 175.871 172.67 176.341 172.49C177.261 177.35 178.861 182.1 181.131 186.62L126.521 233.58C120.971 238.35 120.321 246.75 125.101 252.32C125.901 253.24 126.801 254.03 127.761 254.68C131.681 257.33 136.741 257.67 141.001 255.6L157.241 274.48C162.011 280.03 170.401 280.68 175.981 275.9C181.541 271.1 182.161 262.72 177.391 257.16L161.441 238.61L164.931 235.61L180.891 254.15C185.661 259.71 194.051 260.35 199.621 255.57C205.191 250.78 205.811 242.39 201.041 236.83L185.081 218.28L198.461 206.78C218.481 220.92 246.341 220.27 265.731 203.58C287.721 184.66 290.981 151.97 273.741 129.13L273.721 129.12ZM248.391 183.42C237.521 192.76 221.491 192.33 211.141 182.93C203.401 171.3 205.371 155.37 216.241 146.04C227.121 136.68 243.151 137.12 253.501 146.51C261.241 158.15 259.271 174.07 248.391 183.42Z" fill="#969CA9" stroke="white" stroke-width="30" stroke-miterlimit="10"/>
<path d="M248.391 183.43C237.521 192.77 221.491 192.34 211.141 182.94C203.401 171.31 205.371 155.38 216.241 146.05C227.121 136.69 243.151 137.13 253.501 146.52C261.241 158.16 259.271 174.08 248.391 183.43Z" fill="white" stroke="white" stroke-width="30" stroke-miterlimit="10"/>
<path d="M271.521 126.39C272.291 127.28 273.021 128.2 273.721 129.12C253.731 108.65 220.901 106.99 198.911 125.9C179.511 142.59 174.691 170.02 185.671 191.93L131.061 238.9C126.421 242.89 125.211 249.41 127.741 254.68C126.781 254.03 125.881 253.24 125.081 252.32C120.291 246.75 120.931 238.36 126.491 233.59L181.101 186.62C170.121 164.71 174.941 137.27 194.341 120.59C217.221 100.91 251.831 103.51 271.511 126.39H271.521Z" fill="#C3CBDC"/>
<path d="M198.921 125.9C179.521 142.59 174.701 170.02 185.681 191.93L131.071 238.9C126.431 242.89 125.221 249.41 127.751 254.68C131.671 257.32 136.741 257.67 140.991 255.6L157.231 274.48C162.011 280.03 170.401 280.68 175.961 275.89C181.521 271.1 182.151 262.71 177.371 257.16L161.411 238.61L164.911 235.6L180.871 254.15C185.651 259.7 194.041 260.35 199.601 255.56C205.161 250.77 205.791 242.38 201.011 236.83L185.051 218.28L198.431 206.77C218.461 220.92 246.311 220.26 265.711 203.57C287.701 184.66 290.961 151.96 273.721 129.12C253.731 108.65 220.901 106.99 198.911 125.9H198.921ZM253.501 146.51C261.241 158.15 259.271 174.06 248.391 183.42C237.521 192.77 221.491 192.33 211.151 182.94C210.291 182.17 209.471 181.33 208.691 180.42C198.571 168.65 199.911 150.85 211.681 140.73C223.461 130.6 241.261 131.94 251.381 143.71C252.161 144.61 252.871 145.55 253.501 146.52V146.51Z" fill="#DAE3F7"/>
<path d="M251.381 143.71C252.161 144.61 252.871 145.55 253.501 146.52C243.151 137.13 227.121 136.69 216.241 146.05C205.371 155.4 203.401 171.31 211.141 182.95C210.281 182.18 209.461 181.34 208.681 180.43C198.561 168.66 199.901 150.86 211.671 140.74C223.451 130.61 241.251 131.95 251.371 143.72L251.381 143.71Z" fill="#C3CBDC"/>
<path d="M175.151 147.6L67.5212 182.46C52.7612 187.25 38.5612 176.2 38.0312 161.97C42.3513 172.04 53.8713 178.45 65.7513 174.6L173.391 139.74C183.791 136.37 189.351 126.8 188.971 117.3C193.871 128.78 188.471 143.28 175.151 147.6Z" fill="#969CA9"/>
<path d="M173.39 139.74L65.7504 174.6C53.8704 178.45 42.3504 172.04 38.0304 161.97C37.9404 159.65 38.2104 157.25 38.9104 154.81L66.8104 57.3998C71.2204 42.0198 89.8004 35.9998 102.39 45.8798L182.12 108.43C185.3 110.93 187.56 113.99 188.97 117.3C189.35 126.8 183.79 136.37 173.39 139.74Z" fill="#C3CBDC"/>
<path d="M82.5806 45.39C90.6406 42.78 99.9106 43.93 107.401 49.8L175.801 103.46C192.691 116.71 187.941 143.45 167.511 150.07L75.1706 179.98C54.7406 186.6 35.2106 167.72 41.1306 147.08L65.0706 63.5C67.6906 54.35 74.5306 47.98 82.5906 45.37M75.1706 22.47C59.0306 27.7 46.6006 40.56 41.9306 56.87L17.9906 140.45C12.8006 158.57 17.9906 177.96 31.5506 191.06C45.1006 204.16 64.6606 208.69 82.6006 202.88L174.941 172.97C192.871 167.16 206.061 152.02 209.361 133.47C212.661 114.91 205.501 96.16 190.671 84.52L122.251 30.86C108.901 20.39 91.3006 17.26 75.1606 22.49L75.1706 22.47Z" fill="#DAE3F7"/>
<path d="M106.75 120.27C101.7 121.91 96.2297 119.42 94.1397 114.55L81.4896 85.0599C78.3996 77.8599 82.1697 69.5599 89.6197 67.1499C97.0997 64.7299 105.04 69.2799 106.72 76.9599L113.61 108.3C114.75 113.47 111.77 118.65 106.74 120.28L106.75 120.27Z" fill="#DAE3F7"/>
<path d="M112.61 150.38C119.398 150.38 124.9 144.878 124.9 138.09C124.9 131.302 119.398 125.8 112.61 125.8C105.823 125.8 100.32 131.302 100.32 138.09C100.32 144.878 105.823 150.38 112.61 150.38Z" fill="#DAE3F7"/>
</g>
<defs>
<clipPath id="clip0_798_522">
<rect width="298.73" height="289.1" fill="white" transform="translate(1 5)"/>
</clipPath>
</defs>
</svg>
