<svg width="300" height="300" viewBox="0 0 300 300" fill="none" xmlns="http://www.w3.org/2000/svg">
<rect width="300" height="300" fill="#FDE9D6"/>
<path d="M270.831 177.871C272.868 192.489 271.384 207.853 264.324 221.548C244.767 259.511 209.993 259.419 176.058 241.935C150.455 228.746 132.621 209.429 133.81 184.443C134.197 176.305 136.593 167.558 141.395 158.231C144.556 152.093 148.648 146.655 153.376 141.927C151.459 141.208 149.597 140.351 147.791 139.383C144.049 137.365 139.367 138.877 137.533 142.711C132.326 153.503 123.091 162.139 111.063 166.037C87.027 173.825 60.926 159.761 52.7878 134.637C52.4376 133.549 52.1242 132.471 51.8477 131.384C50.7326 126.96 50.2533 122.499 50.3547 118.14C50.3639 118.103 50.3639 118.066 50.3547 118.029C50.2441 113.024 50.7602 108.361 51.8754 104.001C42.917 105.651 31.9771 101.421 27.3965 91.8358C35.0001 83.1999 43.0829 82.8036 49.2764 84.6469C49.4883 80.4534 51.2395 76.2139 54.7694 73.2369C60.2071 75.9834 62.5941 79.7161 63.396 83.3474C74.4557 71.4397 92.1421 62.5458 114.842 55.1911C160.74 40.3158 196.666 43.2742 210.481 79.7345C210.767 80.4626 211.044 81.2092 211.292 81.9741C211.44 82.3612 211.56 82.7391 211.698 83.1446C215.458 94.7574 214.73 106.702 210.472 116.96C215.348 116.61 220.002 116.693 224.269 117.199C220.463 108.342 214.177 97.9739 221.596 94.656C231.2 90.3611 268.296 103.928 271.845 113.937C274.702 121.964 258.453 128.139 249.532 130.149C259.568 141.135 268.176 158.849 270.822 177.871H270.831Z" fill="#FFCB9A" stroke="white" stroke-width="30" stroke-linecap="round" stroke-linejoin="round"/>
<path d="M264.321 221.548C244.764 259.51 210 259.409 176.055 241.925C150.452 228.737 132.628 209.419 133.807 184.442C137.632 203.963 153.669 219.41 175.235 230.515C209.179 247.999 243.944 248.11 263.501 210.138C268.736 199.981 270.893 188.885 270.828 177.871C272.865 192.479 271.372 207.852 264.321 221.548Z" fill="#FFCB9A"/>
<path d="M263.503 210.138C243.936 248.119 209.181 247.999 175.237 230.516C153.679 219.41 137.633 203.963 133.809 184.443C134.196 176.304 136.592 167.558 141.394 158.231C160.96 120.25 215.973 109.633 238.277 121.125C252.553 128.48 267.217 151.955 270.83 177.88C270.894 188.885 268.728 199.981 263.503 210.147V210.138Z" fill="#FDE9D6"/>
<path d="M226.591 124.407C225.337 115.052 211.992 98.9414 221.595 94.6466C231.199 90.3517 268.295 103.918 271.843 113.927C275.401 123.936 249.281 131.079 244.664 130.812C240.047 130.545 226.581 124.407 226.581 124.407H226.591Z" fill="#FDE9D6"/>
<path d="M173.207 155.89L176.064 150.581L180.037 152.885L177.087 157.328C177.806 157.65 178.562 158.01 179.345 158.415C180.212 158.858 181.106 159.355 182.037 159.89L178.461 167.788C178.009 167.475 177.585 167.171 177.189 166.894C175.852 165.964 174.737 165.272 173.852 164.812C172.608 164.176 171.816 164 171.465 164.295C171.419 164.323 171.373 164.351 171.346 164.397L171.29 164.498C170.968 165.125 171.511 165.936 172.922 166.931C176.968 170.12 178.083 173.475 176.276 176.986C176.074 177.383 175.834 177.779 175.557 178.166L175.364 178.433C173.299 181.291 169.687 181.678 164.535 179.585L163.355 183.014L159.512 181.503L161.687 178.24C160.23 177.493 158.691 176.581 157.051 175.503L159.41 166.268C161.336 167.954 162.912 169.217 164.111 170.056C164.682 170.443 165.17 170.747 165.585 170.959C166.249 171.3 166.71 171.401 166.958 171.263C167.014 171.217 167.06 171.171 167.088 171.106C167.124 171.06 167.152 171.023 167.17 170.987C167.438 170.47 167.17 169.834 166.35 169.097C162.442 165.466 161.235 162.212 162.719 159.328C162.848 159.079 162.995 158.83 163.171 158.59C163.447 158.194 163.76 157.807 164.111 157.411C166.009 155.208 169.041 154.692 173.207 155.862V155.89Z" fill="#FFCB9A"/>
<path d="M188.276 179.042C183.493 175.687 182.028 172.222 183.88 168.627C184.24 167.927 184.737 167.208 185.364 166.489C188.986 162.987 194.571 163.18 202.138 167.07C203.695 167.871 205.345 168.839 207.078 169.963L201.447 177.383C200.94 177.042 200.47 176.719 200.018 176.424C198.728 175.586 197.631 174.94 196.728 174.47C195.087 173.632 194.064 173.383 193.659 173.733C193.603 173.77 193.567 173.807 193.539 173.853L193.484 173.954C193.133 174.627 193.76 175.493 195.364 176.553C200.239 180.175 201.972 183.622 200.562 186.894C200.442 187.171 200.313 187.438 200.184 187.705C198.765 190.47 196.507 191.936 193.419 192.111C190.332 192.286 186.995 191.484 183.419 189.705C180.59 188.249 177.825 185.945 175.115 182.793L181.751 176.12C183.143 177.89 184.516 179.208 185.871 180.083C186.415 180.433 186.903 180.719 187.318 180.931C188.166 181.364 188.737 181.502 189.023 181.337C189.069 181.291 189.115 181.235 189.161 181.171L189.216 181.069C189.511 180.489 189.198 179.816 188.276 179.032V179.042Z" fill="#FFCB9A"/>
<path d="M209.539 202.691C206.129 200.931 203.815 198.258 202.599 194.655C201.382 191.051 201.631 187.586 203.354 184.249C205.078 180.894 207.76 178.673 211.4 177.576C215.041 176.48 218.562 176.802 221.972 178.563C225.372 180.314 227.677 182.987 228.893 186.59C230.11 190.194 229.852 193.668 228.128 197.014C226.405 200.35 223.732 202.571 220.091 203.677C216.451 204.774 212.939 204.452 209.539 202.701V202.691ZM217.419 193.346C218.746 192.94 219.723 192.148 220.331 190.959C220.939 189.788 221.013 188.535 220.58 187.217C220.138 185.899 219.28 184.913 217.999 184.249C216.718 183.586 215.41 183.466 214.082 183.871C212.755 184.277 211.787 185.069 211.179 186.24C210.571 187.41 210.488 188.673 210.93 189.991C211.373 191.309 212.23 192.295 213.511 192.959C214.792 193.622 216.101 193.742 217.428 193.337L217.419 193.346Z" fill="#FFCB9A"/>
<path d="M238.608 184L247.99 189.493L238.377 204.424L245.889 207.926L238.359 217.226L224.322 208.719L238.608 184Z" fill="#FFCB9A"/>
<path d="M211.695 83.1259C219.842 108.259 206.957 134.95 182.921 142.738C170.884 146.637 158.35 145.06 147.797 139.374C144.055 137.356 139.382 138.867 137.539 142.701C132.332 153.494 123.097 162.12 111.069 166.028C87.0327 173.816 60.9409 159.761 52.7936 134.627C52.4434 133.54 52.13 132.462 51.8535 131.374C61.0608 154.553 85.9728 167.152 109.014 159.687C121.051 155.788 130.276 147.153 135.484 136.36C137.327 132.535 142 131.024 145.742 133.033C156.285 138.72 168.829 140.296 180.865 136.397C203.971 128.904 216.773 103.955 210.487 79.7158C210.773 80.4439 211.04 81.1905 211.298 81.9554C211.446 82.3333 211.565 82.7296 211.695 83.1259Z" fill="#FFCB9A"/>
<path d="M210.478 79.7159C216.764 103.955 203.962 128.904 180.857 136.397C168.82 140.296 156.286 138.72 145.733 133.033C141.991 131.015 137.318 132.526 135.475 136.36C130.268 147.153 121.033 155.779 109.005 159.687C85.9641 167.152 61.052 154.553 51.8447 131.374C50.7388 126.95 50.2503 122.489 50.3517 118.13C50.3517 118.093 50.3517 118.056 50.3517 118.019C49.6236 86.4439 74.1947 68.3612 114.83 55.1909C160.728 40.3155 196.654 43.274 210.469 79.7343L210.478 79.7159Z" fill="#FDE9D6"/>
<path d="M61.0614 99.264C52.573 108.13 33.7807 105.199 27.4121 91.8171C41.5686 75.7528 57.3472 88.1858 59.6328 90.6097C60.96 94.5452 61.0614 99.264 61.0614 99.264Z" fill="#FDE9D6"/>
<path d="M55.7073 97.9461C48.0116 93.6604 46.6383 80.0846 54.7672 73.2275C68.4905 80.1399 62.721 93.3563 61.4492 95.3839C58.9515 97.0244 55.6981 97.9461 55.6981 97.9461H55.7073Z" fill="#FDE9D6"/>
<path d="M105.09 153.011C118.924 148.527 126.281 132.991 121.522 118.309C116.763 103.628 101.691 95.362 87.8569 99.8462C74.0231 104.33 66.6664 119.867 71.4253 134.548C76.1842 149.229 91.2565 157.496 105.09 153.011Z" fill="white"/>
<path d="M180.127 128.689C193.961 124.205 201.318 108.668 196.559 93.987C191.8 79.3058 176.728 71.0395 162.894 75.5237C149.06 80.0079 141.704 95.5445 146.462 110.226C151.221 124.907 166.294 133.173 180.127 128.689Z" fill="white"/>
<path d="M86.3692 124.305C89.6269 124.305 92.2678 121.664 92.2678 118.407C92.2678 115.149 89.6269 112.508 86.3692 112.508C83.1116 112.508 80.4707 115.149 80.4707 118.407C80.4707 121.664 83.1116 124.305 86.3692 124.305Z" fill="black"/>
<path d="M182.949 115.761C186.207 115.761 188.848 113.121 188.848 109.863C188.848 106.605 186.207 103.964 182.949 103.964C179.692 103.964 177.051 106.605 177.051 109.863C177.051 113.121 179.692 115.761 182.949 115.761Z" fill="black"/>
</svg>
