<svg width="300" height="300" viewBox="0 0 300 300" fill="none" xmlns="http://www.w3.org/2000/svg">
<g clip-path="url(#clip0_512_22200)">
<rect width="300" height="300" fill="white"/>
<g clip-path="url(#clip1_512_22200)">
<path d="M58.9786 -0.0642274C65.1151 25.9531 37.4834 43.9107 34.0944 44.71C30.7055 45.5093 -3.88018 41.6331 -9.8841 16.1779C-9.94126 15.9356 -9.99842 15.6932 -10.0338 15.456C-12.2599 4.35663 -5.21412 -6.59657 5.95861 -9.2318C9.62099 -10.0956 13.2805 -9.96619 16.6502 -9.01117C17.3674 -8.81193 18.062 -8.57671 18.7561 -8.3004C20.0426 -7.78522 21.5323 -8.15704 22.4627 -9.19513C22.8785 -9.66157 23.3184 -10.1132 23.7847 -10.5404C26.4105 -13.0017 29.7006 -14.8317 33.4607 -15.7185C44.6725 -18.363 55.8794 -11.674 58.8179 -0.701695C58.8877 -0.493044 58.938 -0.279787 58.9883 -0.0665296L58.9786 -0.0642274Z" fill="#FF5E89"/>
</g>
<g clip-path="url(#clip2_512_22200)">
<path d="M141.289 -25.5378C143.734 -3.40929 119.077 8.64573 116.195 8.96427C113.312 9.28282 85.1116 2.58533 82.7189 -19.065C82.6961 -19.2711 82.6733 -19.4773 82.6681 -19.677C81.9487 -29.0777 88.8797 -37.4213 98.3824 -38.4715C101.497 -38.8157 104.51 -38.3391 107.199 -37.2093C107.772 -36.9721 108.322 -36.7075 108.868 -36.409C109.88 -35.8532 111.149 -36.0101 112.023 -36.7743C112.414 -37.1179 112.823 -37.4469 113.252 -37.753C115.671 -39.5225 118.576 -40.7031 121.774 -41.0565C131.31 -42.1104 139.899 -35.4487 141.22 -26.0811C141.257 -25.9015 141.277 -25.7201 141.297 -25.5388L141.289 -25.5378Z" fill="#FF5E89"/>
</g>
<g clip-path="url(#clip3_512_22200)">
<path d="M237.47 2.50484C240.705 31.7779 208.087 47.725 204.274 48.1464C200.461 48.5678 163.156 39.7079 159.99 11.0675C159.96 10.7948 159.93 10.5221 159.923 10.258C158.971 -2.17795 168.14 -13.2153 180.711 -14.6045C184.832 -15.0599 188.817 -14.4295 192.374 -12.9348C193.132 -12.6211 193.86 -12.2711 194.582 -11.8762C195.92 -11.1409 197.599 -11.3485 198.755 -12.3595C199.272 -12.814 199.814 -13.2492 200.381 -13.6541C203.581 -15.995 207.424 -17.5567 211.655 -18.0243C224.269 -19.4184 235.632 -10.6059 237.38 1.78622C237.428 2.02374 237.455 2.26368 237.481 2.50362L237.47 2.50484Z" fill="#FF5E89"/>
</g>
<g clip-path="url(#clip4_512_22200)">
<path d="M126.854 34.1621C129.678 59.7122 101.208 73.6312 97.8802 73.999C94.5521 74.3668 61.9908 66.6337 59.2282 41.6358C59.2019 41.3978 59.1756 41.1598 59.1695 40.9292C58.3389 30.0749 66.3416 20.4413 77.3136 19.2287C80.9103 18.8313 84.3883 19.3815 87.4935 20.6861C88.1547 20.9599 88.7904 21.2654 89.4207 21.6101C90.5886 22.2519 92.0539 22.0707 93.0632 21.1883C93.5144 20.7915 93.987 20.4117 94.4819 20.0583C97.2753 18.0152 100.629 16.652 104.322 16.2439C115.332 15.0271 125.25 22.7188 126.775 33.5349C126.817 33.7422 126.84 33.9517 126.864 34.1611L126.854 34.1621Z" fill="#FF5E89"/>
</g>
<g clip-path="url(#clip5_512_22200)">
<path d="M165.164 42.946C184.221 56.2225 176.754 83.8637 175.024 86.3459C173.295 88.8281 148.668 106.374 130.024 93.384C129.847 93.2604 129.669 93.1367 129.509 93.0037C121.632 87.1126 119.84 75.9399 125.542 67.7565C127.411 65.074 129.854 63.0359 132.588 61.7C133.167 61.4131 133.753 61.1625 134.363 60.9388C135.494 60.5262 136.242 59.4219 136.242 58.2107C136.241 57.6678 136.264 57.1205 136.318 56.5737C136.589 53.4586 137.657 50.3668 139.576 47.6128C145.297 39.4008 156.427 37.2308 164.691 42.6267C164.857 42.7212 165.013 42.83 165.169 42.9388L165.164 42.946Z" fill="#FF5E89"/>
</g>
<g clip-path="url(#clip6_512_22200)">
<path d="M244.531 94.8874C244.257 118.111 217.196 127.466 214.171 127.431C211.146 127.395 182.795 116.883 183.063 94.1616C183.065 93.9453 183.068 93.729 183.088 93.5215C183.535 83.6961 191.77 75.9357 201.743 76.0534C205.012 76.092 208.071 76.9676 210.712 78.4785C211.275 78.7967 211.812 79.1406 212.339 79.5189C213.316 80.2227 214.65 80.2212 215.652 79.5407C216.1 79.2345 216.566 78.9457 217.049 78.6832C219.778 77.1577 222.936 76.3036 226.292 76.3433C236.3 76.4614 244.349 84.4487 244.529 94.3162C244.544 94.5067 244.542 94.6971 244.54 94.8875L244.531 94.8874Z" fill="#FF5E89"/>
</g>
<g clip-path="url(#clip7_512_22200)">
<path d="M294.827 41.8049C297.475 64.8786 271.805 77.5621 268.8 77.907C265.794 78.2519 236.346 71.3883 233.755 48.8132C233.731 48.5983 233.706 48.3834 233.7 48.1751C232.908 38.3714 240.102 29.6372 250.011 28.5001C253.259 28.1274 256.403 28.6114 259.214 29.7783C259.812 30.0232 260.388 30.2968 260.959 30.6058C262.016 31.1813 263.339 31.012 264.248 30.2109C264.654 29.8508 265.08 29.5058 265.525 29.1846C268.042 27.3281 271.067 26.0838 274.401 25.7011C284.345 24.5601 293.334 31.472 294.753 41.2385C294.792 41.4256 294.814 41.6148 294.836 41.8039L294.827 41.8049Z" fill="#FF5E89"/>
</g>
<g clip-path="url(#clip8_512_22200)">
<path d="M324.827 -19.1951C327.475 3.87862 301.805 16.5621 298.8 16.907C295.794 17.2519 266.346 10.3883 263.755 -12.1868C263.731 -12.4017 263.706 -12.6166 263.7 -12.8249C262.908 -22.6286 270.102 -31.3628 280.011 -32.4999C283.259 -32.8726 286.403 -32.3886 289.214 -31.2217C289.812 -30.9768 290.388 -30.7032 290.959 -30.3942C292.016 -29.8187 293.339 -29.988 294.248 -30.7891C294.654 -31.1492 295.08 -31.4942 295.525 -31.8154C298.042 -33.6719 301.067 -34.9162 304.401 -35.2989C314.345 -36.4399 323.334 -29.528 324.753 -19.7615C324.792 -19.5744 324.814 -19.3852 324.836 -19.1961L324.827 -19.1951Z" fill="#FF5E89"/>
</g>
<g clip-path="url(#clip9_512_22200)">
<path d="M343.114 -14.2832C362.555 -1.57631 355.909 26.2737 354.254 28.8059C352.599 31.3382 328.502 49.6048 309.482 37.1724C309.301 37.0541 309.12 36.9357 308.955 36.8075C300.908 31.152 298.787 20.0372 304.243 11.6887C306.032 8.95213 308.414 6.84259 311.107 5.42638C311.678 5.12246 312.256 4.85465 312.858 4.61307C313.977 4.16718 314.692 3.04117 314.657 1.8305C314.639 1.28788 314.646 0.74014 314.683 0.192006C314.863 -2.92974 315.839 -6.05182 317.675 -8.86141C323.151 -17.2391 334.212 -19.7374 342.632 -14.5884C342.8 -14.4988 342.96 -14.3947 343.119 -14.2905L343.114 -14.2832Z" fill="#FF5E89"/>
</g>
<g clip-path="url(#clip10_512_22200)">
<path d="M370.438 88.309C367.157 116.684 332.867 124.695 329.171 124.268C325.475 123.84 292.126 107.385 295.336 79.6233C295.367 79.359 295.397 79.0947 295.448 78.8435C297.242 66.8807 308.3 58.4321 320.485 59.8413C324.479 60.3032 328.11 61.7623 331.15 63.9458C331.798 64.4064 332.411 64.8951 333.008 65.4248C334.114 66.4098 335.746 66.5771 337.058 65.8718C337.645 65.554 338.251 65.2599 338.875 64.9999C342.407 63.4801 346.378 62.8359 350.479 63.3101C362.707 64.7243 371.54 75.5163 370.508 87.61C370.503 87.8451 370.476 88.0776 370.449 88.3102L370.438 88.309Z" fill="#FF5E89"/>
</g>
<g clip-path="url(#clip11_512_22200)">
<path d="M156.963 122.805C160.759 149.117 131.811 164.481 128.384 164.976C124.957 165.47 91.036 158.596 87.3218 132.853C87.2865 132.608 87.2511 132.363 87.2369 132.125C86.0055 120.934 93.9462 110.702 105.245 109.072C108.949 108.537 112.563 108.987 115.817 110.228C116.51 110.489 117.178 110.783 117.841 111.117C119.07 111.74 120.578 111.503 121.591 110.556C122.044 110.13 122.519 109.722 123.019 109.339C125.836 107.132 129.256 105.607 133.058 105.059C144.397 103.423 154.912 111.032 156.86 122.159C156.911 122.372 156.942 122.588 156.973 122.804L156.963 122.805Z" fill="#FF5E89"/>
</g>
<g clip-path="url(#clip12_512_22200)">
<path d="M66.33 95.1697C64.2878 118.464 36.4093 125.797 33.3751 125.531C30.3409 125.265 2.67755 112.555 4.67559 89.7645C4.69461 89.5475 4.71363 89.3305 4.74938 89.1238C5.946 79.2938 14.8038 72.1294 24.807 73.0064C28.0861 73.2938 31.0902 74.4055 33.627 76.1234C34.168 76.4857 34.6804 76.8717 35.1811 77.2916C36.1083 78.0725 37.4477 78.1725 38.5054 77.5656C38.9787 77.2922 39.468 77.0378 39.9725 76.8109C42.8289 75.4871 46.0639 74.8699 49.4303 75.1651C59.4685 76.0451 66.9415 84.6762 66.3715 94.5961C66.3722 94.7886 66.3555 94.9795 66.3387 95.1705L66.33 95.1697Z" fill="#FF5E89"/>
</g>
<g clip-path="url(#clip13_512_22200)">
<path d="M77.2184 161.665C94.4712 177.449 83.3443 204.042 81.2884 206.289C79.2325 208.536 52.3228 222.773 35.4427 207.33C35.282 207.183 35.1213 207.036 34.9789 206.882C27.9018 199.956 27.5989 188.567 34.3768 181.158C36.5986 178.73 39.3077 177.02 42.2139 176.051C42.8304 175.841 43.4485 175.669 44.0863 175.527C45.27 175.266 46.1637 174.263 46.3248 173.054C46.3956 172.512 46.4911 171.969 46.6176 171.431C47.3032 168.358 48.78 165.414 51.061 162.921C57.8627 155.486 69.2588 154.8 76.7882 161.284C76.9415 161.4 77.0829 161.53 77.2243 161.659L77.2184 161.665Z" fill="#FF5E89"/>
</g>
<g clip-path="url(#clip14_512_22200)">
<path d="M222.445 158.211C223.484 181.571 196.812 192.507 193.769 192.642C190.726 192.778 161.632 183.817 160.615 160.961C160.605 160.744 160.596 160.526 160.604 160.316C160.497 150.414 168.336 142.147 178.368 141.701C181.656 141.555 184.78 142.262 187.521 143.631C188.105 143.919 188.664 144.234 189.215 144.585C190.237 145.237 191.578 145.16 192.546 144.419C192.98 144.086 193.431 143.769 193.902 143.478C196.559 141.79 199.685 140.753 203.061 140.602C213.128 140.155 221.671 147.728 222.41 157.637C222.436 157.827 222.445 158.019 222.453 158.21L222.445 158.211Z" fill="#FF5E89"/>
</g>
<g clip-path="url(#clip15_512_22200)">
<path d="M285.683 118.635C303.579 133.685 293.572 160.719 291.611 163.05C289.651 165.381 263.359 180.728 245.849 166.003C245.682 165.863 245.516 165.723 245.367 165.575C238.007 158.95 237.229 147.584 243.692 139.899C245.81 137.379 248.446 135.559 251.309 134.468C251.916 134.234 252.527 134.036 253.158 133.867C254.33 133.557 255.181 132.518 255.291 131.303C255.339 130.759 255.412 130.212 255.516 129.669C256.073 126.57 257.426 123.567 259.601 120.981C266.086 113.269 277.444 112.108 285.237 118.272C285.395 118.382 285.542 118.505 285.688 118.628L285.683 118.635Z" fill="#FF5E89"/>
</g>
<g clip-path="url(#clip16_512_22200)">
<path d="M304.969 192.956C312.522 221.494 282.556 242.146 278.839 243.13C275.121 244.114 236.824 240.871 229.433 212.949C229.363 212.683 229.293 212.418 229.247 212.157C226.457 199.97 233.907 187.667 246.162 184.423C250.179 183.36 254.223 183.393 257.972 184.347C258.769 184.545 259.543 184.784 260.318 185.068C261.754 185.599 263.387 185.143 264.383 183.97C264.828 183.442 265.3 182.93 265.802 182.445C268.627 179.649 272.205 177.53 276.329 176.439C288.627 173.183 301.199 180.232 304.772 192.257C304.855 192.485 304.917 192.719 304.979 192.953L304.969 192.956Z" fill="#FF5E89"/>
</g>
<g clip-path="url(#clip17_512_22200)">
<path d="M101.461 252.629C103.624 282.071 70.3633 296.844 66.5283 297.126C62.6934 297.407 25.6506 287.159 23.5347 258.353C23.5146 258.079 23.4944 257.805 23.4972 257.54C23.0018 245.048 32.5926 234.329 45.2359 233.401C49.3803 233.096 53.3487 233.874 56.8573 235.503C57.6046 235.845 58.3213 236.222 59.0301 236.644C60.3434 237.43 62.0327 237.284 63.2282 236.314C63.7628 235.878 64.3211 235.462 64.904 235.077C68.1961 232.85 72.1028 231.427 76.3577 231.115C89.0452 230.183 100.102 239.428 101.397 251.906C101.437 252.146 101.454 252.387 101.472 252.628L101.461 252.629Z" fill="#FF5E89"/>
</g>
<g clip-path="url(#clip18_512_22200)">
<path d="M163.725 289.964C165.811 311.785 141.465 323.284 138.634 323.554C135.803 323.825 108.247 316.811 106.206 295.462C106.187 295.259 106.168 295.056 106.165 294.859C105.592 285.594 112.506 277.484 121.838 276.592C124.897 276.3 127.844 276.814 130.465 277.966C131.023 278.208 131.559 278.477 132.09 278.779C133.074 279.341 134.321 279.206 135.189 278.466C135.577 278.134 135.983 277.816 136.407 277.521C138.804 275.815 141.669 274.697 144.81 274.396C154.175 273.501 162.503 280.187 163.666 289.429C163.699 289.606 163.716 289.785 163.733 289.964L163.725 289.964Z" fill="#FF5E89"/>
</g>
<g clip-path="url(#clip19_512_22200)">
<path d="M20.4807 292.471C35.7481 308.199 23.9323 332.393 21.8919 334.374C19.8516 336.354 -6.04213 348.105 -20.9796 332.716C-21.1218 332.57 -21.264 332.423 -21.3887 332.271C-27.6272 325.397 -27.3002 314.745 -20.5734 308.216C-18.3684 306.075 -15.7468 304.635 -12.9807 303.896C-12.3937 303.736 -11.8073 303.61 -11.204 303.514C-10.0845 303.338 -9.19625 302.453 -8.98099 301.334C-8.88588 300.832 -8.76764 300.33 -8.62058 299.834C-7.81577 297.004 -6.27896 294.34 -4.01514 292.143C2.73517 285.59 13.4149 285.604 20.0994 292.09C20.2363 292.207 20.3615 292.336 20.4866 292.465L20.4807 292.471Z" fill="#FF5E89"/>
</g>
<g clip-path="url(#clip20_512_22200)">
<path d="M23.5806 200.763C28.3815 222.15 5.66645 236.607 2.89192 237.23C0.117399 237.853 -28.1002 234.344 -32.7974 213.418C-32.8421 213.219 -32.8869 213.02 -32.9138 212.825C-34.6419 203.705 -28.7981 194.793 -19.6509 192.74C-16.6525 192.067 -13.6645 192.208 -10.92 193.023C-10.3358 193.193 -9.77034 193.393 -9.20569 193.626C-8.15907 194.061 -6.9393 193.77 -6.17088 192.928C-5.82749 192.549 -5.46453 192.183 -5.08022 191.838C-2.91551 189.845 -0.213286 188.376 2.86508 187.685C12.0442 185.625 21.1435 191.216 23.4545 200.239C23.5099 200.411 23.5492 200.586 23.5886 200.761L23.5806 200.763Z" fill="#FF5E89"/>
</g>
<g clip-path="url(#clip21_512_22200)">
<path d="M19.0661 151.123C8.10274 173.708 -22.5632 170.447 -25.4931 169.025C-28.4231 167.602 -51.1963 144.32 -40.4698 122.223C-40.3677 122.013 -40.2656 121.802 -40.1506 121.608C-35.1895 112.205 -23.5943 108.392 -13.9348 113.081C-10.7684 114.618 -8.19249 116.877 -6.31567 119.566C-5.91389 120.136 -5.54969 120.718 -5.21027 121.33C-4.58292 122.466 -3.28288 123.077 -1.99353 122.871C-1.41585 122.777 -0.829459 122.708 -0.238433 122.672C3.12278 122.432 6.59165 123.045 9.84245 124.623C19.5357 129.329 23.6968 140.831 19.3273 150.563C19.2543 150.757 19.1644 150.942 19.0746 151.127L19.0661 151.123Z" fill="#FF5E89"/>
</g>
<g clip-path="url(#clip22_512_22200)">
<path d="M225.15 230.051C243.999 249.123 229.81 278.849 227.336 281.294C224.862 283.74 193.316 298.398 174.874 279.737C174.699 279.56 174.523 279.382 174.369 279.197C166.662 270.857 166.945 257.823 175.102 249.762C177.776 247.119 180.967 245.328 184.343 244.394C185.059 244.192 185.775 244.032 186.512 243.908C187.879 243.68 188.956 242.587 189.207 241.216C189.318 240.6 189.457 239.985 189.632 239.378C190.585 235.907 192.436 232.631 195.181 229.918C203.366 221.828 216.431 221.727 224.679 229.589C224.848 229.731 225.002 229.887 225.157 230.044L225.15 230.051Z" fill="#FF5E89"/>
</g>
<g clip-path="url(#clip23_512_22200)">
<path d="M308.319 273.012C313.142 298.284 285.947 314.384 282.669 315.01C279.39 315.636 246.42 310.452 241.701 285.726C241.656 285.491 241.611 285.256 241.587 285.026C239.904 274.261 247.097 264.027 257.905 261.965C261.448 261.288 264.948 261.567 268.137 262.627C268.816 262.849 269.472 263.104 270.126 263.399C271.337 263.949 272.779 263.654 273.712 262.695C274.129 262.264 274.569 261.848 275.033 261.457C277.648 259.202 280.873 257.581 284.511 256.887C295.357 254.817 305.821 261.72 308.19 272.392C308.249 272.596 308.288 272.803 308.328 273.01L308.319 273.012Z" fill="#FF5E89"/>
</g>
<g clip-path="url(#clip24_512_22200)">
<path d="M173.965 211.144C175.29 237.938 144.753 250.637 141.263 250.81C137.773 250.982 104.342 240.867 103.046 214.652C103.033 214.402 103.021 214.153 103.029 213.912C102.851 202.553 111.797 193.023 123.303 192.454C127.075 192.268 130.663 193.061 133.815 194.616C134.487 194.943 135.13 195.302 135.764 195.701C136.94 196.443 138.478 196.347 139.585 195.492C140.081 195.107 140.597 194.741 141.135 194.404C144.174 192.453 147.754 191.245 151.626 191.053C163.173 190.482 173.017 199.122 173.922 210.486C173.953 210.704 173.964 210.924 173.975 211.144L173.965 211.144Z" fill="#FF5E89"/>
</g>
</g>
<defs>
<clipPath id="clip0_512_22200">
<rect width="300" height="300" fill="white"/>
</clipPath>
<clipPath id="clip1_512_22200">
<rect width="70.7522" height="58.9602" fill="white" transform="translate(-14.7266 -4.35303) rotate(-13.2714)"/>
</clipPath>
<clipPath id="clip2_512_22200">
<rect width="58.9263" height="49.1053" fill="white" transform="translate(80.7891 -36.5272) rotate(-6.30643)"/>
</clipPath>
<clipPath id="clip3_512_22200">
<rect width="77.9514" height="64.9595" fill="white" transform="translate(157.438 -12.0325) rotate(-6.30643)"/>
</clipPath>
<clipPath id="clip4_512_22200">
<rect width="68.0375" height="56.6979" fill="white" transform="translate(57 21.4736) rotate(-6.30643)"/>
</clipPath>
<clipPath id="clip5_512_22200">
<rect width="61.4722" height="51.2269" fill="white" transform="translate(114.986 82.9071) rotate(-55.135)"/>
</clipPath>
<clipPath id="clip6_512_22200">
<rect width="61.4722" height="51.2269" fill="white" transform="translate(183.279 75.8354) rotate(0.676467)"/>
</clipPath>
<clipPath id="clip7_512_22200">
<rect width="61.4722" height="51.2269" fill="white" transform="translate(231.666 30.6052) rotate(-6.54642)"/>
</clipPath>
<clipPath id="clip8_512_22200">
<rect width="61.4722" height="51.2269" fill="white" transform="translate(261.666 -30.3948) rotate(-6.54642)"/>
</clipPath>
<clipPath id="clip9_512_22200">
<rect width="61.4722" height="51.2269" fill="white" transform="translate(294.141 27.1449) rotate(-56.8304)"/>
</clipPath>
<clipPath id="clip10_512_22200">
<rect width="75.6026" height="63.0022" fill="white" transform="translate(297.926 57.2323) rotate(6.59702)"/>
</clipPath>
<clipPath id="clip11_512_22200">
<rect width="70.3623" height="58.6352" fill="white" transform="translate(84.3262 112.09) rotate(-8.20997)"/>
</clipPath>
<clipPath id="clip12_512_22200">
<rect width="61.8909" height="51.5757" fill="white" transform="translate(6.28711 71.3827) rotate(5.01028)"/>
</clipPath>
<clipPath id="clip13_512_22200">
<rect width="61.8909" height="51.5757" fill="white" transform="translate(21.8281 194.875) rotate(-47.5467)"/>
</clipPath>
<clipPath id="clip14_512_22200">
<rect width="61.8909" height="51.5757" fill="white" transform="translate(159.795 142.527) rotate(-2.54729)"/>
</clipPath>
<clipPath id="clip15_512_22200">
<rect width="61.8909" height="51.5757" fill="white" transform="translate(231.727 154.127) rotate(-49.9383)"/>
</clipPath>
<clipPath id="clip16_512_22200">
<rect width="78.1362" height="65.1135" fill="white" transform="translate(223.473 190.429) rotate(-14.8255)"/>
</clipPath>
<clipPath id="clip17_512_22200">
<rect width="78.1362" height="65.1135" fill="white" transform="translate(21.8281 235.12) rotate(-4.20109)"/>
</clipPath>
<clipPath id="clip18_512_22200">
<rect width="57.781" height="48.3473" fill="white" transform="translate(104.561 278.244) rotate(-5.46012)"/>
</clipPath>
<clipPath id="clip19_512_22200">
<rect width="57.781" height="48.3473" fill="white" transform="translate(-33.0273 320.305) rotate(-44.1481)"/>
</clipPath>
<clipPath id="clip20_512_22200">
<rect width="57.781" height="48.3473" fill="white" transform="translate(-36.5859 196.541) rotate(-12.6517)"/>
</clipPath>
<clipPath id="clip21_512_22200">
<rect width="66.1796" height="55.3747" fill="white" transform="translate(-31.8184 104.4) rotate(25.8929)"/>
</clipPath>
<clipPath id="clip22_512_22200">
<rect width="70.6852" height="59.1448" fill="white" transform="translate(160 264.687) rotate(-44.6623)"/>
</clipPath>
<clipPath id="clip23_512_22200">
<rect width="67.8203" height="56.7476" fill="white" transform="translate(237.895 265.784) rotate(-10.8054)"/>
</clipPath>
<clipPath id="clip24_512_22200">
<rect width="71.0059" height="59.1716" fill="white" transform="translate(102 193.508) rotate(-2.83166)"/>
</clipPath>
</defs>
</svg>
