<svg width="300" height="300" viewBox="0 0 300 300" fill="none" xmlns="http://www.w3.org/2000/svg">
<rect width="300" height="300" fill="#FDE9D6"/>
<path d="M271.391 172.342C271.905 172.865 272.236 173.572 272.236 174.37C272.236 175.949 270.951 177.233 269.363 177.233H268.923C268.593 178.215 268.244 179.179 267.886 180.106C262.903 192.687 254.075 200 243.669 204.212V238.853C243.669 239.551 244.229 240.119 244.936 240.119H250.001C253.607 240.119 255.58 244.322 253.277 247.094L233.006 271.402C231.309 273.439 228.18 273.439 226.482 271.402L206.211 247.094C203.908 244.313 205.872 240.119 209.487 240.119H213.332C214.039 240.119 214.598 239.551 214.598 238.853V209.571C204.789 209.975 195.245 209.47 187.409 209.415C159.136 209.213 125.761 207.727 87.716 205.286C64.7107 203.827 53.3962 188.979 47.872 174.123C44.0271 163.854 42.9534 153.567 42.6781 147.685C41.0631 147.309 39.4205 146.639 37.8422 145.685C33.0796 142.877 28.8584 137.766 27.4912 131.828C26.7203 128.543 26.8305 125.01 28.2069 121.477C40.5767 121.422 46.4313 129.011 48.8172 135.361C50.9461 129.672 55.8647 122.992 65.7568 121.707C66.9039 121.56 68.1335 121.468 69.4274 121.477C73.777 132.709 65.399 143.941 56.7915 147.116C56.9475 148.438 57.1952 149.952 57.5715 151.549C59.3517 159.394 64.0225 169.342 76.3281 167.249C91.4692 164.671 94.0936 140.372 103.197 119.706V98.6924C103.197 97.5546 102.279 96.6369 101.141 96.6369H56.7731C48.7438 96.6369 42.2377 90.1308 42.2377 82.1015V41.9821C42.2377 34.1546 48.2482 27.4191 56.0757 27.0521C64.4263 26.6575 71.3178 33.3104 71.3178 41.5692V65.4921C71.3178 66.63 72.2354 67.5476 73.3733 67.5476H117.723C125.752 67.5476 132.258 74.0537 132.258 82.0831V88.5892C150.749 78.7337 173.488 75.678 192.584 75.678C204.275 75.678 270.162 80 272.18 150.668C272.346 156.541 272.061 161.826 271.364 166.607C271.373 166.607 271.382 166.616 271.391 166.625C271.905 167.139 272.236 167.855 272.236 168.644C272.236 169.819 271.538 170.81 270.538 171.25C270.51 171.406 270.474 171.562 270.437 171.709C270.795 171.856 271.125 172.076 271.391 172.352V172.342Z" fill="#FFCB9A" stroke="white" stroke-width="30" stroke-linecap="round" stroke-linejoin="round"/>
<path d="M253.268 247.084L232.998 271.393C231.3 273.43 228.171 273.43 226.473 271.393L206.203 247.084C203.899 244.304 205.863 240.11 209.479 240.11H213.324C214.021 240.11 214.59 239.541 214.59 238.844V139.996H117.714C109.685 139.996 103.179 133.489 103.179 125.46V98.6833C103.179 97.5546 102.261 96.6277 101.123 96.6277H56.7737C48.7444 96.6277 42.2383 90.1216 42.2383 82.0923V41.9821C42.2383 34.1546 48.2488 27.4191 56.0763 27.0521C64.4269 26.6575 71.3184 33.3104 71.3184 41.5692V65.5013C71.3184 66.63 72.236 67.5568 73.3739 67.5568H117.733C125.762 67.5568 132.268 74.0629 132.268 82.0923V110.925H229.144C237.173 110.925 243.679 117.431 243.679 125.46V238.844C243.679 239.541 244.248 240.11 244.945 240.11H250.011C253.617 240.11 255.59 244.313 253.287 247.084H253.268Z" fill="#FFCB9A"/>
<path d="M267.887 180.097C249.626 202.579 212.535 198.881 189.41 198.734C159.642 198.532 124.487 197.045 84.4041 194.614C66.0604 193.503 54.7826 184.74 47.8636 174.113C44.0278 163.836 42.9542 153.549 42.6697 147.667C41.0547 147.291 39.4121 146.612 37.8338 145.676C33.0712 142.868 28.85 137.756 27.4736 131.819C26.7028 128.534 26.8129 125.001 28.1893 121.459C40.5592 121.395 46.4045 128.984 48.7904 135.343C50.9193 129.645 55.8379 122.964 65.7301 121.679C66.8863 121.523 68.1068 121.45 69.4007 121.459C73.7595 132.7 65.3722 143.923 56.7647 147.107C56.9299 148.419 57.1685 149.934 57.5447 151.539C59.3249 159.385 64.0049 169.323 76.3013 167.231C96.1316 163.854 94.4982 123.221 114.062 102.299C133.626 81.3857 166.496 75.678 192.576 75.678C204.257 75.678 270.144 80.0001 272.172 150.659C272.512 162.762 270.915 172.407 267.878 180.097H267.887Z" fill="#FDE9D6"/>
<path d="M267.887 180.097C254.343 214.316 212.324 209.562 187.401 209.388C159.137 209.186 125.763 207.699 87.7171 205.268C64.7118 203.799 53.3973 188.961 47.873 174.104C54.7921 184.731 66.0699 193.494 84.4136 194.605C124.487 197.036 159.642 198.523 189.419 198.725C212.544 198.881 249.635 202.579 267.896 180.088L267.887 180.097Z" fill="#FFCB9A"/>
<path d="M246.671 159.183C249.99 159.183 252.681 156.492 252.681 153.173C252.681 149.853 249.99 147.162 246.671 147.162C243.351 147.162 240.66 149.853 240.66 153.173C240.66 156.492 243.351 159.183 246.671 159.183Z" fill="black"/>
<path d="M271.393 172.342C271.907 172.865 272.228 173.572 272.228 174.37C272.228 175.949 270.943 177.233 269.356 177.233H255.16C251.994 177.233 249.434 174.673 249.434 171.507C249.434 168.341 251.994 165.781 255.16 165.781H269.356C270.154 165.781 270.861 166.102 271.384 166.616C271.897 167.13 272.219 167.846 272.219 168.635C272.219 170.223 270.934 171.498 269.346 171.498C270.145 171.498 270.851 171.819 271.374 172.333L271.393 172.342Z" fill="#FFCB9A"/>
<path d="M255.811 171.507H269.364" stroke="black" stroke-width="1.83528" stroke-linecap="round" stroke-linejoin="round"/>
</svg>
