<svg width="300" height="300" viewBox="0 0 300 300" fill="none" xmlns="http://www.w3.org/2000/svg">
<g clip-path="url(#clip0_794_454)">
<path d="M282.32 174.35C282.88 174.92 283.24 175.69 283.24 176.56C283.24 178.28 281.84 179.68 280.11 179.68H279.63C279.27 180.75 278.89 181.8 278.5 182.81C273.07 196.52 263.45 204.49 252.11 209.08V246.83C252.11 247.59 252.72 248.21 253.49 248.21H259.01C262.94 248.21 265.09 252.79 262.58 255.81L240.49 282.3C238.64 284.52 235.23 284.52 233.38 282.3L211.29 255.81C208.78 252.78 210.92 248.21 214.86 248.21H219.05C219.82 248.21 220.43 247.59 220.43 246.83V214.92C209.74 215.36 199.34 214.81 190.8 214.75C159.99 214.53 123.62 212.91 82.1601 210.25C57.0901 208.66 44.7601 192.48 38.7401 176.29C34.5501 165.1 33.3801 153.89 33.0801 147.48C31.3201 147.07 29.5301 146.34 27.8101 145.3C22.6201 142.24 18.0201 136.67 16.5301 130.2C15.6901 126.62 15.8101 122.77 17.3101 118.92C30.7901 118.86 37.1701 127.13 39.7701 134.05C42.0901 127.85 47.4501 120.57 58.2301 119.17C59.4801 119.01 60.8201 118.91 62.2301 118.92C66.9701 131.16 57.8401 143.4 48.4601 146.86C48.6301 148.3 48.9001 149.95 49.3101 151.69C51.2501 160.24 56.3401 171.08 69.7501 168.8C86.2501 165.99 89.1101 139.51 99.0301 116.99V94.0899C99.0301 92.8499 98.0301 91.8499 96.7901 91.8499H48.4401C39.6901 91.8499 32.6001 84.7599 32.6001 76.0099V32.2899C32.6001 23.7599 39.1501 16.4199 47.6801 16.0199C56.7801 15.5899 64.2901 22.8399 64.2901 31.8399V57.9099C64.2901 59.1499 65.2901 60.1499 66.5301 60.1499H114.86C123.61 60.1499 130.7 67.2399 130.7 75.9899V83.0799C150.85 72.3399 175.63 69.0099 196.44 69.0099C209.18 69.0099 280.98 73.7199 283.18 150.73C283.36 157.13 283.05 162.89 282.29 168.1C282.3 168.1 282.31 168.11 282.32 168.12C282.88 168.68 283.24 169.46 283.24 170.32C283.24 171.6 282.48 172.68 281.39 173.16C281.36 173.33 281.32 173.5 281.28 173.66C281.67 173.82 282.03 174.06 282.32 174.36V174.35Z" fill="#FFCB9A" stroke="white" stroke-width="30" stroke-linecap="round" stroke-linejoin="round"/>
<path d="M262.57 255.8L240.48 282.29C238.63 284.51 235.22 284.51 233.37 282.29L211.28 255.8C208.77 252.77 210.91 248.2 214.85 248.2H219.04C219.8 248.2 220.42 247.58 220.42 246.82V139.1H114.85C106.1 139.1 99.0096 132.01 99.0096 123.26V94.0799C99.0096 92.8499 98.0096 91.8399 96.7696 91.8399H48.4396C39.6896 91.8399 32.5996 84.7499 32.5996 75.9999V32.2899C32.5996 23.7599 39.1496 16.4199 47.6796 16.0199C56.7796 15.5899 64.2896 22.8399 64.2896 31.8399V57.9199C64.2896 59.1499 65.2896 60.1599 66.5296 60.1599H114.87C123.62 60.1599 130.71 67.2499 130.71 75.9999V107.42H236.28C245.03 107.42 252.12 114.51 252.12 123.26V246.82C252.12 247.58 252.74 248.2 253.5 248.2H259.02C262.95 248.2 265.1 252.78 262.59 255.8H262.57Z" fill="#FFCB9A"/>
<path d="M278.501 182.8C258.601 207.3 218.181 203.27 192.981 203.11C160.541 202.89 122.231 201.27 78.5506 198.62C58.5606 197.41 46.2706 187.86 38.7306 176.28C34.5506 165.08 33.3806 153.87 33.0706 147.46C31.3106 147.05 29.5206 146.31 27.8006 145.29C22.6106 142.23 18.0106 136.66 16.5106 130.19C15.6706 126.61 15.7906 122.76 17.2906 118.9C30.7706 118.83 37.1406 127.1 39.7406 134.03C42.0606 127.82 47.4206 120.54 58.2006 119.14C59.4606 118.97 60.7906 118.89 62.2006 118.9C66.9506 131.15 57.8106 143.38 48.4306 146.85C48.6106 148.28 48.8706 149.93 49.2806 151.68C51.2206 160.23 56.3206 171.06 69.7206 168.78C91.3306 165.1 89.5506 120.82 110.871 98.02C132.191 75.23 168.011 69.01 196.431 69.01C209.161 69.01 280.961 73.72 283.171 150.72C283.541 163.91 281.801 174.42 278.491 182.8H278.501Z" fill="#FDE9D6"/>
<path d="M278.5 182.8C263.74 220.09 217.95 214.91 190.79 214.72C159.99 214.5 123.62 212.88 82.1602 210.23C57.0902 208.63 44.7602 192.46 38.7402 176.27C46.2802 187.85 58.5702 197.4 78.5602 198.61C122.23 201.26 160.54 202.88 192.99 203.1C218.19 203.27 258.61 207.3 278.51 182.79L278.5 182.8Z" fill="#FFCB9A"/>
<path d="M255.38 160.01C258.998 160.01 261.93 157.077 261.93 153.46C261.93 149.842 258.998 146.91 255.38 146.91C251.763 146.91 248.83 149.842 248.83 153.46C248.83 157.077 251.763 160.01 255.38 160.01Z" fill="black"/>
<path d="M282.321 174.35C282.881 174.92 283.231 175.69 283.231 176.56C283.231 178.28 281.831 179.68 280.101 179.68H264.631C261.181 179.68 258.391 176.89 258.391 173.44C258.391 169.99 261.181 167.2 264.631 167.2H280.101C280.971 167.2 281.741 167.55 282.311 168.11C282.871 168.67 283.221 169.45 283.221 170.31C283.221 172.04 281.821 173.43 280.091 173.43C280.961 173.43 281.731 173.78 282.301 174.34L282.321 174.35Z" fill="#FFCB9A"/>
<path d="M265.34 173.44H280.11" stroke="black" stroke-width="2" stroke-linecap="round" stroke-linejoin="round"/>
</g>
<defs>
<clipPath id="clip0_794_454">
<rect width="297.24" height="297.95" fill="white" transform="translate(1 1)"/>
</clipPath>
</defs>
</svg>
