<svg width="411" height="411" viewBox="0 0 411 411" fill="none" xmlns="http://www.w3.org/2000/svg">
<g clip-path="url(#clip0_742_1532)">
<rect width="410.3" height="410.3" fill="white"/>
<g clip-path="url(#clip1_742_1532)">
<path d="M547.067 64.0082L205.492 205.492L346.976 -136.083L547.067 64.0082Z" fill="white"/>
<path d="M547.067 346.987L346.976 547.066L205.492 205.503L547.067 346.987Z" fill="white"/>
<path d="M346.975 547.066H64.0078L205.491 205.503L346.975 547.066Z" fill="#CAD3E7"/>
<path d="M205.493 205.503L64.0091 547.066L-136.082 346.987L205.493 205.503Z" fill="white"/>
<path d="M205.493 205.492V205.504L-136.082 346.987V64.0083L205.493 205.492Z" fill="#CAD3E7"/>
<path d="M205.493 205.492L-136.082 64.0082L64.0091 -136.083L205.493 205.492Z" fill="white"/>
<path d="M346.975 -136.083L205.491 205.492L64.0078 -136.083H346.975Z" fill="#CAD3E7"/>
<path d="M547.067 64.0083V346.987L205.492 205.504V205.492L547.067 64.0083Z" fill="#CAD3E7"/>
</g>
<g clip-path="url(#clip2_742_1532)">
<path d="M205.5 205.47V205.499H205.471L205.328 205.442L-125.141 68.5383L68.5393 -125.142L205.414 205.285L205.5 205.47Z" fill="#FFCB9A"/>
<path d="M342.446 -125.142L205.557 205.342L205.5 205.47L205.443 205.342L205.414 205.285L68.5391 -125.142H342.446Z" fill="#536A9C"/>
<path d="M536.124 68.5383L205.57 205.456L205.498 205.485V205.47L205.541 205.37L205.555 205.342L342.444 -125.142L364.638 -102.948L513.931 46.345L536.124 68.5383Z" fill="#FFCB9A"/>
<path d="M536.124 68.5383V342.445L205.57 205.528L205.498 205.499V205.485L205.57 205.456H205.584L536.124 68.5383Z" fill="#536A9C"/>
<path d="M536.124 342.445L513.931 364.639L364.638 513.932L342.444 536.125L205.555 205.642L205.498 205.499L205.57 205.528L536.124 342.445Z" fill="#FFCB9A"/>
<path d="M342.446 536.125H68.5391L205.485 205.499H205.5L205.557 205.642L205.571 205.656L342.446 536.125Z" fill="#536A9C"/>
<path d="M205.486 205.499L68.5392 536.125L46.3317 513.918L-125.141 342.445L205.343 205.556L205.414 205.528L205.471 205.499H205.486Z" fill="#FFCB9A"/>
<path d="M205.471 205.499L205.414 205.528L205.343 205.556L205.328 205.57L-125.141 342.445V68.5383L205.257 205.413L205.328 205.442L205.428 205.47L205.457 205.485L205.471 205.499Z" fill="#536A9C"/>
<path d="M536.127 99.9346V311.049L205.572 205.527L205.501 205.499H205.486V205.485H205.501L205.572 205.456H205.586L536.127 99.9346Z" fill="#BBC8E5"/>
<path d="M205.486 205.485V205.499H205.457L205.443 205.513L205.414 205.527L-125.141 311.049V99.9346L205.257 205.413L205.328 205.442L205.414 205.456L205.428 205.47L205.457 205.485H205.486Z" fill="#BBC8E5"/>
<path d="M311.049 -125.142L205.499 205.456V205.47L205.484 205.485L205.47 205.456L205.441 205.342L205.413 205.285L99.9199 -125.142H311.049Z" fill="#BBC8E5"/>
<path d="M311.049 536.125H99.9199L205.484 205.499L311.049 536.125Z" fill="#BBC8E5"/>
<path d="M513.934 46.3449L205.572 205.456L205.501 205.485V205.499H205.486V205.485L205.501 205.47V205.456L205.543 205.37L205.558 205.342L364.64 -102.948L513.934 46.3449Z" fill="#CAD3E7"/>
<path d="M205.486 205.485V205.499L46.3319 513.918L-102.947 364.639L205.343 205.556L205.414 205.527L205.457 205.499H205.471L205.486 205.485Z" fill="#CAD3E7"/>
<path d="M513.934 46.3449L205.572 205.456L205.501 205.485V205.499H205.486V205.485L205.501 205.47V205.456L205.543 205.37L205.558 205.342L364.64 -102.948L513.934 46.3449Z" fill="#FDE9D6"/>
<path d="M205.486 205.485V205.499L46.3319 513.918L-102.947 364.639L205.343 205.556L205.414 205.527L205.457 205.499H205.471L205.486 205.485Z" fill="#FDE9D6"/>
<path d="M205.486 205.485V205.499H205.471L205.414 205.456L-102.947 46.345L46.3319 -102.934L205.471 205.456L205.486 205.485Z" fill="#FDE9D6"/>
<path d="M513.934 364.639L364.64 513.932L205.558 205.642L205.486 205.499V205.485H205.501V205.499L205.572 205.527L513.934 364.639Z" fill="#FDE9D6"/>
<g clip-path="url(#clip3_742_1532)">
<g clip-path="url(#clip4_742_1532)">
<path d="M205.232 87.6673C225.355 87.6673 241.668 71.3546 241.668 51.232C241.668 31.1093 225.355 14.7966 205.232 14.7966C185.11 14.7966 168.797 31.1093 168.797 51.232C168.797 71.3546 185.11 87.6673 205.232 87.6673Z" fill="#C3CBDC" stroke="white" stroke-width="8.2" stroke-miterlimit="10"/>
<path d="M241.666 51.2319C241.666 58.1445 239.739 64.6089 236.396 70.1165C236.396 70.122 236.396 70.122 236.39 70.1247C230 80.6426 218.435 87.6673 205.23 87.6673C185.107 87.6673 168.795 71.3547 168.795 51.2319C168.795 42.3295 171.99 34.1705 177.296 27.8428C183.979 19.8669 194.01 14.7993 205.23 14.7993C225.353 14.7993 241.663 31.1091 241.663 51.2319H241.666Z" fill="#C3CBDC"/>
<path d="M241.665 51.2319C241.665 58.1445 239.738 64.6089 236.395 70.1165C236.395 70.122 236.395 70.122 236.39 70.1247C229.707 78.0869 219.678 83.1491 208.469 83.1491C188.346 83.1491 172.033 66.8365 172.033 46.7137C172.033 39.8066 173.957 33.3477 177.295 27.8428C183.978 19.8669 194.009 14.7993 205.23 14.7993C225.352 14.7993 241.662 31.1091 241.662 51.2319H241.665Z" fill="#DAE3F7"/>
<path d="M214.318 42.0068C215.651 42.0068 216.731 40.9262 216.731 39.5932C216.731 38.2603 215.651 37.1797 214.318 37.1797C212.985 37.1797 211.904 38.2603 211.904 39.5932C211.904 40.9262 212.985 42.0068 214.318 42.0068Z" fill="black"/>
<path d="M227.498 42.0068C228.83 42.0068 229.911 40.9262 229.911 39.5932C229.911 38.2603 228.83 37.1797 227.498 37.1797C226.165 37.1797 225.084 38.2603 225.084 39.5932C225.084 40.9262 226.165 42.0068 227.498 42.0068Z" fill="black"/>
<path d="M217.768 44.199H223.915" stroke="black" stroke-width="0.546667" stroke-linecap="round" stroke-linejoin="round"/>
<path d="M217.357 43.103C217.357 43.103 218.284 44.1636 217.357 45.2979" stroke="black" stroke-width="0.546667" stroke-linecap="round" stroke-linejoin="round"/>
<path d="M224.529 43.103C224.529 43.103 223.602 44.1636 224.529 45.2979" stroke="black" stroke-width="0.546667" stroke-linecap="round" stroke-linejoin="round"/>
<path d="M196.385 26.4871C197.801 29.0236 196.278 32.5715 192.984 34.4083C189.691 36.2451 185.87 35.6793 184.456 33.1427C184.35 32.9514 184.257 32.7519 184.186 32.5496C183.281 30.0787 184.814 26.9217 187.859 25.2215C190.904 23.5214 194.392 23.8767 196.021 25.9459C196.158 26.1126 196.278 26.2957 196.385 26.4871Z" fill="#AAB1C1"/>
<path d="M196.021 25.9486C196.926 28.4195 195.395 31.5738 192.35 33.2739C189.305 34.974 185.815 34.6214 184.186 32.5523C183.281 30.0814 184.814 26.9244 187.859 25.2242C190.904 23.5241 194.392 23.8794 196.021 25.9486Z" fill="#C3CBDC"/>
<path d="M227.903 27.8892C227.061 29.07 224.866 28.9552 223.005 27.6268C221.143 26.2984 220.318 24.2621 221.16 23.0813C221.223 22.9911 221.297 22.9091 221.376 22.8353C222.335 21.9223 224.339 22.1191 226.058 23.3464C227.78 24.5737 228.614 26.4023 228.064 27.6077C228.021 27.7061 227.966 27.8017 227.903 27.8919V27.8892Z" fill="#AAB1C1"/>
<path d="M228.064 27.6049C227.104 28.5179 225.103 28.3238 223.384 27.0965C221.662 25.8693 220.826 24.0379 221.378 22.8353C222.337 21.9223 224.341 22.1191 226.06 23.3464C227.782 24.5737 228.616 26.4023 228.066 27.6077L228.064 27.6049Z" fill="#C3CBDC"/>
<path d="M221.479 70.8107C221.479 73.7162 219.137 76.0724 216.245 76.0724C213.353 76.0724 211.008 73.7162 211.008 70.8107C211.008 70.592 211.021 70.3734 211.049 70.1602C211.366 67.5608 213.572 65.5518 216.245 65.5518C218.918 65.5518 221.121 67.5608 221.438 70.1602C221.466 70.3706 221.479 70.592 221.479 70.8107Z" fill="#AAB1C1"/>
<path d="M221.438 70.1602C221.121 72.7596 218.918 74.7686 216.245 74.7686C213.572 74.7686 211.366 72.7596 211.049 70.1602C211.366 67.5608 213.572 65.5518 216.245 65.5518C218.918 65.5518 221.121 67.5608 221.438 70.1602Z" fill="#C3CBDC"/>
<path d="M188.346 51.9372C188.346 53.9079 186.725 55.5096 184.724 55.5096C182.723 55.5096 181.1 53.9106 181.1 51.9372C181.1 51.7896 181.108 51.6392 181.13 51.4971C181.348 49.7314 182.876 48.3674 184.727 48.3674C186.577 48.3674 188.102 49.7314 188.321 51.4971C188.34 51.642 188.351 51.7896 188.351 51.9372H188.346Z" fill="#AAB1C1"/>
<path d="M188.316 51.4971C188.098 53.2628 186.573 54.6268 184.722 54.6268C182.872 54.6268 181.346 53.2628 181.125 51.4971C181.344 49.7314 182.872 48.3674 184.722 48.3674C186.573 48.3674 188.098 49.7314 188.316 51.4971Z" fill="#C3CBDC"/>
<path d="M206.546 52.6722C206.546 53.9733 205.477 55.0284 204.157 55.0284C202.837 55.0284 201.766 53.9733 201.766 52.6722C201.766 52.5738 201.771 52.4754 201.785 52.3825C201.93 51.2181 202.935 50.3188 204.157 50.3188C205.379 50.3188 206.382 51.2181 206.527 52.3825C206.541 52.4782 206.546 52.5766 206.546 52.6722Z" fill="#AAB1C1"/>
<path d="M206.527 52.3798C206.383 53.5442 205.377 54.4435 204.158 54.4435C202.939 54.4435 201.93 53.5442 201.785 52.3798C201.93 51.2154 202.936 50.3162 204.158 50.3162C205.379 50.3162 206.383 51.2154 206.527 52.3798Z" fill="#C3CBDC"/>
<path d="M238.156 53.8121C238.156 54.9793 237.464 55.9277 236.612 55.9277C235.759 55.9277 235.064 54.9793 235.064 53.8121C235.064 53.7247 235.067 53.6372 235.075 53.5497C235.168 52.5056 235.819 51.6965 236.609 51.6965C237.399 51.6965 238.049 52.5056 238.142 53.5497C238.15 53.6345 238.153 53.7219 238.153 53.8121H238.156Z" fill="#AAB1C1"/>
<path d="M238.143 53.5497C238.05 54.5939 237.4 55.4029 236.61 55.4029C235.82 55.4029 235.169 54.5939 235.076 53.5497C235.169 52.5056 235.82 51.6965 236.61 51.6965C237.4 51.6965 238.05 52.5056 238.143 53.5497Z" fill="#C3CBDC"/>
</g>
</g>
<g clip-path="url(#clip5_742_1532)">
<g clip-path="url(#clip6_742_1532)">
<path d="M46.4834 166.502C48.5989 168.791 50.007 171.656 50.8158 174.91C52.5744 174.475 54.3493 174.243 56.1143 174.243C63.9704 174.243 69.4031 178.056 72.7859 184.141C77.138 185.374 78.9784 189.298 79.7414 194.645C82.8426 195.099 85.2822 199.557 85.2822 204.988C85.2822 210.42 82.8426 214.877 79.7414 215.332C78.9784 220.678 77.138 224.599 72.7859 225.832C69.4064 231.918 63.9704 235.731 56.1143 235.731C54.3493 235.731 52.5776 235.499 50.8191 235.064C50.007 238.318 48.5989 241.182 46.4834 243.475C41.9283 248.403 32.0615 249.459 24.3725 243.664C21.8248 241.751 19.5128 239.083 17.7183 235.558C17.3548 234.855 17.0142 234.122 16.7031 233.354C17.9049 234.887 19.1264 236.123 20.3512 237.095C27.8568 243.05 35.297 239.099 37.5009 234.498C38.1885 233.069 38.6175 231.1 38.7944 228.867C31.1414 222.719 25.5874 213.399 25.5874 204.988C25.5874 196.578 31.1413 187.258 38.7944 181.11C38.6175 178.876 38.1885 176.911 37.5009 175.482C35.297 170.878 27.8568 166.927 20.3512 172.885C19.1264 173.857 17.9049 175.09 16.7031 176.626C17.0175 175.855 17.3548 175.122 17.7183 174.419C19.5128 170.894 21.8248 168.226 24.3725 166.312C32.0615 160.518 41.9283 161.574 46.4834 166.502Z" fill="#C3CBDC" stroke="white" stroke-width="8.2" stroke-linecap="round" stroke-linejoin="round"/>
<path d="M85.278 204.991C85.278 199.257 82.5627 194.608 79.2132 194.608C75.8637 194.608 73.1484 199.257 73.1484 204.991C73.1484 210.725 75.8637 215.374 79.2132 215.374C82.5627 215.374 85.278 210.725 85.278 204.991Z" fill="#AAB1C1"/>
<path d="M49.4593 212.322C52.8028 224.549 52.8388 236.602 46.4859 243.476C41.934 248.401 32.0673 249.461 24.375 243.666C31.4156 247.109 39.3175 245.742 43.2472 241.491C49.2334 235.02 49.551 223.954 46.7773 212.485L49.4593 212.322Z" fill="#AAB1C1"/>
<path d="M46.7742 212.485C49.5479 223.954 49.2303 235.02 43.2441 241.492C39.3144 245.746 31.4125 247.11 24.3719 243.666C21.8242 241.753 19.5122 239.085 17.7177 235.559C17.3542 234.856 17.0136 234.124 16.6992 233.352C17.901 234.886 19.1258 236.122 20.3473 237.093C27.8529 243.051 35.2931 239.098 37.4969 234.497C39.6746 229.954 39.2489 220.072 36.4392 213.107L46.7709 212.485L46.7742 212.485Z" fill="#C3CBDC"/>
<path d="M49.4593 197.656C52.8028 185.429 52.8388 173.375 46.4859 166.502C41.934 161.577 32.0673 160.517 24.375 166.312C31.4156 162.869 39.3175 164.235 43.2472 168.487C49.2334 174.958 49.551 186.024 46.7773 197.493L49.4593 197.656Z" fill="#AAB1C1"/>
<path d="M46.7742 197.492C49.5479 186.024 49.2303 174.958 43.2441 168.486C39.3144 164.232 31.4125 162.868 24.3719 166.312C21.8241 168.225 19.5122 170.893 17.7177 174.418C17.3542 175.121 17.0136 175.854 16.6992 176.626C17.901 175.092 19.1258 173.856 20.3473 172.885C27.8529 166.926 35.2931 170.88 37.4969 175.481C39.6746 180.023 39.2489 189.906 36.4392 196.871L46.7709 197.492L46.7742 197.492Z" fill="#C3CBDC"/>
<path d="M56.1181 174.245C71.0442 174.245 77.2269 188.009 77.2269 204.991C77.2269 221.973 71.0442 235.737 56.1181 235.737C41.1919 235.737 25.5879 219.082 25.5879 204.991C25.5879 190.9 41.1919 174.245 56.1181 174.245Z" fill="#DAE3F7"/>
<path d="M61.773 213.425C60.4173 207.854 54.134 204.597 47.7387 206.149C41.3435 207.701 37.2581 213.475 38.6137 219.045C39.9694 224.616 46.2527 227.873 52.648 226.321C59.0432 224.769 63.1286 218.995 61.773 213.425Z" fill="white"/>
<path d="M62.0692 194.105C62.0692 188.372 57.4156 183.725 51.6752 183.725C45.9348 183.725 41.2812 188.372 41.2812 194.105C41.2812 199.837 45.9348 204.484 51.6752 204.484C57.4156 204.484 62.0692 199.837 62.0692 194.105Z" fill="white"/>
<path d="M69.5768 183.735C79.4435 183.735 80.2655 193.255 80.2655 204.991C80.2655 216.728 79.4435 226.244 69.5768 226.244C69.1805 226.244 68.7778 226.227 68.3815 226.198C58.8881 225.475 49.3652 216.257 49.3652 204.991C49.3652 193.725 58.8881 184.504 68.3815 183.781C68.7778 183.751 69.1805 183.735 69.5768 183.735Z" fill="#AAB1C1"/>
<path d="M68.3815 183.781C77.1741 184.504 77.9273 193.726 77.9273 204.991C77.9273 216.257 77.1709 225.475 68.3815 226.198C58.8881 225.475 49.3652 216.257 49.3652 204.991C49.3652 193.726 58.8881 184.504 68.3815 183.781Z" fill="#C3CBDC"/>
<path d="M46.5915 219.984C46.5915 218.4 45.3057 217.116 43.7196 217.116C42.1335 217.116 40.8477 218.4 40.8477 219.984C40.8477 221.568 42.1335 222.852 43.7196 222.852C45.3057 222.852 46.5915 221.568 46.5915 219.984Z" fill="black"/>
<path d="M54.2771 188.01C54.2771 186.426 52.9913 185.142 51.4051 185.142C49.819 185.142 48.5332 186.426 48.5332 188.01C48.5332 189.593 49.819 190.877 51.4051 190.877C52.9913 190.877 54.2771 189.593 54.2771 188.01Z" fill="black"/>
<path d="M65.8825 206.943C69.894 206.943 73.1491 209.088 73.1491 211.73C73.1491 214.373 69.8973 216.518 65.8825 216.518C65.6074 216.518 65.3389 216.505 65.0736 216.492C61.4419 216.224 58.6191 214.193 58.6191 211.73C58.6191 209.268 61.4452 207.237 65.0736 206.969C65.3389 206.953 65.6107 206.943 65.8825 206.943Z" fill="#969CA9"/>
<path d="M65.0736 206.969C68.7053 207.237 71.5248 209.268 71.5248 211.73C71.5248 214.193 68.702 216.223 65.0736 216.491C61.4419 216.223 58.6191 214.193 58.6191 211.73C58.6191 209.268 61.4452 207.237 65.0736 206.969Z" fill="#AAB1C1"/>
<path d="M65.8825 193.46C69.894 193.46 73.1491 195.605 73.1491 198.247C73.1491 200.889 69.8973 203.035 65.8825 203.035C65.6074 203.035 65.3389 203.022 65.0736 203.009C61.4419 202.74 58.6191 200.71 58.6191 198.247C58.6191 195.785 61.4452 193.754 65.0736 193.486C65.3389 193.47 65.6107 193.46 65.8825 193.46Z" fill="#969CA9"/>
<path d="M65.0736 193.486C68.7053 193.754 71.5248 195.785 71.5248 198.247C71.5248 200.709 68.702 202.74 65.0736 203.008C61.4419 202.74 58.6191 200.709 58.6191 198.247C58.6191 195.785 61.4452 193.754 65.0736 193.486Z" fill="#AAB1C1"/>
</g>
</g>
<g clip-path="url(#clip7_742_1532)">
<path d="M168.363 355.83C168.363 335.527 184.828 331.299 205.132 331.299C225.435 331.299 241.9 335.527 241.9 355.83C241.9 362.631 240.055 368.997 236.836 374.461C238.169 375.516 239.285 376.888 240.044 378.533C242.647 384.134 240.217 390.779 234.622 393.384C234.616 393.389 234.613 393.392 234.608 393.392C229.887 395.579 224.426 394.198 221.264 390.358C216.428 392.96 210.943 394.431 205.132 394.431C199.321 394.431 193.786 392.946 188.937 390.325C185.785 394.19 180.302 395.584 175.571 393.389C175.565 393.389 175.562 393.384 175.557 393.381C169.962 390.779 167.529 384.131 170.134 378.531C170.908 376.861 172.042 375.472 173.4 374.414C170.2 368.959 168.363 362.612 168.363 355.828L168.363 355.83Z" fill="#C3CBDC" stroke="white" stroke-width="8.2" stroke-miterlimit="10"/>
<path d="M223.248 374.25C223.841 373.802 224.491 373.417 225.191 373.094C230.792 370.492 237.447 372.925 240.044 378.531C242.646 384.131 240.216 390.776 234.621 393.381C234.615 393.386 234.613 393.389 234.607 393.389C229.001 395.988 222.351 393.553 219.749 387.947C217.472 383.041 219.057 377.333 223.248 374.248L223.248 374.25Z" fill="#C3CBDC"/>
<path d="M223.249 374.25C223.249 374.25 223.257 374.242 223.262 374.242C228.868 371.64 235.519 374.073 238.121 379.679C240.398 384.585 238.812 390.292 234.622 393.381C234.617 393.386 234.614 393.389 234.608 393.389C229.002 395.988 222.352 393.553 219.75 387.947C217.473 383.041 219.058 377.333 223.249 374.248L223.249 374.25Z" fill="#DAE3F7"/>
<path d="M235.842 380.482C237.105 383.205 236.343 386.345 234.172 388.209C233.73 388.6 233.221 388.928 232.661 389.191C229.375 390.716 225.478 389.289 223.952 386.004C222.911 383.76 223.253 381.223 224.622 379.359C225.254 378.501 226.106 377.782 227.142 377.301C230.422 375.778 234.323 377.205 235.845 380.485L235.842 380.482Z" fill="#969CA9"/>
<path d="M234.836 381.562C235.881 383.811 235.539 386.345 234.172 388.206C233.729 388.597 233.221 388.925 232.661 389.188C229.375 390.713 225.477 389.286 223.952 386.001C222.911 383.757 223.253 381.22 224.622 379.356C225.067 378.968 225.573 378.64 226.136 378.38C229.416 376.858 233.317 378.284 234.839 381.564L234.836 381.562Z" fill="#AAB1C1"/>
<path d="M186.929 374.25C186.335 373.802 185.685 373.417 184.985 373.094C179.385 370.492 172.729 372.925 170.132 378.531C167.53 384.131 169.96 390.776 175.555 393.381C175.561 393.386 175.563 393.389 175.569 393.389C181.175 395.988 187.825 393.553 190.427 387.947C192.704 383.041 191.119 377.333 186.929 374.248L186.929 374.25Z" fill="#C3CBDC"/>
<path d="M186.929 374.25C186.929 374.25 186.92 374.242 186.915 374.242C181.309 371.64 174.659 374.073 172.057 379.679C169.78 384.585 171.365 390.292 175.555 393.381C175.561 393.386 175.563 393.389 175.569 393.389C181.175 395.988 187.825 393.553 190.427 387.947C192.704 383.041 191.119 377.333 186.929 374.248L186.929 374.25Z" fill="#DAE3F7"/>
<path d="M174.333 380.482C173.071 383.205 173.833 386.345 176.004 388.209C176.446 388.6 176.955 388.928 177.515 389.191C180.801 390.716 184.698 389.289 186.223 386.004C187.265 383.76 186.923 381.223 185.554 379.359C184.922 378.501 184.07 377.782 183.034 377.301C179.754 375.778 175.853 377.205 174.331 380.485L174.333 380.482Z" fill="#969CA9"/>
<path d="M175.339 381.562C174.295 383.811 174.637 386.345 176.004 388.207C176.446 388.598 176.955 388.926 177.515 389.188C180.801 390.713 184.698 389.286 186.223 386.001C187.265 383.757 186.923 381.22 185.554 379.356C185.108 378.968 184.603 378.64 184.04 378.38C180.76 376.858 176.859 378.285 175.337 381.565L175.339 381.562Z" fill="#AAB1C1"/>
<path d="M168.363 355.83C168.363 335.527 184.828 331.299 205.132 331.299C225.435 331.299 241.9 335.527 241.9 355.83C241.9 364.03 239.216 371.596 234.684 377.711C227.985 386.742 217.24 392.599 205.132 392.599C193.023 392.599 182.278 386.742 175.579 377.711C171.044 371.596 168.363 364.03 168.363 355.83Z" fill="#C3CBDC"/>
<path d="M175.578 377.711C182.277 386.742 193.022 392.599 205.131 392.599C217.239 392.599 227.984 386.742 234.684 377.711C228.397 387.777 217.51 394.43 205.131 394.43C192.752 394.43 181.865 387.777 175.578 377.708L175.578 377.711Z" fill="#DAE3F7"/>
<path d="M169.884 357.662C169.884 337.358 185.664 333.13 205.131 333.13C224.597 333.13 240.377 337.359 240.377 357.662C240.377 365.061 238.283 371.943 234.683 377.708C227.984 386.739 217.239 392.596 205.131 392.596C193.022 392.596 182.277 386.739 175.578 377.708C171.978 371.943 169.884 365.058 169.884 357.662Z" fill="#DAE3F7"/>
<path d="M186.916 344.845C186.916 336.079 195.072 334.22 205.131 334.22C215.189 334.22 223.346 336.079 223.346 344.845C223.346 345.187 223.329 345.523 223.294 345.854C222.449 354.146 211.366 360.712 205.134 360.712C198.902 360.712 187.818 354.146 186.973 345.854C186.938 345.523 186.921 345.184 186.921 344.845L186.916 344.845Z" fill="#AAB1C1"/>
<path d="M186.97 345.854C187.698 338.118 195.55 336.432 205.131 336.432C214.711 336.432 222.567 338.118 223.291 345.854C222.446 354.146 211.363 360.712 205.131 360.712C198.899 360.712 187.815 354.146 186.97 345.854Z" fill="#C3CBDC"/>
<path d="M205.143 354.086C203.484 354.086 196.956 357.213 199.537 360.42C202.12 363.626 208.464 363.503 210.746 360.42C213.261 357.022 206.802 354.086 205.14 354.086L205.143 354.086Z" fill="black"/>
<path d="M218.711 363.432C217.067 363.432 215.734 364.764 215.734 366.408C215.734 368.052 217.067 369.385 218.711 369.385C220.355 369.385 221.688 368.052 221.688 366.408C221.688 364.764 220.355 363.432 218.711 363.432Z" fill="black"/>
<path d="M191.471 363.432C189.827 363.432 188.494 364.764 188.494 366.408C188.494 368.052 189.827 369.385 191.471 369.385C193.115 369.385 194.447 368.052 194.447 366.408C194.447 364.764 193.115 363.432 191.471 363.432Z" fill="black"/>
<path d="M211.326 345.288C206.177 347.983 203.569 342.002 198.939 345.288" stroke="black" stroke-width="0.546667" stroke-linecap="round" stroke-linejoin="round"/>
<path d="M212.736 347.119C211.843 346.671 210.602 344.591 211.941 343.164" stroke="black" stroke-width="0.546667" stroke-linecap="round" stroke-linejoin="round"/>
<path d="M197.557 347.119C198.451 346.671 199.692 344.591 198.352 343.164" stroke="black" stroke-width="0.546667" stroke-linecap="round" stroke-linejoin="round"/>
<path d="M206.4 360.805C205.822 360.805 205.354 361.134 205.354 361.54C205.354 361.946 205.822 362.275 206.4 362.275C206.979 362.275 207.447 361.946 207.447 361.54C207.447 361.134 206.979 360.805 206.4 360.805Z" fill="white"/>
<path d="M208.715 360.567C208.445 360.701 208.311 360.981 208.416 361.194C208.521 361.406 208.826 361.47 209.096 361.336C209.367 361.202 209.501 360.921 209.395 360.708C209.29 360.496 208.986 360.433 208.715 360.567Z" fill="white"/>
</g>
<g clip-path="url(#clip8_742_1532)">
<path d="M362.127 241.292C362.399 241.084 362.666 240.87 362.93 240.644C368.36 235.971 369.894 228.427 367.219 222.164C370.328 221.357 373.15 219.553 375.209 216.925L390.949 196.864C394.024 192.948 394.942 187.782 393.408 183.048C391.873 178.314 388.101 174.67 383.317 173.301L358.803 166.275C353.485 164.753 347.797 166.275 343.957 170.253C340.115 174.23 338.786 179.965 340.49 185.228L349.261 212.314C349.305 212.455 349.352 212.59 349.405 212.728C347.979 212.997 346.586 213.467 345.26 214.133L331.485 198.114C330.086 196.486 327.622 196.295 325.988 197.697C325.718 197.932 325.486 198.196 325.296 198.477C324.518 199.627 324.419 201.112 325.026 202.361L319.488 207.125C317.86 208.524 317.669 210.985 319.071 212.622C320.479 214.253 322.937 214.435 324.568 213.036L330.009 208.357L330.889 209.381L325.451 214.062C323.82 215.461 323.632 217.922 325.035 219.556C326.44 221.19 328.901 221.372 330.532 219.973L335.973 215.291L339.346 219.216C335.199 225.089 335.389 233.261 340.285 238.949C345.835 245.399 355.424 246.355 362.124 241.298L362.127 241.292ZM346.199 233.862C343.459 230.674 343.585 225.972 346.342 222.936C349.754 220.665 354.427 221.243 357.163 224.432C359.909 227.623 359.78 232.325 357.025 235.361C353.611 237.632 348.941 237.054 346.199 233.862Z" fill="#969CA9" stroke="white" stroke-width="8.2" stroke-miterlimit="10"/>
<path d="M346.197 233.862C343.457 230.674 343.583 225.972 346.34 222.936C349.752 220.665 354.425 221.243 357.161 224.432C359.907 227.623 359.778 232.325 357.024 235.361C353.609 237.632 348.939 237.054 346.197 233.862Z" fill="white" stroke="white" stroke-width="8.2" stroke-miterlimit="10"/>
<path d="M362.926 240.646C362.665 240.872 362.395 241.086 362.125 241.291C368.13 235.428 368.617 225.798 363.07 219.347C358.174 213.657 350.128 212.243 343.701 215.463L329.923 199.445C328.753 198.083 326.84 197.729 325.294 198.471C325.485 198.189 325.717 197.925 325.987 197.69C327.621 196.285 330.082 196.473 331.481 198.104L345.259 214.123C351.686 210.902 359.735 212.316 364.627 218.007C370.4 224.718 369.638 234.87 362.926 240.643L362.926 240.646Z" fill="#C3CBDC"/>
<path d="M363.071 219.35C358.175 213.659 350.129 212.245 343.702 215.466L329.924 199.447C328.754 198.086 326.842 197.731 325.296 198.473C324.521 199.623 324.419 201.11 325.026 202.357L319.488 207.121C317.86 208.523 317.669 210.984 319.074 212.615C320.479 214.246 322.94 214.431 324.568 213.029L330.01 208.347L330.892 209.374L325.451 214.055C323.823 215.457 323.632 217.918 325.038 219.549C326.443 221.18 328.904 221.365 330.532 219.963L335.973 215.281L339.349 219.206C335.199 225.082 335.392 233.251 340.288 238.942C345.835 245.392 355.427 246.348 362.127 241.291C368.131 235.428 368.618 225.797 363.071 219.347L363.071 219.35ZM357.026 235.36C353.611 237.63 348.944 237.053 346.199 233.861C343.456 230.673 343.585 225.97 346.339 222.937C346.565 222.685 346.812 222.445 347.079 222.216C350.531 219.247 355.752 219.64 358.721 223.093C361.692 226.548 361.299 231.77 357.847 234.738C357.583 234.967 357.307 235.175 357.023 235.36L357.026 235.36Z" fill="#DAE3F7"/>
<path d="M357.846 234.738C357.582 234.967 357.307 235.175 357.022 235.36C359.776 232.324 359.906 227.622 357.16 224.43C354.417 221.242 349.75 220.664 346.336 222.934C346.562 222.682 346.808 222.441 347.075 222.213C350.528 219.244 355.749 219.637 358.718 223.09C361.689 226.545 361.296 231.766 357.843 234.735L357.846 234.738Z" fill="#C3CBDC"/>
<path d="M356.704 212.377L346.478 180.805C345.073 176.476 348.314 172.31 352.489 172.155C349.535 173.422 347.654 176.801 348.784 180.286L359.009 211.86C359.998 214.911 362.805 216.542 365.592 216.431C362.224 217.868 357.971 216.284 356.704 212.377Z" fill="#969CA9"/>
<path d="M359.01 211.86L348.785 180.286C347.655 176.801 349.536 173.422 352.489 172.155C353.17 172.128 353.874 172.208 354.59 172.413L383.163 180.597C387.675 181.891 389.441 187.341 386.543 191.034L368.195 214.421C367.461 215.354 366.564 216.017 365.593 216.431C362.806 216.542 359.999 214.911 359.01 211.86Z" fill="#C3CBDC"/>
<path d="M386.684 185.223C387.45 187.587 387.113 190.306 385.391 192.503L369.65 212.567C365.764 217.522 357.92 216.128 355.978 210.135L347.205 183.049C345.263 177.056 350.801 171.327 356.855 173.064L381.372 180.086C384.056 180.855 385.925 182.861 386.69 185.226M393.407 183.049C391.873 178.315 388.101 174.669 383.317 173.299L358.8 166.276C353.485 164.754 347.797 166.276 343.954 170.254C340.112 174.229 338.783 179.966 340.487 185.229L349.261 212.315C350.965 217.574 355.406 221.443 360.847 222.411C366.292 223.379 371.792 221.279 375.206 216.929L390.946 196.859C394.018 192.943 394.936 187.781 393.402 183.046L393.407 183.049Z" fill="#DAE3F7"/>
<path d="M364.719 192.313C364.238 190.832 364.968 189.227 366.397 188.614L375.047 184.903C377.159 183.997 379.594 185.103 380.301 187.288C381.011 189.482 379.676 191.811 377.423 192.304L368.23 194.325C366.714 194.66 365.194 193.785 364.716 192.31L364.719 192.313Z" fill="#DAE3F7"/>
<path d="M355.888 194.032C355.888 196.023 357.502 197.637 359.493 197.637C361.484 197.637 363.098 196.023 363.098 194.032C363.098 192.041 361.484 190.427 359.493 190.427C357.502 190.427 355.888 192.041 355.888 194.032Z" fill="#DAE3F7"/>
</g>
</g>
<g clip-path="url(#clip9_742_1532)">
<g clip-path="url(#clip10_742_1532)">
<path d="M353.526 109.505L335.201 130.711L333.811 132.321C331.407 135.102 327.204 135.41 324.422 133.006L301.61 113.292C298.826 110.884 298.518 106.681 300.922 103.9L302.004 102.647L302.311 102.292L302.571 101.994L304.399 99.8781L290.442 98.8336C286.773 98.5572 284.027 95.3627 284.299 91.6984L284.455 89.5961C284.455 89.5961 284.458 89.585 284.459 89.5794L284.487 89.1974L284.994 82.4099L285.385 77.1724L286.547 61.6275C286.823 57.9583 290.018 55.2118 293.686 55.4819L313.196 56.9426L319.375 57.4064L323.749 57.734C324.774 57.8109 325.729 58.1146 326.564 58.596C328.719 59.8292 330.092 62.2274 329.893 64.8692L329.426 71.1046L328.794 79.5536C329.227 79.7833 329.642 80.0653 330.032 80.4003L344.82 93.1817L349.508 97.2319L352.841 100.113C355.623 102.518 355.931 106.721 353.524 109.502L353.526 109.505Z" fill="white" stroke="white" stroke-width="8.2" stroke-linecap="round" stroke-linejoin="round"/>
<path opacity="0.4" d="M329.431 71.1027L329.428 71.1047L329.895 64.8694L329.431 71.1027Z" fill="white" stroke="white" stroke-width="8.2" stroke-linecap="round" stroke-linejoin="round"/>
<path d="M320.63 81.0805L300.916 103.895C298.512 106.677 298.818 110.882 301.601 113.287L324.415 133C327.198 135.405 331.403 135.098 333.807 132.316L353.521 109.501C355.925 106.719 355.618 102.514 352.836 100.109L330.021 80.3957C327.239 77.9913 323.034 78.2979 320.63 81.0805Z" fill="#FFCB9A"/>
<path d="M353.524 109.505L335.199 130.71C332.795 133.492 328.589 133.799 325.807 131.395L302.995 111.681C300.21 109.276 299.906 105.071 302.307 102.288L320.632 81.083C323.037 78.3015 327.242 77.9941 330.026 80.4019L352.839 100.116C355.62 102.52 355.928 106.726 353.523 109.508L353.524 109.505Z" fill="#FDE9D6"/>
<path d="M320.148 126.507L308.622 116.546L321.547 107.124L327.944 112.653L320.148 126.507Z" fill="#FFCB9A"/>
<path d="M321.549 107.124L308.624 116.546L307.734 115.778L320.656 106.355L321.549 107.124Z" fill="#DBAF85"/>
<path d="M321.065 127.301L320.149 126.507L327.946 112.653L328.865 113.448L321.065 127.301Z" fill="#DBAF85"/>
<path d="M337.056 113.798C332.694 118.846 325.064 119.404 320.014 115.038C314.966 110.676 314.409 103.046 318.773 97.9992C318.951 97.7952 319.128 97.6031 319.317 97.414C323.748 92.9118 330.973 92.5688 335.816 96.7563C340.662 100.945 341.369 108.141 337.558 113.178C337.399 113.39 337.234 113.594 337.056 113.798Z" fill="#DBAF85"/>
<path d="M337.558 113.178C333.127 117.677 325.906 118.018 321.06 113.83C316.214 109.642 315.506 102.448 319.317 97.4137C323.748 92.9114 330.973 92.5685 335.816 96.756C340.662 100.944 341.369 108.141 337.558 113.178Z" fill="#FFCB9A"/>
<path d="M323.208 104.044C324.202 104.31 325.223 103.721 325.49 102.727C325.756 101.733 325.166 100.712 324.172 100.446C323.179 100.179 322.157 100.769 321.891 101.763C321.625 102.756 322.214 103.778 323.208 104.044Z" fill="black"/>
<path d="M331.659 111.349C332.653 111.615 333.674 111.025 333.941 110.032C334.207 109.038 333.617 108.016 332.624 107.75C331.63 107.484 330.608 108.074 330.342 109.067C330.076 110.061 330.666 111.083 331.659 111.349Z" fill="black"/>
<path d="M326.137 105.084C326.241 106.504 327.537 107.657 328.991 107.553" stroke="black" stroke-width="0.578506" stroke-linecap="round" stroke-linejoin="round"/>
<path d="M329.894 64.8695L327.643 94.9397C327.367 98.6061 324.172 101.355 320.505 101.083L290.438 98.8324C286.768 98.5588 284.019 95.3608 284.291 91.6965L286.546 61.6242C286.821 57.9579 290.017 55.2086 293.684 55.4814L323.753 57.7351C324.778 57.8119 325.732 58.1157 326.564 58.5991C328.719 59.8323 330.092 62.2305 329.893 64.8723L329.894 64.8695Z" fill="#FFCB9A"/>
<path d="M329.894 64.8695L327.801 92.8199C327.525 96.4863 324.33 99.2356 320.663 98.9627L290.595 96.7126C286.925 96.439 284.177 93.241 284.449 89.5767L286.546 61.6242C286.821 57.9579 290.017 55.2086 293.684 55.4814L323.753 57.7351C324.778 57.8119 325.732 58.1157 326.564 58.5991C328.719 59.8323 330.092 62.2305 329.893 64.8723L329.894 64.8695Z" fill="#FDE9D6"/>
<path d="M319.243 93.7404C316.434 94.6558 297.265 94.0772 293.819 91.306C292.362 90.1371 291.899 87.9977 292.236 85.9679C292.558 84.0087 293.619 82.149 295.248 81.3667C298.565 79.773 315.591 80.1338 319.756 83.4328C321.399 84.7325 322.076 86.5548 322.111 88.313C322.16 90.8236 320.897 93.2013 319.243 93.7404Z" fill="#DBAF85"/>
<path d="M322.111 88.3125C321.781 90.2695 320.692 91.9302 319.347 92.3692C316.538 93.2846 297.369 92.7061 293.922 89.9348C292.797 89.0283 292.265 87.5382 292.236 85.9674C292.558 84.0083 293.619 82.1485 295.248 81.3662C298.565 79.7725 315.591 80.1333 319.756 83.4323C321.399 84.732 322.076 86.5543 322.111 88.3125Z" fill="#FFCB9A"/>
<path d="M317.084 77.6737C320.071 80.1481 318.786 85.0682 316.67 85.7981C314.555 86.528 299.215 85.8195 297.555 83.949C295.681 81.8421 296.159 77.3792 298.657 76.1141C301.155 74.849 313.962 75.0855 317.086 77.6745L317.084 77.6737Z" fill="#FFCB9A"/>
<path d="M315.084 72.8975C317.306 74.7388 316.349 78.3993 314.776 78.9391C313.203 79.4789 301.79 78.9571 300.555 77.5632C299.164 75.9955 299.517 72.6764 301.375 71.7337C303.235 70.7919 312.761 70.9697 315.084 72.8947L315.084 72.8975Z" fill="#FFCB9A"/>
<path d="M309.112 66.3981C309.288 70.1198 301.846 68.8923 300.282 72.7973C299.828 73.9333 305.886 74.5565 308.706 73.9795C311.526 73.4025 311.604 69.1561 309.111 66.4009L309.112 66.3981Z" fill="#FFCB9A"/>
<path d="M306.725 83.2373C304.07 83.3014 299.522 82.7597 296.163 80.5211C295.297 80.8279 295.374 80.4503 295.931 80.974C296.489 81.4976 302.268 83.8549 306.726 83.2345L306.725 83.2373Z" fill="#FDE9D6"/>
<path d="M305.866 77.1237C307.579 77.436 310.44 77.2442 312.285 76.9062C313.686 76.6498 316.228 76.7767 316.671 76.554C316.96 76.8592 317.137 77.1042 316.838 77.2816C316.539 77.459 315.014 76.9485 312.345 77.2636C310.341 77.5021 307.502 77.7119 305.867 77.1209L305.866 77.1237Z" fill="#FDE9D6"/>
<path d="M310.987 71.0427C310.822 72.0853 309.15 73.3054 308.213 73.2279C309.511 73.5339 311.215 71.9572 311.342 71.4851C311.442 71.1107 310.987 71.0427 310.987 71.0427Z" fill="#FDE9D6"/>
<path d="M298.522 68.4135C298.932 67.4213 298.692 66.3806 297.986 66.0891C297.281 65.7976 296.376 66.3657 295.967 67.3579C295.557 68.3502 295.797 69.3908 296.503 69.6823C297.208 69.9738 298.113 69.4057 298.522 68.4135Z" fill="#FFCB9A"/>
<path d="M296.911 69.4497C297.133 68.7193 296.481 67.8735 295.454 67.5607C294.427 67.2479 293.414 67.5865 293.192 68.317C292.969 69.0475 293.622 69.8932 294.649 70.206C295.675 70.5188 296.688 70.1802 296.911 69.4497Z" fill="#FFCB9A"/>
<path d="M296.435 70.7728C297.065 70.9415 297.712 70.5679 297.881 69.9383C298.049 69.3088 297.676 68.6616 297.046 68.4929C296.417 68.3243 295.769 68.6979 295.601 69.3274C295.432 69.957 295.806 70.6041 296.435 70.7728Z" fill="#FFCB9A"/>
<path d="M322.381 75.5419C323.156 75.2967 323.643 74.6498 323.468 74.0969C323.293 73.544 322.523 73.2945 321.748 73.5397C320.972 73.7849 320.486 74.4319 320.66 74.9848C320.835 75.5377 321.605 75.7871 322.381 75.5419Z" fill="#FFCB9A"/>
<path d="M320.996 75.1037C321.53 74.8766 321.704 74.0859 321.386 73.3378C321.067 72.5896 320.377 72.1672 319.843 72.3944C319.309 72.6215 319.135 73.4122 319.454 74.1603C319.772 74.9085 320.463 75.3308 320.996 75.1037Z" fill="#FFCB9A"/>
<path d="M320.578 75.9631C321.055 76.0909 321.545 75.8079 321.673 75.3311C321.801 74.8543 321.518 74.3642 321.041 74.2365C320.564 74.1087 320.074 74.3917 319.946 74.8685C319.819 75.3453 320.102 75.8354 320.578 75.9631Z" fill="#FFCB9A"/>
<path d="M310.356 60.3765C310.8 59.695 310.765 58.8861 310.279 58.5698C309.793 58.2536 309.039 58.5497 308.596 59.2313C308.152 59.9128 308.187 60.7217 308.673 61.038C309.159 61.3542 309.913 61.0581 310.356 60.3765Z" fill="#FFCB9A"/>
<path d="M309.008 60.9237C309.277 60.4096 308.91 59.6879 308.189 59.3118C307.468 58.9357 306.666 59.0476 306.398 59.5617C306.13 60.0759 306.497 60.7976 307.217 61.1736C307.938 61.5497 308.74 61.4378 309.008 60.9237Z" fill="#FFCB9A"/>
<path d="M308.629 61.8997C309.106 62.0274 309.596 61.7445 309.724 61.2676C309.852 60.7908 309.569 60.3007 309.092 60.173C308.615 60.0452 308.125 60.3282 307.997 60.805C307.869 61.2818 308.152 61.7719 308.629 61.8997Z" fill="#FFCB9A"/>
</g>
</g>
<g clip-path="url(#clip11_742_1532)">
<g clip-path="url(#clip12_742_1532)">
<path d="M336.63 335.749L332.95 337.033C327.119 339.068 320.223 335.252 315.679 328.15C312.395 333.049 305.138 336.53 296.653 336.677C284.979 336.878 275.404 330.685 275.271 322.848L275.203 318.95C275.066 311.112 284.424 304.595 296.098 304.394C301.958 304.294 307.287 305.803 311.156 308.323C311.473 306.279 312.061 304.4 312.894 302.774C311.914 302.788 310.913 302.753 309.898 302.67C298.259 301.708 289.351 294.593 289.998 286.779L290.319 282.894C290.965 275.082 300.924 269.525 312.559 270.492C324.199 271.458 333.109 278.57 332.459 286.387L332.138 290.271C331.966 292.353 331.133 294.276 329.778 295.956C335.192 297.825 340.397 303.462 343.066 311.114C346.912 322.139 344.031 333.169 336.63 335.753L336.63 335.749Z" fill="#DBAF85" stroke="white" stroke-width="8.2" stroke-linecap="round" stroke-linejoin="round"/>
<path d="M296.648 336.682C308.323 336.482 317.679 329.966 317.545 322.128C317.411 314.29 307.838 308.098 296.163 308.298C284.488 308.498 275.132 315.013 275.266 322.852C275.4 330.69 284.973 336.882 296.648 336.682Z" fill="#FFCB9A"/>
<path d="M276.641 318.929L275.195 318.954L275.262 322.851L276.708 322.826L276.641 318.929Z" fill="#FFCB9A"/>
<path d="M317.477 318.228L316.031 318.253L316.098 322.15L317.544 322.125L317.477 318.228Z" fill="#FFCB9A"/>
<path d="M296.582 332.781C308.257 332.581 317.612 326.065 317.478 318.227C317.344 310.389 307.771 304.197 296.096 304.397C284.421 304.596 275.066 311.112 275.2 318.95C275.334 326.789 284.907 332.981 296.582 332.781Z" fill="#FDE9D6"/>
<path d="M309.434 318.363C309.441 318.78 309.403 319.194 309.325 319.599C308.361 315.345 302.843 312.151 296.235 312.265C289.623 312.379 284.217 315.759 283.399 320.044C283.308 319.64 283.256 319.228 283.249 318.811C283.165 313.958 288.958 309.92 296.19 309.797C303.421 309.671 309.348 313.507 309.432 318.361L309.434 318.363Z" fill="#DBAF85"/>
<path d="M309.324 319.6C308.503 323.884 303.099 327.263 296.491 327.377C289.882 327.491 284.364 324.3 283.396 320.046C284.214 315.761 289.618 312.379 296.232 312.267C302.84 312.153 308.358 315.347 309.322 319.601L309.324 319.6Z" fill="#FFCB9A"/>
<path d="M332.951 337.027C340.352 334.444 343.233 323.413 339.385 312.388C335.537 301.364 326.418 294.521 319.017 297.104C311.615 299.687 308.734 310.719 312.582 321.743C316.43 332.767 325.549 339.61 332.951 337.027Z" fill="#FFCB9A"/>
<path d="M323.176 297.193L322.699 295.828L319.019 297.113L319.496 298.478L323.176 297.193Z" fill="#FFCB9A"/>
<path d="M336.637 335.75L336.16 334.385L332.48 335.669L332.957 337.034L336.637 335.75Z" fill="#FFCB9A"/>
<path d="M336.63 335.747C344.032 333.164 346.912 322.133 343.065 311.108C339.217 300.084 330.098 293.241 322.696 295.824C315.295 298.407 312.414 309.439 316.262 320.463C320.11 331.487 329.229 338.33 336.63 335.747Z" fill="#FDE9D6"/>
<path d="M333.98 328.151C333.584 328.288 333.18 328.383 332.77 328.437C336.508 326.187 337.814 319.948 335.636 313.707C333.458 307.463 328.553 303.388 324.225 303.955C324.581 303.742 324.956 303.564 325.35 303.425C329.935 301.825 335.582 306.061 337.965 312.894C340.348 319.722 338.562 326.553 333.978 328.153L333.98 328.151Z" fill="#DBAF85"/>
<path d="M332.771 328.435C328.444 328.998 323.542 324.923 321.366 318.685C319.188 312.444 320.49 306.205 324.228 303.951C328.554 303.387 333.457 307.459 335.639 313.704C337.817 319.945 336.513 326.186 332.773 328.433L332.771 328.435Z" fill="#FFCB9A"/>
<path d="M309.899 302.67C321.536 303.633 331.494 298.08 332.14 290.268C332.787 282.455 323.877 275.341 312.24 274.378C300.603 273.416 290.646 278.968 289.999 286.781C289.353 294.593 298.263 301.707 309.899 302.67Z" fill="#FFCB9A"/>
<path d="M291.761 283.018L290.32 282.898L289.999 286.783L291.44 286.902L291.761 283.018Z" fill="#FFCB9A"/>
<path d="M332.462 286.386L331.021 286.266L330.7 290.151L332.141 290.27L332.462 286.386Z" fill="#FFCB9A"/>
<path d="M310.222 298.786C321.858 299.748 331.816 294.196 332.462 286.383C333.109 278.571 324.199 271.457 312.563 270.494C300.926 269.531 290.968 275.084 290.322 282.896C289.675 290.709 298.585 297.823 310.222 298.786Z" fill="#FDE9D6"/>
<path d="M324.441 285.72C324.406 286.138 324.329 286.544 324.211 286.94C323.674 282.61 318.504 278.882 311.915 278.339C305.324 277.794 299.609 280.622 298.368 284.804C298.318 284.394 298.308 283.979 298.343 283.561C298.743 278.724 304.909 275.283 312.12 275.881C319.327 276.478 324.843 280.884 324.443 285.722L324.441 285.72Z" fill="#DBAF85"/>
<path d="M324.209 286.942C322.965 291.124 317.251 293.946 310.667 293.403C304.08 292.858 298.906 289.134 298.367 284.802C299.607 280.62 305.323 277.792 311.913 278.337C318.5 278.882 323.674 282.61 324.209 286.938L324.209 286.942Z" fill="#FFCB9A"/>
</g>
</g>
<g clip-path="url(#clip13_742_1532)">
<g clip-path="url(#clip14_742_1532)">
<path d="M86.114 275.703C86.1159 275.484 86.1952 275.266 86.3633 275.098C86.6958 274.765 87.2369 274.765 87.5713 275.1L87.6641 275.192C87.9404 275.055 88.2168 274.926 88.4874 274.806C92.1867 273.205 95.5864 273.524 98.6653 274.829L105.961 267.533C106.108 267.386 106.11 267.148 105.961 266.999L104.895 265.932C104.135 265.173 104.605 263.872 105.674 263.774L115.063 262.923C115.849 262.852 116.509 263.511 116.437 264.297L115.587 273.687C115.486 274.757 114.189 275.227 113.428 274.466L112.618 273.656C112.469 273.507 112.231 273.509 112.084 273.656L105.917 279.823C108.068 281.804 109.972 283.921 111.611 285.583C117.523 291.58 124.24 298.923 131.739 307.45C136.277 312.603 135.533 318.113 133.567 322.406C132.214 325.378 130.274 327.771 129.093 329.068C129.354 329.487 129.559 329.974 129.69 330.508C130.102 332.102 129.914 334.068 128.952 335.606C128.422 336.461 127.655 337.182 126.621 337.636C124.004 335.042 124.369 332.211 125.204 330.371C123.557 331.121 121.114 331.492 118.76 329.679C118.488 329.468 118.209 329.228 117.939 328.954C119.388 325.672 123.519 325.071 126 326.215C126.246 325.904 126.513 325.533 126.77 325.117C128.047 323.09 129.158 320.011 126.126 317.86C122.394 315.214 116.723 319.779 110.453 322.214L106.027 326.64C105.788 326.88 105.788 327.267 106.027 327.506L115.372 336.851C117.063 338.542 117.063 341.283 115.372 342.974L106.922 351.424C105.273 353.073 102.589 353.226 100.863 351.654C99.021 349.978 98.9707 347.126 100.71 345.386L105.749 340.348C105.989 340.108 105.989 339.721 105.749 339.482L96.4079 330.141C94.7167 328.449 94.7167 325.709 96.4079 324.018L97.7782 322.647C91.8079 320.829 86.3749 316.683 82.3528 312.661C79.8905 310.198 66.9236 295.411 81.3826 280.102C82.5848 278.83 83.758 277.776 84.9118 276.916C84.9099 276.914 84.9099 276.911 84.9099 276.907C84.9099 276.69 84.9911 276.47 85.1573 276.304C85.4047 276.056 85.7603 275.994 86.0637 276.112C86.1024 276.085 86.143 276.06 86.1816 276.037C86.1372 275.931 86.114 275.815 86.1159 275.701L86.114 275.703Z" fill="#FFCB9A" stroke="white" stroke-width="8.2" stroke-linecap="round" stroke-linejoin="round"/>
<path d="M105.673 263.778L115.062 262.927C115.849 262.856 116.508 263.515 116.437 264.301L115.586 273.691C115.486 274.762 114.189 275.231 113.427 274.47L112.617 273.66C112.471 273.513 112.231 273.513 112.084 273.66L91.2643 294.48L111.668 314.884C113.36 316.575 113.36 319.315 111.668 321.007L106.029 326.646C105.791 326.884 105.789 327.273 106.029 327.512L115.37 336.853C117.061 338.544 117.061 341.285 115.37 342.976L106.922 351.424C105.273 353.073 102.588 353.226 100.862 351.654C99.0204 349.979 98.9702 347.126 100.71 345.386L105.75 340.346C105.988 340.108 105.99 339.72 105.75 339.48L96.4073 330.137C94.7162 328.446 94.7162 325.705 96.4073 324.014L102.48 317.941L82.0759 297.537C80.3848 295.846 80.3848 293.105 82.0759 291.414L105.957 267.533C106.104 267.386 106.104 267.146 105.957 267L104.89 265.933C104.131 265.173 104.6 263.872 105.669 263.774L105.673 263.778Z" fill="#FFCB9A"/>
<path d="M88.4864 274.808C97.0679 273.919 104.101 282.51 108.941 287.411C115.168 293.724 122.259 301.441 130.19 310.396C133.819 314.493 134.349 318.714 133.568 322.41C132.211 325.382 130.271 327.775 129.092 329.074C129.353 329.493 129.556 329.982 129.691 330.512C130.103 332.106 129.915 334.072 128.955 335.612C128.425 336.467 127.658 337.188 126.622 337.644C124.003 335.052 124.37 332.222 125.207 330.38C123.558 331.132 121.115 331.503 118.761 329.69C118.485 329.48 118.212 329.238 117.942 328.964C119.391 325.678 123.522 325.081 126.005 326.223C126.247 325.912 126.515 325.543 126.774 325.125C128.052 323.098 129.159 320.019 126.129 317.87C121.241 314.404 113.027 323.307 104.499 323.593C95.9739 323.877 87.8486 318.156 82.3557 312.663C79.8953 310.202 66.9284 295.415 81.3835 280.106C83.8613 277.485 86.229 275.79 88.4884 274.81L88.4864 274.808Z" fill="#FDE9D6"/>
<path d="M88.4848 274.808C98.5448 270.453 106.394 280.305 111.606 285.591C117.517 291.586 124.233 298.929 131.734 307.454C136.27 312.609 135.528 318.117 133.562 322.41C134.343 318.714 133.814 314.493 130.184 310.396C122.256 301.443 115.165 293.726 108.935 287.411C104.098 282.508 97.0643 273.917 88.4809 274.808L88.4848 274.808Z" fill="#FFCB9A"/>
<path d="M88.5492 283.681C87.85 282.982 86.7164 282.982 86.0172 283.681C85.3181 284.38 85.3181 285.514 86.0172 286.213C86.7164 286.912 87.85 286.912 88.5492 286.213C89.2483 285.514 89.2483 284.38 88.5492 283.681Z" fill="black"/>
<path d="M86.1143 275.703C86.1162 275.484 86.1974 275.268 86.3655 275.1C86.6979 274.767 87.2391 274.767 87.5735 275.102L90.5635 278.092C91.2303 278.758 91.2303 279.837 90.5635 280.504C89.8967 281.17 88.8182 281.17 88.1514 280.504L85.1614 277.514C84.9933 277.346 84.9121 277.129 84.9101 276.911C84.9101 276.694 84.9933 276.476 85.1595 276.31C85.4938 275.975 86.0331 275.977 86.3674 276.312C86.1993 276.143 86.1181 275.927 86.1162 275.709L86.1143 275.703Z" fill="#FFCB9A"/>
<path d="M89.2207 279.16L86.366 276.306" stroke="black" stroke-width="0.546667" stroke-linecap="round" stroke-linejoin="round"/>
</g>
</g>
<g clip-path="url(#clip15_742_1532)">
<g clip-path="url(#clip16_742_1532)">
<path d="M128.629 79.1571C132.726 82.2526 136.142 86.3982 137.775 91.5053C142.303 105.659 133.724 114.193 121.072 118.241C111.527 121.295 102.385 120.93 96.5298 114.49C94.6226 112.392 93.06 109.65 91.9466 106.174C91.214 103.885 90.8829 101.54 90.8829 99.2137C90.2343 99.5085 89.5653 99.7557 88.8827 99.9621C87.4653 100.386 86.6852 101.91 87.1773 103.305C88.5516 107.242 88.4042 111.639 86.404 115.558C82.4058 123.389 72.5227 126.35 64.3381 122.171C63.9843 121.989 63.6419 121.801 63.3063 121.602C61.9433 120.787 60.7278 119.808 59.68 118.71C59.6732 118.699 59.6641 118.69 59.6528 118.683C58.3942 117.479 57.3736 116.204 56.5754 114.857C54.777 117.467 51.0442 119.118 47.5585 117.887C47.3045 113.891 49.1959 111.805 51.1734 110.734C50.1937 109.65 49.5814 108.176 49.7175 106.575C51.7313 105.913 53.2371 106.244 54.328 106.94C54.1193 101.289 56.2828 94.7483 60.0587 87.353C67.6922 72.399 77.2602 64.287 89.6311 69.859C89.8806 69.9679 90.1323 70.0835 90.3818 70.2105C90.5133 70.2695 90.6358 70.333 90.7696 70.3988C94.5523 72.3309 97.3122 75.4492 98.7886 79.021C99.9021 77.7351 101.068 76.6103 102.242 75.685C99.1265 74.4423 95.0285 73.4376 96.0377 70.7956C97.344 67.3758 109.81 61.586 113.146 63.1757C115.824 64.448 113.346 69.9656 111.645 72.6552C116.818 72.8888 123.295 75.1294 128.626 79.1593L128.629 79.1571Z" fill="#FFCB9A" stroke="white" stroke-width="8.2" stroke-linecap="round" stroke-linejoin="round"/>
<path d="M137.778 91.505C142.307 105.658 133.727 114.188 121.073 118.238C111.528 121.293 102.388 120.925 96.5329 114.489C102.277 118.351 110.024 118.206 118.064 115.632C130.718 111.582 139.299 103.055 134.768 88.8993C133.557 85.112 131.358 81.8509 128.632 79.1567C132.727 82.25 136.143 86.4001 137.778 91.505Z" fill="#FFCB9A"/>
<path d="M134.769 88.8992C139.3 103.059 130.719 111.582 118.064 115.632C110.027 118.204 102.278 118.351 96.5337 114.489C94.6265 112.392 93.064 109.65 91.9505 106.173C87.4194 92.013 98.3435 75.8638 106.66 73.2037C111.982 71.5005 121.366 73.6686 128.635 79.159C131.358 81.8509 133.556 85.1142 134.771 88.9015L134.769 88.8992Z" fill="#FDE9D6"/>
<path d="M104.591 76.8864C101.98 74.893 94.7325 74.2126 96.0388 70.7927C97.345 67.3729 109.811 61.5831 113.147 63.1729C116.485 64.7603 111.816 72.9449 110.614 74.0153C109.412 75.0857 104.588 76.8886 104.588 76.8886L104.591 76.8864Z" fill="#FDE9D6"/>
<path d="M99.2036 97.7683L98.6004 95.759L100.145 95.3485L100.512 97.1673C100.768 97.0698 101.043 96.9723 101.335 96.8793C101.657 96.775 102 96.6775 102.36 96.5799L103.424 99.4034C103.236 99.4374 103.057 99.4669 102.891 99.4964C102.333 99.5961 101.889 99.7005 101.558 99.8048C101.095 99.9545 100.857 100.106 100.843 100.265C100.839 100.283 100.834 100.301 100.839 100.32L100.85 100.358C100.925 100.592 101.258 100.657 101.85 100.555C103.63 100.345 104.73 100.896 105.15 102.204C105.197 102.352 105.236 102.508 105.263 102.671L105.281 102.785C105.476 103.996 104.683 104.98 102.9 105.733L103.454 106.867L102.136 107.441L101.868 106.103C101.326 106.277 100.723 106.431 100.054 106.57L98.3623 103.717C99.2512 103.658 99.9497 103.581 100.451 103.492C100.687 103.447 100.882 103.402 101.036 103.352C101.283 103.272 101.422 103.184 101.449 103.089C101.451 103.064 101.451 103.041 101.442 103.018C101.44 102.998 101.437 102.982 101.433 102.968C101.372 102.776 101.149 102.685 100.766 102.705C98.9111 102.773 97.8135 102.27 97.4687 101.195C97.4393 101.102 97.4143 101.004 97.3984 100.902C97.369 100.737 97.3508 100.564 97.3395 100.381C97.2646 99.3716 97.8838 98.4985 99.1968 97.7615L99.2036 97.7683Z" fill="#FFCB9A"/>
<path d="M108.608 99.7572C106.605 100.109 105.392 99.6166 104.963 98.2764C104.879 98.0156 104.825 97.7162 104.802 97.3851C104.832 95.6321 106.254 94.3054 109.073 93.4005C109.653 93.2146 110.297 93.0468 111 92.8971L111.44 96.1083C111.232 96.1491 111.036 96.1854 110.853 96.224C110.329 96.3351 109.9 96.4462 109.562 96.5528C108.952 96.7501 108.639 96.9406 108.626 97.1266C108.621 97.1492 108.621 97.1674 108.626 97.1855L108.637 97.2241C108.717 97.4758 109.084 97.5348 109.739 97.401C111.83 97.0925 113.105 97.5144 113.563 98.6664C113.601 98.7639 113.635 98.8615 113.669 98.959C114.001 99.9886 113.806 100.905 113.089 101.708C112.372 102.51 111.354 103.134 110.036 103.576C108.982 103.914 107.735 104.028 106.292 103.919L106.283 100.644C107.061 100.737 107.723 100.723 108.272 100.605C108.492 100.558 108.683 100.508 108.837 100.458C109.152 100.356 109.327 100.249 109.356 100.138C109.356 100.116 109.354 100.091 109.349 100.063L109.338 100.025C109.268 99.8094 109.025 99.721 108.605 99.755L108.608 99.7572Z" fill="#FFCB9A"/>
<path d="M119.66 100.344C118.387 100.75 117.16 100.662 115.974 100.074C114.788 99.4869 113.997 98.573 113.6 97.328C113.199 96.0784 113.312 94.8719 113.938 93.7062C114.564 92.5406 115.509 91.7537 116.782 91.3477C118.049 90.9418 119.274 91.0325 120.46 91.6199C121.646 92.2072 122.438 93.1257 122.837 94.373C123.234 95.618 123.122 96.8222 122.499 97.9902C121.873 99.1558 120.93 99.9405 119.662 100.346L119.66 100.344ZM119.299 96.1056C119.526 95.6792 119.571 95.2438 119.428 94.8016C119.29 94.3639 119 94.0373 118.569 93.8196C118.136 93.6042 117.682 93.5724 117.203 93.7244C116.725 93.8763 116.373 94.1689 116.147 94.5952C115.92 95.0216 115.877 95.4547 116.015 95.8924C116.153 96.3301 116.444 96.6612 116.877 96.8767C117.31 97.0921 117.764 97.1239 118.242 96.9719C118.721 96.82 119.072 96.5274 119.299 96.1011L119.299 96.1056Z" fill="#FFCB9A"/>
<path d="M122.212 88.5925L125.873 87.6355L127.181 93.6747L129.891 92.6882L130.327 96.8293L124.78 98.19L122.212 88.5925Z" fill="#FFCB9A"/>
<path d="M90.7675 70.3926C98.9566 74.5722 102.354 84.3102 98.3557 92.141C96.3532 96.062 92.8811 98.7585 88.8852 99.9559C87.4679 100.38 86.69 101.902 87.1798 103.299C88.5541 107.236 88.4045 111.631 86.4065 115.552C82.4084 123.382 72.5297 126.344 64.3406 122.165C63.9869 121.983 63.6444 121.795 63.3088 121.595C71.2779 125.033 80.5079 122.004 84.3405 114.497C86.343 110.576 86.4882 106.181 85.1139 102.244C84.6263 100.849 85.4041 99.3277 86.8193 98.9013C90.8129 97.7062 94.2872 95.0075 96.2897 91.0864C100.131 83.5573 97.1424 74.2683 89.6314 69.8506C89.8808 69.9594 90.1303 70.0774 90.382 70.2021C90.5113 70.2588 90.6383 70.3268 90.7675 70.3926Z" fill="#FFCB9A"/>
<path d="M89.6278 69.8528C97.1388 74.2705 100.128 83.5595 96.2861 91.0886C94.2836 95.0097 90.8116 97.7061 86.8157 98.9035C85.3983 99.3276 84.6204 100.849 85.1103 102.246C86.4846 106.183 86.3349 110.578 84.337 114.499C80.5044 122.006 71.2743 125.036 63.3052 121.598C61.9445 120.781 60.7267 119.804 59.679 118.706C59.6699 118.697 59.6608 118.688 59.6518 118.679C51.7031 111.089 53.2996 100.593 60.0577 87.3535C67.6912 72.3995 77.2591 64.2875 89.6301 69.8596L89.6278 69.8528Z" fill="#FDE9D6"/>
<path d="M57.673 111.429C57.7659 115.699 52.4207 119.602 47.5608 117.876C47.0913 110.44 54.0331 109.617 55.192 109.651C56.4869 110.293 57.673 111.429 57.673 111.429Z" fill="#FDE9D6"/>
<path d="M56.0311 112.422C53.083 113.261 49.4046 110.259 49.7175 106.571C54.7952 104.895 56.6276 109.567 56.8135 110.379C56.6026 111.397 56.0289 112.424 56.0289 112.424L56.0311 112.422Z" fill="#FDE9D6"/>
<path d="M81.7321 113.82C84.0327 109.313 82.02 103.68 77.2365 101.238C72.4531 98.7965 66.7103 100.471 64.4097 104.979C62.1091 109.486 64.1219 115.119 68.9054 117.561C73.6888 120.002 79.4316 118.327 81.7321 113.82Z" fill="white"/>
<path d="M94.2107 89.3716C96.5112 84.8642 94.4985 79.231 89.715 76.7895C84.9316 74.348 79.1888 76.0227 76.8882 80.5301C74.5876 85.0375 76.6004 90.6706 81.3839 93.1121C86.1673 95.5536 91.9101 93.8789 94.2107 89.3716Z" fill="white"/>
<path d="M70.0612 111.363C70.8628 110.561 70.8628 109.262 70.0612 108.46C69.2597 107.658 67.96 107.658 67.1584 108.46C66.3568 109.262 66.3568 110.561 67.1584 111.363C67.96 112.164 69.2597 112.164 70.0612 111.363Z" fill="black"/>
<path d="M91.7234 85.4963C92.5249 84.6947 92.5249 83.3951 91.7234 82.5935C90.9218 81.7919 89.6221 81.7919 88.8205 82.5935C88.019 83.3951 88.019 84.6947 88.8205 85.4963C89.6221 86.2979 90.9218 86.2979 91.7234 85.4963Z" fill="black"/>
</g>
</g>
</g>
<defs>
<clipPath id="clip0_742_1532">
<rect width="410.3" height="410.3" fill="white"/>
</clipPath>
<clipPath id="clip1_742_1532">
<rect width="683.149" height="683.149" fill="white" transform="translate(-136.082 -136.083)"/>
</clipPath>
<clipPath id="clip2_742_1532">
<rect width="661.267" height="661.267" fill="white" transform="translate(-125.141 -125.142)"/>
</clipPath>
<clipPath id="clip3_742_1532">
<rect width="82" height="82" fill="white" transform="translate(164.15 10.1499)"/>
</clipPath>
<clipPath id="clip4_742_1532">
<rect width="81.0707" height="81.0707" fill="white" transform="translate(164.697 10.6965)"/>
</clipPath>
<clipPath id="clip5_742_1532">
<rect width="96" height="96" fill="white" transform="translate(3.15039 253.15) rotate(-90)"/>
</clipPath>
<clipPath id="clip6_742_1532">
<rect width="95.04" height="78.4" fill="white" transform="translate(11.791 252.51) rotate(-90)"/>
</clipPath>
<clipPath id="clip7_742_1532">
<rect width="81.7376" height="71.3345" fill="white" transform="translate(246 398.533) rotate(-180)"/>
</clipPath>
<clipPath id="clip8_742_1532">
<rect width="87.6275" height="84.8027" fill="white" transform="translate(398.533 161.293) rotate(90)"/>
</clipPath>
<clipPath id="clip9_742_1532">
<rect width="86.7759" height="86.7759" fill="white" transform="translate(287.459 41) rotate(15)"/>
</clipPath>
<clipPath id="clip10_742_1532">
<rect width="86.5531" height="81.9945" fill="white" transform="translate(286.859 43.2354) rotate(15)"/>
</clipPath>
<clipPath id="clip11_742_1532">
<rect width="82" height="82" fill="white" transform="translate(310.982 253) rotate(45)"/>
</clipPath>
<clipPath id="clip12_742_1532">
<rect width="81.7294" height="81.1199" fill="white" transform="translate(310.596 253.386) rotate(45)"/>
</clipPath>
<clipPath id="clip13_742_1532">
<rect width="82" height="82" fill="white" transform="translate(106.982 363.966) rotate(-135)"/>
</clipPath>
<clipPath id="clip14_742_1532">
<rect width="81.2456" height="81.4397" fill="white" transform="translate(106.982 363.579) rotate(-135)"/>
</clipPath>
<clipPath id="clip15_742_1532">
<rect width="96.2154" height="96.2154" fill="white" transform="translate(24 102.035) rotate(-45)"/>
</clipPath>
<clipPath id="clip16_742_1532">
<rect width="94.7978" height="81.4688" fill="white" transform="translate(29.6699 106.797) rotate(-45)"/>
</clipPath>
</defs>
</svg>
