<svg width="600" height="600" viewBox="0 0 600 600" fill="none" xmlns="http://www.w3.org/2000/svg">
<g clip-path="url(#clip0_742_1532)">
<rect width="600" height="600" fill="white"/>
<g clip-path="url(#clip1_742_1532)">
<path d="M800 93.6022L300.5 300.5L507.398 -199L800 93.6022Z" fill="white"/>
<path d="M800 507.415L507.398 800L300.5 300.517L800 507.415Z" fill="white"/>
<path d="M507.397 800H93.6016L300.499 300.517L507.397 800Z" fill="#CAD3E7"/>
<path d="M300.5 300.517L93.6022 800L-199 507.415L300.5 300.517Z" fill="white"/>
<path d="M300.5 300.5V300.517L-199 507.415V93.6023L300.5 300.5Z" fill="#CAD3E7"/>
<path d="M300.5 300.5L-199 93.6022L93.6022 -199L300.5 300.5Z" fill="white"/>
<path d="M507.397 -199L300.499 300.5L93.6016 -199H507.397Z" fill="#CAD3E7"/>
<path d="M800 93.6023V507.415L300.5 300.517V300.5L800 93.6023Z" fill="#CAD3E7"/>
</g>
</g>
<defs>
<clipPath id="clip0_742_1532">
<rect width="600" height="600" fill="white"/>
</clipPath>
<clipPath id="clip1_742_1532">
<rect width="999" height="999" fill="white" transform="translate(-199 -199)"/>
</clipPath>
</defs>
</svg>
