<svg width="300" height="300" viewBox="0 0 300 300" fill="none" xmlns="http://www.w3.org/2000/svg">
<g clip-path="url(#clip0_434_3587)">
<rect width="300" height="300" fill="white"/>
<g clip-path="url(#clip1_434_3587)">
<path d="M149.999 150L-36.6777 -36.677L81.6763 -105L149.999 150Z" fill="#FFF45E"/>
<path d="M336.677 -36.677L150 150L218.323 -105L336.677 -36.677Z" fill="#FFF45E"/>
<path d="M405 81.677L150 150L336.677 -36.677L405 81.677Z" fill="#905EFF"/>
<path d="M405 81.677V218.323L150 150L405 81.677Z" fill="#FFF45E"/>
<path d="M405 218.323L336.677 336.677L150 150L405 218.323Z" fill="#905EFF"/>
<path d="M336.677 336.677L218.323 405L150 150L336.677 336.677Z" fill="#FFF45E"/>
<path d="M218.324 405H81.6777L150.001 150L218.324 405Z" fill="#905EFF"/>
<path d="M149.999 150L81.6763 405L-36.6777 336.677L149.999 150Z" fill="#FFF45E"/>
<path d="M150 150L-36.677 336.677L-105 218.323L150 150Z" fill="#905EFF"/>
<path d="M150 150L-105 218.323V81.677L150 150Z" fill="#FFF45E"/>
<path d="M150 150L-105 81.677L-36.677 -36.677L150 150Z" fill="#905EFF"/>
<path d="M218.324 -105L150.001 150L81.6777 -105H218.324Z" fill="#905EFF"/>
</g>
</g>
<defs>
<clipPath id="clip0_434_3587">
<rect width="300" height="300" fill="white"/>
</clipPath>
<clipPath id="clip1_434_3587">
<rect width="510" height="510" fill="white" transform="translate(-105 -105)"/>
</clipPath>
</defs>
</svg>
