<?xml version="1.0" encoding="utf-8"?>
<!-- Generator: Adobe Illustrator 27.0.0, SVG Export Plug-In . SVG Version: 6.00 Build 0)  -->
<svg version="1.1" id="Layer_1" xmlns="http://www.w3.org/2000/svg" xmlns:xlink="http://www.w3.org/1999/xlink" x="0px" y="0px"
	 viewBox="0 0 185 108" style="enable-background:new 0 0 185 108;" xml:space="preserve">
<style type="text/css">
	.st0{clip-path:url(#SVGID_00000121264307716620130220000012468169041052135615_);}
	.st1{fill:none;stroke:#000000;stroke-width:2;stroke-linecap:round;stroke-linejoin:round;}
</style>
<g>
	<defs>
		
			<rect id="SVGID_1_" x="5.7" y="20.2" transform="matrix(0.9693 -0.246 0.246 0.9693 -10.4368 24.349)" width="173.1" height="67.4"/>
	</defs>
	<clipPath id="SVGID_00000131365740852937833090000013602523397208201653_">
		<use xlink:href="#SVGID_1_"  style="overflow:visible;"/>
	</clipPath>
	<g style="clip-path:url(#SVGID_00000131365740852937833090000013602523397208201653_);">
		<path d="M63.2,83.2c-1.8,0.5-3.6,0.6-5.2,0.4c-1.6-0.2-3-0.7-4.3-1.6c-1.2-0.9-2.3-2.1-3.1-3.8l4.6-1.2c0.8,1,1.7,1.7,2.9,2.1
			c1.2,0.3,2.5,0.3,4-0.1c1.5-0.4,2.9-1.2,4-2.3c1.1-1.1,1.7-2.7,2-4.8c0.3-2.1,0.1-4.8-0.7-8c-0.5,1.9-1.5,3.3-3,4.4
			c-1.5,1.1-3,1.8-4.5,2.2c-2.3,0.6-4.4,0.7-6.3,0.2c-1.9-0.4-3.6-1.4-4.9-2.8c-1.4-1.4-2.3-3.3-2.9-5.7l-0.1-0.5
			c-0.6-2.2-0.5-4.3,0.1-6.3c0.6-2,1.7-3.7,3.2-5.1c1.5-1.4,3.3-2.4,5.4-2.9c2.6-0.7,5-0.7,7.1,0c2.2,0.6,4,2,5.7,4.1
			c1.6,2.1,2.9,4.9,3.8,8.6l0.3,1c1.2,4.5,1.5,8.3,1,11.4c-0.5,3.1-1.6,5.4-3.2,7.2C67.5,81.5,65.6,82.6,63.2,83.2L63.2,83.2z
			 M59.6,66.3c2.4-0.6,4.1-1.7,5-3.2c0.9-1.5,1.1-3.4,0.5-5.7l-0.1-0.5c-0.6-2.2-1.6-3.8-3.2-4.8c-1.6-0.9-3.6-1.1-5.9-0.5
			c-2.4,0.6-4.1,1.7-5,3.2s-1.1,3.5-0.5,5.8l0.1,0.5c0.6,2.3,1.6,3.9,3.2,4.8C55.2,66.8,57.2,66.9,59.6,66.3z"/>
		<path d="M93.1,75.6c-1.8,0.5-3.6,0.6-5.2,0.4c-1.6-0.2-3-0.7-4.3-1.6c-1.2-0.9-2.3-2.1-3.1-3.8l4.6-1.2c0.8,1,1.7,1.7,2.9,2.1
			c1.2,0.3,2.5,0.3,4-0.1c1.5-0.4,2.9-1.2,4-2.3c1.1-1.1,1.7-2.7,2-4.8c0.3-2.1,0.1-4.8-0.7-8c-0.5,1.9-1.5,3.3-3,4.4
			c-1.5,1.1-3,1.8-4.5,2.2c-2.3,0.6-4.4,0.7-6.3,0.2c-1.9-0.4-3.6-1.4-4.9-2.8c-1.4-1.4-2.3-3.3-2.9-5.7l-0.1-0.5
			C75.1,52,75.1,50,75.7,48c0.6-2,1.7-3.7,3.2-5.1c1.5-1.4,3.3-2.4,5.4-2.9c2.6-0.7,5-0.7,7.1,0s4,2,5.7,4.1
			c1.6,2.1,2.9,4.9,3.8,8.6l0.3,1c1.2,4.5,1.5,8.3,1,11.4c-0.5,3.1-1.6,5.4-3.2,7.2C97.4,73.9,95.5,75,93.1,75.6L93.1,75.6z
			 M89.5,58.7c2.4-0.6,4.1-1.7,5-3.2c0.9-1.5,1.1-3.4,0.5-5.7L95,49.3c-0.6-2.2-1.6-3.8-3.2-4.8c-1.6-0.9-3.6-1.1-5.9-0.5
			c-2.4,0.6-4.1,1.7-5,3.2c-0.9,1.5-1.1,3.5-0.5,5.8l0.1,0.5c0.6,2.3,1.6,3.9,3.2,4.8C85.1,59.2,87.1,59.3,89.5,58.7z"/>
		<path d="M123,68c-1.8,0.5-3.6,0.6-5.2,0.4c-1.6-0.2-3-0.7-4.3-1.6c-1.2-0.9-2.3-2.1-3.1-3.8l4.6-1.2c0.8,1,1.7,1.7,2.9,2.1
			c1.2,0.3,2.5,0.3,4-0.1c1.5-0.4,2.9-1.2,4-2.3c1.1-1.1,1.7-2.7,2-4.8c0.3-2.1,0.1-4.8-0.7-8c-0.5,1.9-1.5,3.3-3,4.4
			c-1.5,1.1-3,1.8-4.5,2.2c-2.3,0.6-4.4,0.7-6.3,0.2c-1.9-0.4-3.6-1.4-4.9-2.8c-1.4-1.4-2.3-3.3-2.9-5.7l-0.1-0.5
			c-0.6-2.2-0.5-4.3,0.1-6.3c0.6-2,1.7-3.7,3.2-5.1c1.5-1.4,3.3-2.4,5.4-2.9c2.6-0.7,5-0.7,7.1,0c2.2,0.6,4,2,5.7,4.1
			c1.6,2.1,2.9,4.9,3.8,8.6l0.3,1c1.2,4.5,1.5,8.3,1,11.4c-0.5,3.1-1.6,5.4-3.2,7.2C127.3,66.3,125.3,67.4,123,68L123,68z
			 M119.4,51.1c2.4-0.6,4.1-1.7,5-3.2c0.9-1.5,1.1-3.4,0.5-5.7l-0.1-0.5c-0.6-2.2-1.6-3.8-3.2-4.8c-1.6-0.9-3.6-1.1-5.9-0.5
			s-4.1,1.7-5,3.2c-0.9,1.5-1.1,3.5-0.5,5.8l0.1,0.5c0.6,2.3,1.6,3.9,3.2,4.8C115,51.6,117,51.7,119.4,51.1z"/>
		<path d="M32.5,79.4l-0.8-3.2c-2.1,0.3-3.7,0.1-5-0.7c-1.3-0.8-2.2-1.9-2.8-3.3l2.7-0.7c0.4,0.8,1.1,1.5,2,1.9
			c0.9,0.4,2.1,0.5,3.7,0.1c1.6-0.4,2.8-1,3.4-1.9c0.7-0.8,0.9-1.7,0.7-2.6c-0.2-0.7-0.5-1.3-1-1.7c-0.5-0.4-1.1-0.6-2-0.7
			c-0.9-0.1-2-0.2-3.5-0.1c-1.6,0-2.9,0-4-0.2c-1.1-0.2-1.9-0.6-2.6-1.2c-0.6-0.6-1.1-1.6-1.4-2.8c-0.3-1.3-0.1-2.6,0.7-3.9
			c0.8-1.2,2.1-2.2,3.9-2.8l-0.7-2.7l2.4-0.6l0.7,2.7c1.8-0.2,3.3,0,4.4,0.8c1.2,0.7,2,1.8,2.6,3l-2.7,0.7c-0.4-0.8-1-1.3-1.7-1.8
			c-0.8-0.4-1.8-0.4-3.2-0.1c-1.4,0.3-2.4,0.9-3,1.7c-0.6,0.8-0.8,1.5-0.6,2.4c0.3,1.1,0.9,1.7,1.8,2c0.9,0.3,2.3,0.4,4.1,0.4
			c1.3,0,2.5,0,3.4,0.1c1,0.1,1.8,0.3,2.5,0.7c0.7,0.3,1.2,0.8,1.7,1.4c0.4,0.6,0.8,1.3,1,2.2c0.4,1.5,0.1,2.8-0.7,4.2
			c-0.9,1.3-2.3,2.3-4.3,3l0.8,3.2L32.5,79.4L32.5,79.4z"/>
		<path d="M146.2,47.2c-1.1,0.3-2.1,0.4-3,0.3c-0.9-0.1-1.8-0.4-2.5-0.9c-0.7-0.5-1.3-1.3-1.8-2.2l2.7-0.7c0.4,0.6,1,1,1.7,1.2
			c0.7,0.2,1.4,0.2,2.3,0c0.9-0.2,1.7-0.7,2.3-1.3c0.6-0.6,1-1.6,1.2-2.8c0.2-1.2,0-2.8-0.4-4.7c-0.3,1.1-0.9,1.9-1.7,2.6
			c-0.8,0.6-1.7,1.1-2.6,1.3c-1.3,0.3-2.6,0.4-3.7,0.1c-1.1-0.3-2.1-0.8-2.9-1.6c-0.8-0.8-1.4-1.9-1.7-3.3l-0.1-0.3
			c-0.3-1.3-0.3-2.5,0.1-3.6c0.4-1.1,1-2.1,1.9-3c0.9-0.8,1.9-1.4,3.2-1.7c1.5-0.4,2.9-0.4,4.2,0c1.3,0.4,2.4,1.2,3.3,2.4
			c0.9,1.2,1.7,2.9,2.2,5l0.1,0.6c0.7,2.7,0.9,4.9,0.6,6.6c-0.3,1.8-0.9,3.2-1.8,4.2C148.7,46.2,147.6,46.9,146.2,47.2L146.2,47.2z
			 M144.1,37.3c1.4-0.4,2.4-1,2.9-1.9c0.5-0.9,0.7-2,0.3-3.3l-0.1-0.3c-0.3-1.3-1-2.2-1.9-2.8c-0.9-0.5-2.1-0.6-3.5-0.3
			c-1.4,0.3-2.4,1-2.9,1.9c-0.6,0.9-0.7,2-0.3,3.4l0.1,0.3c0.3,1.3,1,2.3,1.9,2.8C141.6,37.6,142.7,37.7,144.1,37.3L144.1,37.3z"/>
		<path d="M163.7,42.8c-1.1,0.3-2.1,0.4-3,0.3c-0.9-0.1-1.8-0.4-2.5-0.9c-0.7-0.5-1.3-1.3-1.8-2.2l2.7-0.7c0.4,0.6,1,1,1.7,1.2
			c0.7,0.2,1.4,0.2,2.3,0c0.9-0.2,1.7-0.7,2.3-1.3c0.6-0.6,1-1.6,1.2-2.8c0.2-1.2,0-2.8-0.4-4.7c-0.3,1.1-0.9,1.9-1.7,2.6
			c-0.8,0.6-1.7,1.1-2.6,1.3c-1.3,0.3-2.6,0.4-3.7,0.1c-1.1-0.3-2.1-0.8-2.9-1.6c-0.8-0.8-1.4-1.9-1.7-3.3l-0.1-0.3
			c-0.3-1.3-0.3-2.5,0.1-3.6c0.4-1.1,1-2.1,1.9-3c0.9-0.8,1.9-1.4,3.2-1.7c1.5-0.4,2.9-0.4,4.2,0c1.3,0.4,2.4,1.2,3.3,2.4
			c0.9,1.2,1.7,2.9,2.2,5l0.1,0.6c0.7,2.7,0.9,4.9,0.6,6.6c-0.3,1.8-0.9,3.2-1.8,4.2C166.1,41.8,165,42.5,163.7,42.8L163.7,42.8z
			 M161.6,32.9c1.4-0.4,2.4-1,2.9-1.9c0.5-0.9,0.7-2,0.3-3.3l-0.1-0.3c-0.3-1.3-1-2.2-1.9-2.8c-0.9-0.5-2.1-0.6-3.5-0.3
			c-1.4,0.3-2.4,1-2.9,1.9c-0.6,0.9-0.7,2-0.3,3.4l0.1,0.3c0.3,1.3,1,2.3,1.9,2.8C159,33.2,160.2,33.3,161.6,32.9L161.6,32.9z"/>
		<path class="st1" d="M1.3,43.3l181.9,21.3"/>
		<path class="st1" d="M167.1,1.2L17.4,106.7"/>
	</g>
</g>
</svg>
